<svg width="21" height="21" viewBox="0 0 32 32" fill="none" xmlns="http://www.w3.org/2000/svg">
<path d="M16 30C8.28 30 2 23.72 2 16C2 8.28 8.28 2 16 2C18.89 2 21.67 2.88 24.03 4.53C24.48 4.85 24.59 5.47 24.27 5.92C23.95 6.37 23.33 6.48 22.88 6.16C20.86 4.74 18.48 3.99 16 3.99C9.38 3.99 4 9.37 4 15.99C4 22.61 9.38 27.99 16 27.99C22.62 27.99 28 22.61 28 15.99C28 15.44 28.45 14.99 29 14.99C29.55 14.99 30 15.44 30 15.99C30 23.71 23.72 29.99 16 29.99V30ZM15.5 21.5C15.24 21.5 14.99 21.4 14.79 21.21L8.29 14.71C7.9 14.32 7.9 13.69 8.29 13.3C8.68 12.91 9.31 12.91 9.7 13.3L15.49 19.09L28.29 6.29C28.68 5.9 29.31 5.9 29.7 6.29C30.09 6.68 30.09 7.31 29.7 7.7L16.2 21.2C16 21.4 15.75 21.49 15.49 21.49L15.5 21.5Z" fill="#14CB89"/>
</svg>
