<svg width="21" height="21" viewBox="0 0 32 32" fill="none" xmlns="http://www.w3.org/2000/svg">
<path d="M16 30C8.28 30 2 23.72 2 16C2 8.28 8.28 2 16 2C23.72 2 30 8.28 30 16C30 23.72 23.72 30 16 30ZM16 4C9.38 4 4 9.38 4 16C4 22.62 9.38 28 16 28C22.62 28 28 22.62 28 16C28 9.38 22.62 4 16 4ZM17 23V14C17 13.45 16.55 13 16 13C15.45 13 15 13.45 15 14V23C15 23.55 15.45 24 16 24C16.55 24 17 23.55 17 23ZM16 11C16.83 11 17.5 10.33 17.5 9.5C17.5 8.67 16.83 8 16 8C15.17 8 14.5 8.67 14.5 9.5C14.5 10.33 15.17 11 16 11Z" fill="#008BD2"/>
</svg>
