<svg width="21" height="21" viewBox="0 0 32 32" fill="none" xmlns="http://www.w3.org/2000/svg">
<path d="M16 19.5C15.45 19.5 15 19.05 15 18.5V12C15 11.45 15.45 11 16 11C16.55 11 17 11.45 17 12V18.5C17 19.05 16.55 19.5 16 19.5ZM16 21C15.17 21 14.5 21.67 14.5 22.5C14.5 23.33 15.17 24 16 24C16.83 24 17.5 23.33 17.5 22.5C17.5 21.67 16.83 21 16 21ZM27.7 27.05C28.07 26.46 28.1 25.73 27.79 25.11L17.83 5.1C17.49 4.42 16.76 4 16 4C15.24 4 14.6 4.42 14.26 5.09L4.21001 25.1C3.90001 25.72 3.93001 26.45 4.29001 27.04C4.66001 27.64 5.30001 28 6.01001 28H25.99C26.69 28 27.33 27.64 27.7 27.05ZM26 26H6.00001L16.04 6L26 26Z" fill="#FFCB15"/>
</svg>
