<svg width="21" height="21" viewBox="0 0 32 32" fill="none" xmlns="http://www.w3.org/2000/svg">
<path d="M16 30C8.28 30 2 23.72 2 16C2 8.28 8.28 2 16 2C23.72 2 30 8.28 30 16C30 23.72 23.72 30 16 30ZM16 4C9.38 4 4 9.38 4 16C4 22.62 9.38 28 16 28C22.62 28 28 22.62 28 16C28 9.38 22.62 4 16 4ZM22.5 23.5C22.24 23.5 21.99 23.4 21.79 23.21L16 17.42L10.21 23.21C9.82 23.6 9.19 23.6 8.8 23.21C8.41 22.82 8.41 22.19 8.8 21.8L14.59 16.01L8.8 10.22C8.41 9.83 8.41 9.2 8.8 8.81C9.19 8.42 9.82 8.42 10.21 8.81L16 14.6L21.79 8.81C22.18 8.42 22.81 8.42 23.2 8.81C23.59 9.2 23.59 9.83 23.2 10.22L17.41 16.01L23.2 21.8C23.59 22.19 23.59 22.82 23.2 23.21C23 23.41 22.75 23.5 22.49 23.5H22.5Z" fill="#F3304D"/>
</svg>
