<svg id="a5f269f0-7fe1-4eca-bcb8-dd6bb0e2fcb5" data-name="Ebene 1" xmlns="http://www.w3.org/2000/svg" viewBox="0 0 282.8 72.92">
	<path d="M48.56,24.1,48.62,12a12,12,0,0,0-12-12H11.94A11.92,11.92,0,0,0,0,12V60.88a11.92,11.92,0,0,0,11.94,12H36.57a12,12,0,0,0,12-12l-.06-12.1H35.42L35.48,58a2.86,2.86,0,0,1-3,2.85H16.1a2.86,2.86,0,0,1-3-2.85V14.89a2.86,2.86,0,0,1,3-2.85H32.52a2.86,2.86,0,0,1,3,2.85l-.06,9.21ZM64,72.92h44.23v-12H77.08V42.75h24.5V30.11H77.08V12h31.1V0H64ZM135.55,0H122.42V72.92h42.92v-12H135.56ZM272.08,32.74c-8-2.3-13.47-3.72-19.93-5.59-1.64-.43-3-1.53-3-3.17V14.89a2.86,2.86,0,0,1,3-2.85H267a2.86,2.86,0,0,1,3,2.85V24.1h13.14V12A12,12,0,0,0,271.09,0H248a11.92,11.92,0,0,0-11.94,12V27c0,6.68,5.26,9.86,11.72,11.83,8.1,2.41,11.28,3.29,19.6,5.58,1.75.44,2.95,1.43,2.95,3.07V58a2.85,2.85,0,0,1-2.95,2.85H251.93A2.86,2.86,0,0,1,249,58V48.78H235.83v12.1a12,12,0,0,0,12,12h23.65a11.91,11.91,0,0,0,11.93-12V44.56C283.46,37.89,278.32,34.49,272.08,32.74Z" fill="#ffffff" />
	<path d="M192.35,60.88h-5.46a2.86,2.86,0,0,1-3-2.85V14.89a2.86,2.86,0,0,1,3-2.85h5.46V0h-9.62a11.92,11.92,0,0,0-11.94,12V60.88a11.92,11.92,0,0,0,11.94,12h9.62Z" fill="#ffffff" />
	<path d="M208.46,0H199V12h5.46a2.86,2.86,0,0,1,3,2.85V58a2.86,2.86,0,0,1-3,2.85H199v12h9.51a12,12,0,0,0,12-12V12A12,12,0,0,0,208.46,0Z" fill="#ffffff" />
</svg>
