<svg xmlns="http://www.w3.org/2000/svg" viewBox="0 0 32 32"><path d="M26 20h-3c-.55 0-1-.45-1-1s.45-1 1-1h3V6H8v5c0 .55-.45 1-1 1s-1-.45-1-1V6c0-1.1.9-2 2-2h18c1.1 0 2 .9 2 2v12c0 1.1-.9 2-2 2Zm-2-7V9c0-.55-.45-1-1-1h-4c-.55 0-1 .45-1 1s.45 1 1 1h3v3c0 .55.45 1 1 1s1-.45 1-1Zm-4-2c-.55 0-1 .45-1 1s.45 1 1 1 1-.45 1-1-.45-1-1-1Zm-4 10c0-.55-.45-1-1-1h-3v-3c0-.55-.45-1-1-1s-1 .45-1 1v4c0 .55.45 1 1 1h4c.55 0 1-.45 1-1Zm-2-2c.55 0 1-.45 1-1s-.45-1-1-1-1 .45-1 1 .45 1 1 1Zm-1.28 10.86c6.77-2.73 7.34-10.32 7.28-13.45-.02-.89-.64-1.66-1.5-1.87-2.83-.67-4.63-1.68-5.45-2.23-.63-.42-1.45-.42-2.08 0-.82.54-2.62 1.55-5.45 2.23-.87.21-1.48.97-1.5 1.87-.07 3.13.5 10.72 7.28 13.45.23.09.47.14.72.14s.49-.05.72-.14h-.02ZM18 16.45c.06 2.72-.41 9.29-5.97 11.55-5.62-2.27-6.08-8.84-6.06-11.52 3.07-.73 5.08-1.84 6.03-2.46.96.62 2.96 1.73 6 2.43Z"/></svg>