<svg xmlns="http://www.w3.org/2000/svg" viewBox="0 0 32 32"><path d="M15 16c3.83 0 5.54-3.46 5.54-6.89C20.54 6.06 18.31 4 15 4S9.45 6.05 9.45 9.11C9.45 12.54 11.16 16 15 16Zm0-10c.83 0 3.54.22 3.54 3.11 0 .5-.1 4.89-3.54 4.89s-3.55-4.39-3.55-4.89C11.45 6.23 14.16 6 15 6Zm1.5 13c0 .55-.45 1-1 1H15c-5.41 0-8.09 1.7-8.99 2.44V24H15c.55 0 1 .45 1 1s-.45 1-1 1H6c-1.1 0-2-.9-2-2v-1.56c0-.61.27-1.17.74-1.56C5.81 20.01 8.94 18 15 18h.5c.55 0 1 .45 1 1Zm9.5 1v-1c0-1.65-1.35-3-3-3s-3 1.35-3 3v1c-1.1 0-2 .9-2 2v4c0 1.1.9 2 2 2h6c1.1 0 2-.9 2-2v-4c0-1.1-.9-2-2-2Zm-4-1c0-.55.45-1 1-1s1 .45 1 1v1h-2v-1Zm4 7h-6v-4h6v4Z"/></svg>