<svg xmlns="http://www.w3.org/2000/svg" viewBox="0 0 32 32"><path d="M24 24h-1v-9c0-3.31-2.69-6-6-6h-2c-3.31 0-6 2.69-6 6v9H8c-1.1 0-2 .9-2 2v3c0 .55.45 1 1 1s1-.45 1-1v-3h16v3c0 .55.45 1 1 1s1-.45 1-1v-3c0-1.1-.9-2-2-2Zm-13 0v-9c0-2.21 1.79-4 4-4h2c2.21 0 4 1.79 4 4v9H11Zm5-17c-.55 0-1-.45-1-1V3c0-.55.45-1 1-1s1 .45 1 1v3c0 .55-.45 1-1 1Zm13 9h-3c-.55 0-1-.45-1-1s.45-1 1-1h3c.55 0 1 .45 1 1s-.45 1-1 1ZM6 16H3c-.55 0-1-.45-1-1s.45-1 1-1h3c.55 0 1 .45 1 1s-.45 1-1 1Zm17-7c-.26 0-.51-.1-.71-.29a.996.996 0 0 1 0-1.41l2.5-2.5a.996.996 0 1 1 1.41 1.41l-2.5 2.5c-.2.2-.45.29-.71.29H23ZM9 9c-.26 0-.51-.1-.71-.29l-2.5-2.5A.996.996 0 1 1 7.2 4.8l2.5 2.5A.996.996 0 0 1 8.99 9H9Z"/></svg>