<svg xmlns="http://www.w3.org/2000/svg" viewBox="0 0 32 32"><path d="M26 4H6c-1.1 0-2 .9-2 2v20c0 1.1.9 2 2 2h20c1.1 0 2-.9 2-2V6c0-1.1-.9-2-2-2Zm0 22H6V6h20v20Zm-3.38-6.72c.42.36.47.99.1 1.41-.48.55-.86.94-1.4 1.42a7.439 7.439 0 0 1-4.98 1.9c-.17 0-.33 0-.5-.02a7.466 7.466 0 0 1-5.22-2.59 7.353 7.353 0 0 1-1.57-3.05l-.3.32a1.002 1.002 0 0 1-1.42.05.996.996 0 0 1-.04-1.41l1.83-1.94c.22-.23.51-.36.82-.37.31 0 .61.11.83.32l1.93 1.85a.996.996 0 1 1-1.38 1.44l-.13-.12c.22.58.54 1.12.95 1.61.97 1.13 2.33 1.8 3.83 1.9 1.49.09 2.91-.39 4.02-1.38.48-.43.8-.75 1.22-1.24.36-.42.99-.46 1.41-.1Zm2.02-6c.4.38.42 1.01.04 1.41l-1.83 1.94c-.22.23-.51.36-.82.37H22c-.3 0-.58-.11-.8-.32l-1.93-1.85a.996.996 0 1 1 1.38-1.44l.13.12c-.22-.58-.54-1.12-.95-1.61A5.478 5.478 0 0 0 16 10c-1.49-.09-2.91.39-4.02 1.38-.48.43-.8.75-1.22 1.24-.36.42-.99.46-1.41.1a.99.99 0 0 1-.1-1.41c.48-.55.86-.94 1.4-1.42 1.51-1.35 3.45-2.03 5.48-1.88 2.04.13 3.89 1.05 5.22 2.59.77.89 1.29 1.93 1.57 3.05l.3-.32a.996.996 0 0 1 1.41-.04l.01-.01Z"/></svg>