<svg xmlns="http://www.w3.org/2000/svg" viewBox="0 0 32 32"><path d="M24.8 3.42 23.31 3c-.16-.05-.33-.07-.5-.07h-1.97c-.26-.54-.84-.92-1.51-.92h-6.67c-.67 0-1.25.38-1.51.92H9.49V2.5c0-.28-.22-.5-.5-.5s-.5.22-.5.5v.55l-1.3.37c-.72.2-1.2.81-1.2 1.52v11.07c0 .7.48 1.32 1.2 1.52l1.3.37v.12c0 .55.45 1 1 1h13.5c.55 0 1-.45 1-1v-.27l.8-.23c.72-.2 1.2-.81 1.2-1.52V4.94c0-.7-.48-1.32-1.2-1.52h.01ZM13 4.01h6v7.04l-6 .9V4.01Zm11 11.66-1.19.34H9.24L8 15.67V5.27l1.19-.34H11v7.5c0 .43.18.83.5 1.13.31.29.72.45 1.2.45h.17l6.64-.99c.84-.08 1.49-.77 1.49-1.57V4.92h1.76l1.24.35v10.4ZM15.03 5.45V10c0 .28-.22.5-.5.5s-.5-.22-.5-.5V5.45c0-.28.22-.5.5-.5s.5.22.5.5Zm5.56 17.89c.39.39.39 1.02 0 1.41l-4.95 4.95c-.2.2-.45.29-.71.29-.26 0-.51-.1-.71-.29a.996.996 0 0 1 0-1.41l4.95-4.95a.996.996 0 0 1 1.41 0h.01Zm-2.83-1.41-4.95 4.95c-.2.2-.45.29-.71.29-.26 0-.51-.1-.71-.29a.996.996 0 0 1 0-1.41l4.95-4.95a.996.996 0 1 1 1.41 1.41h.01Z"/></svg>