<svg xmlns="http://www.w3.org/2000/svg" viewBox="0 0 32 32"><path d="M11.29 10.29 12.58 9H7.99v14h5c.55 0 1 .45 1 1s-.45 1-1 1h-5c-1.1 0-2-.9-2-2V9c0-1.1.9-2 2-2h4.59l-1.29-1.29A.996.996 0 1 1 12.7 4.3l3 3c.39.39.39 1.02 0 1.41l-3 3c-.2.2-.45.29-.71.29-.26 0-.51-.1-.71-.29a.996.996 0 0 1 0-1.41l.01-.01ZM24 7h-5c-.55 0-1 .45-1 1s.45 1 1 1h5v14h-4.59l1.29-1.29a.996.996 0 1 0-1.41-1.41l-3 3a.996.996 0 0 0 0 1.41l3 3c.2.2.45.29.71.29.26 0 .51-.1.71-.29a.996.996 0 0 0 0-1.41l-1.29-1.29h4.59c1.1 0 2-.9 2-2V9c0-1.1-.9-2-2-2H24Z"/></svg>