<svg xmlns="http://www.w3.org/2000/svg" viewBox="0 0 32 32"><path d="m24.8 3.42-1.39-.35A1.14 1.14 0 0 0 23 3l-1.98-.03c-.26-.54-1.01-.96-1.68-.96h-6.67c-.67 0-1.41.48-1.68 1.02L9.5 3v-.5c0-.28-.22-.5-.5-.5s-.5.22-.5.5V3l-1.3.42c-.72.2-1.2.81-1.2 1.52v11.07c0 .7.48 1.32 1.2 1.52l1.3.37v.12c0 .55.45 1 1 1H23c.55 0 1-.45 1-1v-.27l.8-.23c.72-.2 1.2-.81 1.2-1.52V4.94c0-.7-.48-1.32-1.2-1.52ZM13 4.01h6v7.04l-6 .9V4.01Zm11 11.66-1 .34H8.99L8 15.67V5.27l1-.29L11 5v7.42c0 .43.18.83.5 1.13.31.29.72.45 1.2.45h.17l6.64-.99c.84-.08 1.49-.77 1.49-1.57V5l1.99-.02 1.01.28v10.41ZM15 23v6c0 .55-.45 1-1 1s-1-.45-1-1v-2H9.41l.29.29a.996.996 0 0 1-.71 1.7c-.26 0-.51-.1-.71-.29l-2-2a.996.996 0 0 1 0-1.41l2-2a.996.996 0 1 1 1.41 1.41l-.29.29h3.59v-2c0-.55.45-1 1-1s1 .45 1 1L15 23Zm10.71 2.29c.39.39.39 1.02 0 1.41l-2 2c-.2.2-.45.29-.71.29-.26 0-.51-.1-.71-.29a.996.996 0 0 1 0-1.41l.29-.29h-3.59v2c0 .55-.45 1-1 1s-1-.45-1-1v-6c0-.55.45-1 1-1s1 .45 1 1v2h3.59l-.29-.29a.996.996 0 1 1 1.41-1.41l2 2 .01-.01ZM14.5 10c-.27 0-.5-.22-.5-.5v-4c0-.27.22-.5.5-.5.27 0 .5.22.5.5v4c0 .27-.22.5-.5.5Z"/></svg>