<svg xmlns="http://www.w3.org/2000/svg" viewBox="0 0 32 32"><path d="M21.01 4.03c-.53-.14-1.08.17-1.23.7-.15.53.17 1.08.7 1.23 3.96 1.08 6.32 5.26 5.26 9.32-.52 1.99-1.77 3.64-3.53 4.65-.61.35-1.26.61-1.92.77a6.542 6.542 0 0 0 2.57-5.22v-.09c.05-1.03-.04-2.09-.33-3.17-.66-2.51-2.24-4.59-4.46-5.87a9.236 9.236 0 0 0-7.1-.92C5.95 6.8 2.96 12.08 4.31 17.19c.14.53.69.85 1.22.71s.85-.69.71-1.22c-1.06-4.05 1.29-8.23 5.26-9.32 1.89-.52 3.87-.26 5.57.72.62.36 1.17.8 1.65 1.3-.71-.28-1.48-.43-2.28-.43-.59 0-1.15.09-1.69.24h-.02c-.02 0-.04.01-.06.02-.14.04-.29.09-.43.14-1.43.47-2.65 1.2-3.68 2.25-3.66 3.74-3.66 9.83 0 13.57a9.272 9.272 0 0 0 6.68 2.82c2.52 0 4.89-1 6.68-2.82a.996.996 0 0 0-.01-1.41.996.996 0 0 0-1.41.01 7.308 7.308 0 0 1-5.25 2.22c-1.98 0-3.84-.79-5.25-2.22-1.97-2.01-2.6-4.87-1.9-7.43.16 1.27.69 2.45 1.52 3.43 0 0 0 .02.01.03.02.02.04.03.05.05.06.07.11.14.18.2.17.17.34.33.52.48a9.2 9.2 0 0 0 3.74 2.05 9.26 9.26 0 0 0 7.1-.92c2.22-1.28 3.8-3.37 4.46-5.87 1.34-5.11-1.65-10.38-6.66-11.76h-.01Zm-.15 11.41v.16c0 .09-.02.17-.03.26-.04.28-.08.56-.16.83v.05c-.54 1.88-2.22 3.27-4.22 3.27-1.11 0-2.15-.43-2.97-1.2a3.07 3.07 0 0 1-.26-.25 4.563 4.563 0 0 1-1.19-3.08c0-2.5 1.98-4.53 4.42-4.53s4.39 2.01 4.41 4.49Z"/></svg>