<svg xmlns="http://www.w3.org/2000/svg" viewBox="0 0 32 32"><path d="M18 10H6c-1.1 0-2-.9-2-2V6c0-1.1.9-2 2-2h12c1.1 0 2 .9 2 2v2c0 1.1-.9 2-2 2ZM6 6v2h12V6H6Zm12 22H6c-1.1 0-2-.9-2-2v-2c0-1.1.9-2 2-2h12c1.1 0 2 .9 2 2v2c0 1.1-.9 2-2 2ZM6 24v2h12v-2H6Zm15-5H9c-1.1 0-2-.9-2-2v-2c0-1.1.9-2 2-2h12c1.1 0 2 .9 2 2v2c0 1.1-.9 2-2 2ZM9 15v2h12v-2H9Zm17.26-7.67 1.23-.57c.46-.22.67-.76.45-1.23a.937.937 0 0 0-1.23-.45l-3.52 1.63c-.46.22-.67.76-.45 1.23l1.64 3.5a.918.918 0 0 0 1.23.44c.47-.22.67-.76.45-1.23l-.77-1.64c1.6.2 2.85 1.55 2.85 3.19 0 1.35-.87 2.57-2.17 3.03-.48.17-.74.7-.56 1.18.14.38.49.61.88.61.1 0 .21-.02.31-.05 2.04-.72 3.4-2.64 3.4-4.77 0-2.33-1.58-4.29-3.74-4.89v.02Z"/></svg>