<svg xmlns="http://www.w3.org/2000/svg" viewBox="0 0 32 32"><path d="M11 17c-.55 0-1-.45-1-1s.45-1 1-1 1 .45 1 1-.45 1-1 1Zm5-2c-.55 0-1 .45-1 1s.45 1 1 1 1-.45 1-1-.45-1-1-1Zm-5 5c-.55 0-1 .45-1 1s.45 1 1 1 1-.45 1-1-.45-1-1-1Zm10-5c-.55 0-1 .45-1 1s.45 1 1 1 1-.45 1-1-.45-1-1-1Zm0 5c-.55 0-1 .45-1 1s.45 1 1 1 1-.45 1-1-.45-1-1-1Zm-5 0c-.55 0-1 .45-1 1s.45 1 1 1 1-.45 1-1-.45-1-1-1ZM26 4h-3V3c0-.55-.45-1-1-1s-1 .45-1 1v1H11V3c0-.55-.45-1-1-1s-1 .45-1 1v1H6c-1.1 0-2 .9-2 2v20c0 1.1.9 2 2 2h20c1.1 0 2-.9 2-2V6c0-1.1-.9-2-2-2Zm0 22H6V11h20v15Zm0-17H6V6h3v1c0 .55.45 1 1 1s1-.45 1-1V6h10v1c0 .55.45 1 1 1s1-.45 1-1V6h3v3Z"/></svg>