<svg xmlns="http://www.w3.org/2000/svg" viewBox="0 0 32 32"><path d="M25 15.02H7a5 5 0 0 0-5 4.99A5 5 0 0 0 7 25h18a5 5 0 0 0 5-4.99 5 5 0 0 0-5-4.99Zm-3.97 2c-.63.84-1.03 1.87-1.03 2.99s.39 2.16 1.03 2.99H10.97c.63-.84 1.03-1.87 1.03-2.99s-.39-2.16-1.03-2.99h10.06ZM4 20.01a3 3 0 0 1 6 0 3 3 0 0 1-6 0ZM25 23a3 3 0 0 1-3-2.99 3 3 0 0 1 6 0A3 3 0 0 1 25 23ZM11.21 12.63a1 1 0 0 1 .18-1.4c.73-.56 1.79-1.2 3.6-1.2 1.72 0 2.74.57 3.59 1.18.45.32.55.95.23 1.39a1 1 0 0 1-1.39.22c-.59-.42-1.21-.8-2.42-.8s-1.85.38-2.39.78a1 1 0 0 1-1.4-.18v.01Zm-6.22-.74c.1-.88.38-2.06 1.6-3.28 1.16-1.16 2.25-1.46 3.26-1.6.54-.09 1.05.3 1.13.84.08.55-.3 1.05-.85 1.13-.67.1-1.35.25-2.13 1.04-.82.82-.96 1.51-1.03 2.1-.06.51-.49.88-.99.88h-.12c-.55-.06-.94-.56-.88-1.11h.01Zm17.61-.49c-1.16-1.16-1.46-2.25-1.61-3.26-.08-.55.3-1.05.85-1.13.54-.09 1.05.3 1.13.84.1.67.25 1.34 1.04 2.13.82.82 1.52.96 2.1 1.03A.998.998 0 0 1 26 13h-.12c-.88-.1-2.06-.37-3.29-1.6h.01Z"/></svg>