<svg xmlns="http://www.w3.org/2000/svg" viewBox="0 0 32 32"><path d="M30 19.99c0 .55-.45 1-1 1h-2.33l.33 1h2l-2 5h-1l-2-6h-3.33l.33 1h2l-2 5h-1l-2-6h-3.33l.33 1h2l-2 5h-1l-2-6H8.66L9 22h2l-2 5H8l-2-6.01H3c-.55 0-1-.45-1-1s.45-1 1-1h2.33L5 18H3l1.97-5.01H6l2 6h3.34l-.33-1h-2l1.97-5.01h1.03l2 6.01h3.33l-.33-1h-2l1.97-5.01h1.03l2 6.01h3.33l-.33-1h-2l1.97-5.01h1.03l2 6.01h3c.55 0 1 .45 1 1H30Zm-16.38-9.17c.53-.41 1.19-.79 2.39-.79 1.2 0 1.83.38 2.42.8.18.13.38.19.58.19.31 0 .62-.14.81-.42.32-.45.22-1.07-.23-1.4-.85-.61-1.88-1.18-3.59-1.18-1.81 0-2.88.64-3.6 1.2-.44.34-.52.96-.19 1.4.34.44.96.52 1.4.19l.01.01Zm-6.74.19H7c.5 0 .93-.38.99-.89.07-.58.21-1.28 1.03-2.1.79-.79 1.46-.94 2.13-1.04A1 1 0 0 0 12 5.85c-.08-.55-.59-.92-1.13-.85-1.01.15-2.1.44-3.26 1.61-1.23 1.23-1.5 2.4-1.6 3.28-.06.55.33 1.04.88 1.11l-.01.01Zm20.01 0h.12a1.003 1.003 0 0 0 .11-2c-.58-.07-1.28-.21-2.1-1.03-.79-.79-.94-1.46-1.04-2.14-.08-.55-.59-.92-1.13-.85-.55.08-.92.59-.85 1.13.15 1.01.44 2.1 1.61 3.26 1.23 1.23 2.4 1.5 3.28 1.6v.03Z"/></svg>