<svg xmlns="http://www.w3.org/2000/svg" viewBox="0 0 32 32"><path d="M19 25H5c-1.1 0-2-.9-2-2V9c0-1.1.9-2 2-2h14c1.1 0 2 .9 2 2v14c0 1.1-.9 2-2 2ZM5 9v14h14V9H5Zm7 12c-2.76 0-5-2.24-5-5s2.24-5 5-5 5 2.24 5 5-2.24 5-5 5Zm0-8c-1.65 0-3 1.35-3 3s1.35 3 3 3 3-1.35 3-3-1.35-3-3-3Zm7 12H5c-1.1 0-2-.9-2-2V9c0-1.1.9-2 2-2h14c1.1 0 2 .9 2 2v14c0 1.1-.9 2-2 2ZM5 9v14h14V9H5Zm7 12c-2.76 0-5-2.24-5-5s2.24-5 5-5 5 2.24 5 5-2.24 5-5 5Zm0-8c-1.65 0-3 1.35-3 3s1.35 3 3 3 3-1.35 3-3-1.35-3-3-3Zm17 7.5h-6v-1.18l2.92-3.06c.38-.41.66-.78.84-1.08.18-.3.27-.6.27-.88 0-.38-.1-.68-.29-.89-.19-.21-.46-.33-.82-.33-.38 0-.68.13-.9.4-.22.27-.33.61-.33 1.04H23c0-.52.12-.99.37-1.42.25-.43.6-.77 1.05-1.01.45-.24.96-.37 1.54-.37.88 0 1.56.21 2.04.63.48.42.73 1.02.73 1.79 0 .42-.11.85-.33 1.29-.22.44-.59.95-1.12 1.53L25.35 19h3.66v1.5H29Z"/></svg>