<svg xmlns="http://www.w3.org/2000/svg" viewBox="0 0 32 32"><path d="M26 28H6c-1.1 0-2-.9-2-2v-4c0-1.1.9-2 2-2h20c1.1 0 2 .9 2 2v4c0 1.1-.9 2-2 2ZM6 22v4h20v-4H6Zm15.09-3.04h-9.97c-3.1 0-5.62-2.55-5.62-5.68 0-2.75 1.9-5.04 4.5-5.56C11.03 5.47 13.26 4 15.75 4c3.03 0 5.61 2.19 6.2 5.12C24.25 9.53 26 11.57 26 14c0 2.74-2.2 4.96-4.91 4.96ZM15.75 6c-1.84 0-3.48 1.18-4.09 2.95l-.21.61-.64.06c-1.85.17-3.3 1.77-3.3 3.66 0 2.03 1.63 3.72 3.62 3.72H21c1.61 0 3-1.37 3-3s-1.29-2.94-2.88-2.96l-.97.08-.08-1.01C19.92 7.81 18.02 6 15.75 6ZM20 24l3 1h2v-2h-2v2l-3-1Z"/></svg>