<svg xmlns="http://www.w3.org/2000/svg" viewBox="0 0 32 32"><path d="M12.29 10.71A.996.996 0 1 1 13.7 9.3l1.29 1.29V5c0-.55.45-1 1-1s1 .45 1 1v5.59l1.29-1.29a.996.996 0 1 1 1.41 1.41l-3 3c-.2.2-.45.29-.71.29-.26 0-.51-.1-.71-.29l-3-3h.02Zm4.41 7.59a.996.996 0 0 0-1.41 0l-3 3a.996.996 0 1 0 1.41 1.41l1.29-1.29v5.59c0 .55.45 1 1 1s1-.45 1-1v-5.59l1.29 1.29c.2.2.45.29.71.29.26 0 .51-.1.71-.29a.996.996 0 0 0 0-1.41l-3-3Zm10.29-3.29H21.4l1.29-1.29a.996.996 0 1 0-1.41-1.41l-3 3a.996.996 0 0 0 0 1.41l3 3c.2.2.45.29.71.29.26 0 .51-.1.71-.29a.996.996 0 0 0 0-1.41l-1.29-1.29H27c.55 0 1-.45 1-1s-.45-1-1-1l-.01-.01Zm-13.29.29-3-3a.996.996 0 1 0-1.41 1.41L10.58 15H5c-.55 0-1 .45-1 1s.45 1 1 1h5.59L9.3 18.29a.996.996 0 0 0 .71 1.7c.26 0 .51-.1.71-.29l3-3a.996.996 0 0 0 0-1.41l-.02.01Z"/></svg>