<svg xmlns="http://www.w3.org/2000/svg" viewBox="0 0 32 32"><path d="M11 21H7c-2.76 0-5-2.24-5-5s2.24-5 5-5h7.5a5.002 5.002 0 0 1 4.96 5.62c-.07.55-.57.93-1.12.87-.55-.07-.94-.57-.87-1.12.02-.12.02-.25.02-.38 0-1.65-1.35-3-3-3H7c-1.65 0-3 1.35-3 3s1.35 3 3 3h4c.55 0 1 .45 1 1s-.45 1-1 1V21Zm19-5c0-2.76-2.24-5-5-5h-4c-.55 0-1 .45-1 1s.45 1 1 1h4c1.65 0 3 1.35 3 3s-1.35 3-3 3h-7.5c-1.65 0-3-1.35-3-3 0-.13 0-.25.02-.38.07-.55-.32-1.05-.87-1.12a.997.997 0 0 0-1.12.87 5.002 5.002 0 0 0 4.96 5.62h7.5c2.76 0 5-2.24 5-5L30 16Z"/></svg>