<svg xmlns="http://www.w3.org/2000/svg" viewBox="0 0 32 32"><path d="M20.97 25.44a1.499 1.499 0 1 0 2.12 2.12 1.499 1.499 0 0 0 0-2.12 1.5 1.5 0 0 0-2.12 0Zm4.95-2.82a.996.996 0 1 1-1.41 1.41 3.513 3.513 0 0 0-4.95 0c-.2.2-.45.29-.71.29-.26 0-.51-.1-.71-.29a.996.996 0 0 1 0-1.41c2.14-2.14 5.63-2.14 7.78 0Zm2.83-1.41c-.2.2-.45.29-.71.29-.26 0-.51-.1-.71-.29-2.92-2.92-7.68-2.92-10.61 0a.996.996 0 1 1-1.41-1.41c3.7-3.7 9.73-3.71 13.43 0 .39.39.39 1.02 0 1.41h.01Zm-15.73.8c0 .55-.45 1-1 1h-1.57c-4.1 0-7.43-3.24-7.43-7.22 0-3.12 2.07-5.87 5.09-6.84 1.42-3.01 4.47-4.94 7.92-4.94 4.05 0 7.59 2.78 8.49 6.56 2.13.65 3.66 2.14 4.25 4.16.06.19.1.39.14.59a1.003 1.003 0 0 1-1.97.37c-.03-.14-.06-.28-.1-.41-.43-1.49-1.67-2.56-3.39-2.93l-.68-.14-.1-.68c-.48-3.15-3.33-5.52-6.64-5.52-2.8 0-5.25 1.62-6.26 4.14l-.19.47-.5.12c-2.39.6-4.06 2.67-4.06 5.04 0 2.88 2.44 5.22 5.43 5.22h1.57c.55 0 1 .45 1 1v.01Z"/></svg>