<svg xmlns="http://www.w3.org/2000/svg" viewBox="0 0 32 32"><path d="M13 22c0 .55-.45 1-1 1h-1.57C6.33 23 3 19.76 3 15.78c0-3.12 2.07-5.87 5.09-6.84C9.51 5.93 12.57 4 16.01 4c4.05 0 7.59 2.78 8.49 6.56 2.13.65 3.66 2.14 4.24 4.16.17.59.26 1.23.26 1.9 0 .15 0 .3-.01.44-.03.55-.52.96-1.06.94-.55-.03-.97-.51-.94-1.06v-.32c0-.48-.06-.93-.18-1.34-.43-1.49-1.67-2.56-3.39-2.93l-.68-.14-.1-.68c-.48-3.15-3.33-5.52-6.64-5.52-2.8 0-5.25 1.62-6.27 4.14l-.19.47-.5.12c-2.39.6-4.06 2.67-4.06 5.04 0 2.88 2.44 5.22 5.43 5.22h1.57c.55 0 1 .45 1 1H13Zm14 0v1c1.1 0 2 .9 2 2v1c0 1.1-.9 2-2 2h-2c-1.1 0-2-.9-2-2v-1c0-1.1.9-2 2-2v-1h-6v1c1.1 0 2 .9 2 2v1c0 1.1-.9 2-2 2h-2c-1.1 0-2-.9-2-2v-1c0-1.1.9-2 2-2v-1h-1c-.55 0-1-.45-1-1s.45-1 1-1h2.5c.06 0 .11.02.17.03.11-.02.22-.03.33-.03h2v-3c0-.55.45-1 1-1s1 .45 1 1v3h2c.11 0 .22.02.33.03.06 0 .11-.03.17-.03H28c.55 0 1 .45 1 1s-.45 1-1 1h-1Zm-8 3h-2v1h2v-1Zm8 0h-2v1h2v-1Z"/></svg>