<svg xmlns="http://www.w3.org/2000/svg" viewBox="0 0 32 32"><path d="M11.98 22c0 .55-.45 1-1 1h-.54C6.34 23 3 19.76 3 15.78c0-3.12 2.07-5.87 5.09-6.84C9.51 5.93 12.57 4 16.02 4c4.06 0 7.6 2.78 8.5 6.56 2.14.65 3.67 2.14 4.25 4.16.11.38.18.78.22 1.18a1 1 0 0 1-.9 1.09.993.993 0 0 1-1.09-.9c-.03-.28-.08-.56-.16-.82-.43-1.49-1.67-2.56-3.39-2.93l-.68-.14-.1-.68C22.19 8.37 19.33 6 16.02 6c-2.8 0-5.26 1.62-6.27 4.14l-.19.47-.5.12c-2.39.6-4.07 2.67-4.07 5.04 0 2.88 2.44 5.22 5.44 5.22h.54c.55 0 1 .45 1 1l.01.01Zm4-3h-2v9h4v-2h-2v-7Zm5.01 0h-3v2h2v7h2v-7h2v-2h-3Zm8.02 5.51v-2H27v-1.5h1.99v-2H25v9h4v-2h-2v-1.49h2.01v-.01Z"/></svg>