<svg xmlns="http://www.w3.org/2000/svg" viewBox="0 0 32 32"><path d="M16 10c-3.31 0-6 2.69-6 6s2.69 6 6 6 6-2.69 6-6-2.69-6-6-6Zm0 10c-2.21 0-4-1.79-4-4s1.79-4 4-4 4 1.79 4 4-1.79 4-4 4Zm-8.29-8.29c-.2.2-.45.29-.71.29-.26 0-.51-.1-.71-.29L6 11.42v9.59c0 .55-.45 1-1 1s-1-.45-1-1v-9.6l-.29.29a.996.996 0 1 1-1.41-1.41l2-2a.996.996 0 0 1 1.41 0l2 2c.39.39.39 1.02 0 1.41v.01Zm22 10-2 2c-.2.2-.45.29-.71.29-.26 0-.51-.1-.71-.29l-2-2a.996.996 0 1 1 1.41-1.41l.29.29V11c0-.55.45-1 1-1s1 .45 1 1v9.59l.29-.29a.996.996 0 1 1 1.41 1.41h.02ZM22 27c0 .55-.45 1-1 1h-9.59l.29.29a.996.996 0 0 1-.71 1.7c-.26 0-.51-.1-.71-.29l-2-2a.996.996 0 0 1 0-1.41l2-2a.996.996 0 1 1 1.41 1.41l-.29.29h9.59c.55 0 1 .45 1 1L22 27Zm1.71-21.29-2 2c-.2.2-.45.29-.71.29-.26 0-.51-.1-.71-.29a.996.996 0 0 1 0-1.41l.29-.29H11c-.55 0-1-.45-1-1s.45-1 1-1h9.59l-.29-.29a.996.996 0 1 1 1.41-1.41l2 2c.39.39.39 1.02 0 1.41v-.01Z"/></svg>