<svg xmlns="http://www.w3.org/2000/svg" viewBox="0 0 32 32"><path d="M24 9c0-1.1.9-2 2-2s2 .9 2 2-.9 2-2 2-2-.9-2-2Zm4 5c-1.1 0-2 .9-2 2s.9 2 2 2 2-.9 2-2-.9-2-2-2Zm-7-6h-2.5c-.27 0-.52.11-.71.29L14.08 12H6.72c-.35-.6-.98-1-1.72-1-1.1 0-2 .9-2 2s.9 2 2 2c.74 0 1.38-.4 1.72-1h7.78c.27 0 .52-.11.71-.29L18.92 10h2.09c.55 0 1-.45 1-1s-.45-1-1-1H21Zm-.5 9H23c.55 0 1-.45 1-1s-.45-1-1-1h-5.5c-.27 0-.52.11-.71.29L13.08 19H5.72c-.35-.6-.98-1-1.72-1-1.1 0-2 .9-2 2s.9 2 2 2c.74 0 1.38-.4 1.72-1h7.36l2.71 2.71c.19.19.44.29.71.29H18c.55 0 1-.45 1-1s-.45-1-1-1h-1.09l-2-2 3-3h2.59Zm2.5 4c-1.1 0-2 .9-2 2s.9 2 2 2 2-.9 2-2-.9-2-2-2Z"/></svg>