<svg xmlns="http://www.w3.org/2000/svg" viewBox="0 0 32 32"><path d="M26 5h-5V4c0-1.1-.9-2-2-2h-6c-1.1 0-2 .9-2 2v1H6c-.55 0-1 .45-1 1s.45 1 1 1l1.41 20.67A2.51 2.51 0 0 0 9.91 30h12.2c1.31 0 2.4-1.02 2.49-2.33L26.01 7c.55 0 1-.45 1-1s-.45-1-1-1H26ZM13 4h6v1h-6V4Zm9.6 23.53a.51.51 0 0 1-.5.47H9.9a.51.51 0 0 1-.5-.47L8 7h16l-1.4 20.53ZM11 25V10c0-.55.45-1 1-1s1 .45 1 1v15c0 .55-.45 1-1 1s-1-.45-1-1Zm8 0V10c0-.55.45-1 1-1s1 .45 1 1v15c0 .55-.45 1-1 1s-1-.45-1-1Zm-4 0V10c0-.55.45-1 1-1s1 .45 1 1v15c0 .55-.45 1-1 1s-1-.45-1-1Z"/></svg>