<svg xmlns="http://www.w3.org/2000/svg" viewBox="0 0 32 32"><path d="M25 13.5v3c0 .09-.03.17-.05.25.02.08.05.16.05.25 0 .55-.45 1-1 1H8c-.55 0-1-.45-1-1 0-.09.03-.17.05-.25-.02-.08-.05-.16-.05-.25v-3c0-.55.45-1 1-1s1 .45 1 1V16h2v-2.5c0-.55.45-1 1-1s1 .45 1 1V16h2v-5.5c0-.55.45-1 1-1s1 .45 1 1V16h2v-2.5c0-.55.45-1 1-1s1 .45 1 1V16h2v-2.5c0-.55.45-1 1-1s1 .45 1 1ZM5 5c-.55 0-1 .45-1 1v18c0 .55.45 1 1 1s1-.45 1-1V6c0-.55-.45-1-1-1Zm22 0c-.55 0-1 .45-1 1v18c0 .55.45 1 1 1s1-.45 1-1V6c0-.55-.45-1-1-1Zm-2.08 18.62c-.05-.12-.12-.23-.22-.33l-2-2a.996.996 0 1 0-1.41 1.41l.29.29H10.41l.29-.29a.996.996 0 1 0-1.41-1.41l-2 2a1 1 0 0 0 0 1.42l2 2c.2.2.45.29.71.29.26 0 .51-.1.71-.29a.996.996 0 0 0 0-1.41l-.29-.29h11.17l-.29.29a.996.996 0 0 0 .71 1.7c.26 0 .51-.1.71-.29l2-2a1 1 0 0 0 .22-1.09h-.02Z"/></svg>