<svg xmlns="http://www.w3.org/2000/svg" viewBox="0 0 32 32"><path d="M27 8v20c0 1.1-.9 2-2 2h-7c-.55 0-1-.45-1-1s.45-1 1-1h7V8h-3c-.55 0-1-.45-1-1V4H9v1c0 .55-.45 1-1 1s-1-.45-1-1V4c0-1.1.9-2 2-2h12c.59 0 1.15.23 1.56.65l3.79 3.79C26.71 6.8 27 7.5 27 8Zm-12 2v18c0 1.1-.9 2-2 2H7c-1.1 0-2-.9-2-2V10c0-1.1.9-2 2-2h6c1.1 0 2 .9 2 2Zm-6 3c0-.55.45-1 1-1h3v-2H7v18h6v-2h-1c-.55 0-1-.45-1-1s.45-1 1-1h1v-2h-3c-.55 0-1-.45-1-1s.45-1 1-1h3v-2h-1c-.55 0-1-.45-1-1s.45-1 1-1h1v-2h-3c-.55 0-1-.45-1-1Zm12-3c1.1 0 2 .9 2 2v10.5c0 .43-.16.84-.44 1.16l-1.81 2.01a1 1 0 0 1-.74.33 1 1 0 0 1-.74-.33l-1.8-2c-.3-.33-.46-.74-.46-1.17V12c0-1.1.9-2 2-2h2H21Zm-2 2v2h2v-2h-2Zm2 4h-2v6.5l1 1 1-1V16Z"/></svg>