<svg xmlns="http://www.w3.org/2000/svg" viewBox="0 0 32 32"><path d="M27.82 6H4.18C2.98 6 2 6.9 2 8v16c0 1.1.98 2 2.18 2h23.64c1.2 0 2.18-.9 2.18-2V8c0-1.1-.98-2-2.18-2ZM4.18 8h23.64c.11 0 .17.04.18.01V10H3.99V8.06s.07-.06.2-.06h-.01Zm23.64 16H4.18c-.08 0-.14-.02-.17-.02 0 0-.01 0-.02.01V12H28v11.93s-.06.07-.19.07h.01ZM9.5 18.5H13c0 1.96-1.48 3.5-3.44 3.5S6 20.41 6 18.44 7.54 15 9.5 15v3.5Zm4.5-1h-3.5V14c1.96 0 3.5 1.54 3.5 3.5Zm11-.39h-.65c-.05-.17-.12-.34-.21-.5l.46-.46c.19-.19.19-.51 0-.7l-.55-.55a.513.513 0 0 0-.71 0l-.46.46c-.16-.08-.32-.15-.5-.21v-.65c0-.27-.22-.5-.5-.5h-.78c-.28 0-.5.22-.5.5v.65c-.17.05-.34.12-.5.21l-.46-.46a.501.501 0 0 0-.7 0l-.55.55c-.19.19-.19.51 0 .71l.46.46c-.08.16-.15.32-.21.5h-.65c-.27 0-.5.22-.5.5v.78c0 .28.22.5.5.5h.65c.05.17.12.34.21.5l-.46.46c-.19.19-.19.51 0 .7l.55.55c.19.19.51.19.71 0l.46-.46c.16.08.32.15.5.21v.65c0 .27.22.5.5.5h.78c.28 0 .5-.22.5-.5v-.65c.17-.05.34-.12.5-.21l.46.46c.19.19.51.19.7 0l.55-.55c.19-.19.19-.51 0-.71l-.46-.46c.08-.16.15-.32.21-.5H25c.27 0 .5-.22.5-.5v-.78c0-.28-.22-.5-.5-.5ZM21.5 20c-1.1 0-2-.9-2-2s.9-2 2-2 2 .9 2 2-.9 2-2 2Z"/></svg>