<svg xmlns="http://www.w3.org/2000/svg" viewBox="0 0 32 32"><path d="M12.29 8.71a.996.996 0 0 1 0-1.41l3-3a.996.996 0 0 1 1.41 0l3 3a.996.996 0 0 1-.71 1.7c-.26 0-.51-.1-.71-.29l-1.29-1.29v5.59c0 .55-.45 1-1 1s-1-.45-1-1v-5.6L13.7 8.7a.996.996 0 0 1-1.41 0v.01Zm6 14.59L17 24.59V19c0-.55-.45-1-1-1s-1 .45-1 1v5.59l-1.29-1.29a.996.996 0 1 0-1.41 1.41l3 3c.2.2.45.29.71.29.26 0 .51-.1.71-.29l3-3a.996.996 0 1 0-1.41-1.41h-.02Zm9.41-8-3-3a.996.996 0 1 0-1.41 1.41L24.58 15h-5.59c-.55 0-1 .45-1 1s.45 1 1 1h5.59l-1.29 1.29a.996.996 0 0 0 .71 1.7c.26 0 .51-.1.71-.29l3-3a.996.996 0 0 0 0-1.41l-.01.01ZM7.41 17.01H13c.55 0 1-.45 1-1s-.45-1-1-1H7.41l1.29-1.29a.996.996 0 1 0-1.41-1.41l-3 3a.996.996 0 0 0 0 1.41l3 3c.2.2.45.29.71.29.26 0 .51-.1.71-.29a.996.996 0 0 0 0-1.41l-1.29-1.29-.01-.01Z"/></svg>