<svg xmlns="http://www.w3.org/2000/svg" viewBox="0 0 32 32"><path d="M8 22h6c1.1 0 2-.9 2-2v-6c0-1.1-.9-2-2-2H8c-1.1 0-2 .9-2 2v6c0 1.1.9 2 2 2Zm0-8h6v6H8v-6Zm12 3v7.13c0 1.03-.93 1.87-2.07 1.87H4.07C2.93 26 2 25.16 2 24.13V17c0-.55.45-1 1-1s1 .45 1 1v6.99h14.01V17c0-.55.45-1 1-1s1 .45 1 1H20Zm-4-6h-2V6c0-1.1.9-2 2-2h6c1.1 0 2 .9 2 2v6c0 1.1-.9 2-2 2h-5v-2h5V6h-6v5Zm9.93 5 .07-.07V9c0-.55.45-1 1-1s1 .45 1 1v7.13c0 1.03-.93 1.87-2.07 1.87H21v-2h4.93ZM10 11V9c0-.55.45-1 1-1s1 .45 1 1v2h-2Zm20 14c0 .55-.45 1-1 1h-2v2c0 .55-.45 1-1 1s-1-.45-1-1v-2h-2c-.55 0-1-.45-1-1s.45-1 1-1h2v-2c0-.55.45-1 1-1s1 .45 1 1v2h2c.55 0 1 .45 1 1Z"/></svg>