<svg xmlns="http://www.w3.org/2000/svg" viewBox="0 0 32 32"><path d="M7 26c-.26 0-.51-.1-.71-.29a.996.996 0 0 1 0-1.41l18-18.01A.996.996 0 1 1 25.7 7.7L7.71 25.71c-.2.2-.45.29-.71.29Zm-.29-4.12 1.43-1.43A15.246 15.246 0 0 1 4 16c2.71-4.38 7.2-7 12-7 1.09 0 2.15.14 3.19.4l1.62-1.62c-1.54-.51-3.15-.78-4.8-.78-5.5 0-10.63 2.97-13.7 7.95-.4.64-.4 1.47 0 2.11a17.31 17.31 0 0 0 4.41 4.82h-.01Zm23-6.93a17.31 17.31 0 0 0-4.41-4.82l-1.43 1.43c1.61 1.15 3.03 2.64 4.14 4.45-2.71 4.38-7.2 7-12 7-1.09 0-2.15-.14-3.19-.4l-1.62 1.62c1.54.51 3.15.78 4.8.78 5.5 0 10.63-2.97 13.7-7.95.39-.64.39-1.46 0-2.11h.01Zm-16.66.59c.2-1.28 1.21-2.29 2.49-2.49l1.83-1.83A4.79 4.79 0 0 0 16 11c-2.76 0-5 2.24-5 5 0 .48.09.93.22 1.37l1.83-1.83Zm5.91.92a2.993 2.993 0 0 1-2.49 2.49l-1.83 1.83c.44.13.89.22 1.37.22 2.76 0 5-2.24 5-5 0-.48-.09-.93-.22-1.37l-1.83 1.83Z"/></svg>