<svg xmlns="http://www.w3.org/2000/svg" viewBox="0 0 32 32"><path d="M26.95 6.02c.15-.48-.07-1-.52-1.23l-5.04-2.57c-.88-.45-1.94-.2-2.53.59L7.78 17.71c-.22.3-.27.7-.11 1.04l1.17 2.62c.27.6.32 1.27.15 1.9l-.57 2.15.72.35-1.53 3.42c-.21.36.05.81.47.81h4.55c.15 0 .3-.07.4-.18l1.19-1.56.57.28 1.35-1.77c.4-.52.96-.89 1.6-1.05l2.24-.55c.68-.17 1.24-.69 1.45-1.36l5.52-17.79ZM14.2 26.01l-3.41-1.67c.33-1.56.15-3.19-.49-4.65l7.88 3.86a7.634 7.634 0 0 0-3.98 2.46Zm5.64-3.89-9.39-4.6 10.03-13.5 4.3 2.19-4.95 15.91h.01Z"/></svg>