<svg xmlns="http://www.w3.org/2000/svg" viewBox="0 0 32 32"><path d="M28.95 16c0 6.62-5.38 12-12 12-3.25 0-6.29-1.28-8.57-3.6a.996.996 0 0 1 .01-1.41.996.996 0 0 1 1.41.01c1.9 1.93 4.43 3 7.14 3 5.51 0 10-4.49 10-10s-4.48-10-10-10-9.84 4.37-9.97 9.77l1.31-1.44c.37-.41 1.01-.45 1.41-.07.26.24.44 1 .07 1.41L5.95 20 2.2 15.66a.988.988 0 0 1 .09-1.41.988.988 0 0 1 1.41.09l1.27 1.39C5.12 9.24 10.43 4 16.95 4c6.52 0 12 5.38 12 12ZM17.01 8C16.45 8 16 8.45 16 9v7.43l4.27 4.28a1.015 1.015 0 0 0 1.43.01c.4-.39.4-1.02 0-1.41l-3.69-3.7V9c0-.55-.45-1-1.01-1h.01Z"/></svg>