<svg xmlns="http://www.w3.org/2000/svg" viewBox="0 0 32 32"><path d="M8 16c0 .55-.45 1-1 1s-1-.45-1-1 .45-1 1-1 1 .45 1 1Zm.5 4c-.55 0-1 .45-1 1s.45 1 1 1 1-.45 1-1-.45-1-1-1Zm3.5 3c-.55 0-1 .45-1 1s.45 1 1 1 1-.45 1-1-.45-1-1-1Zm18-7c0-7.72-6.28-14-14-14S2 8.28 2 16s6.28 14 14 14 14-6.28 14-14Zm-2 0c0 6.62-5.38 12-12 12S4 22.62 4 16 9.38 4 16 4s12 5.38 12 12Zm-3.2-2.14c.52-.19.79-.76.6-1.28-1.89-5.18-7.64-7.86-12.82-5.98-.52.19-.79.76-.6 1.28.19.52.76.79 1.28.6 4.14-1.51 8.74.64 10.25 4.78a.998.998 0 0 0 1.28.6h.01Zm-1 8.4a9.958 9.958 0 0 0 2.14-5.15.992.992 0 0 0-.88-1.1c-.54-.05-1.04.33-1.1.88a8.025 8.025 0 0 1-1.71 4.12 1.002 1.002 0 0 0 .77 1.63c.29 0 .58-.13.78-.37v-.01Zm-3.21 2.63c.49-.25.68-.86.43-1.35-.25-.49-.86-.68-1.35-.43-1.14.59-2.37.89-3.67.89-.55 0-1 .45-1 1s.45 1 1 1c1.59 0 3.18-.38 4.58-1.11h.01Z"/></svg>