<svg xmlns="http://www.w3.org/2000/svg" viewBox="0 0 32 32"><path fill-rule="evenodd" clip-rule="evenodd" d="m24.71 4.29-2-2-.29-.29H7c-1.1 0-2 .9-2 2v24c0 1.1.9 2 2 2h18c1.1 0 2-.9 2-2V6.59L24.71 4.3v-.01ZM7 28V4h14v2c0 1.1.9 2 2 2h2v20H7Zm9-19.5c-4.14 0-7.5 3.36-7.5 7.5 0 4.14 3.36 7.5 7.5 7.5 4.14 0 7.5-3.36 7.5-7.5 0-4.14-3.36-7.5-7.5-7.5Zm0 13a5.51 5.51 0 0 1-5.5-5.5c0-3.03 2.47-5.5 5.5-5.5s5.5 2.47 5.5 5.5-2.47 5.5-5.5 5.5Zm1-5.5v3c0 .55-.45 1-1 1s-1-.45-1-1v-3c0-.55.45-1 1-1s1 .45 1 1Zm0-3c0 .55-.45 1-1 1s-1-.45-1-1 .45-1 1-1 1 .45 1 1Z"/></svg>