<svg xmlns="http://www.w3.org/2000/svg" viewBox="0 0 32 32"><path d="M27.68 27.7c-.4.42-1.04.39-1.41-.06l-1.96-2.35-2.09 2.37a.954.954 0 0 1-1.43 0l-2.09-2.37-1.96 2.35a.97.97 0 0 1-.71.36c-.27 0-.53-.11-.72-.31l-2.23-2.39-1.82 2.32c-.18.23-.43.36-.7.38a.972.972 0 0 1-.73-.29L7.47 25.3l-1.69 2.3c-.2.27-.48.41-.77.41-.22 0-.45-.08-.63-.25-.43-.39-.49-1.09-.14-1.56l1.83-2.49c.82-.95 2.01-.87 2.71-.07l1.65 1.68 1.28-1.63c.78-.89 1.98-.85 2.69-.05l1.57 1.68 1.38-1.66c.37-.42.84-.64 1.34-.64.5 0 .97.22 1.33.62l1.48 1.68 1.49-1.68c.35-.4.82-.62 1.33-.62.5 0 .97.22 1.33.62l2.1 2.51a1.2 1.2 0 0 1-.05 1.57l-.02-.02ZM6.5 21.5c0-.28.22-.5.5-.5h1.41l7.03-17h1.12l7.03 17H25c.28 0 .5.22.5.5s-.22.5-.5.5h-5.5c-.28 0-.5-.22-.5-.5s.22-.5.5-.5h1.08l-1.89-4.5H11.5L9.7 21h1.8c.28 0 .5.22.5.5s-.22.5-.5.5H7c-.28 0-.5-.22-.5-.5Zm5.52-6.25h6.29l-3.14-7.79-3.14 7.79h-.01Z"/></svg>