<svg xmlns="http://www.w3.org/2000/svg" viewBox="0 0 32 32"><path d="M27.93 16h-9.85c-1.14 0-2.07.93-2.07 2.07v9.85c0 1.14.93 2.07 2.07 2.07h9.85c1.14 0 2.07-.93 2.07-2.07v-9.85c0-1.14-.93-2.07-2.07-2.07Zm.09 12H17.99V17.98h10.03V28Zm-4.26-14.31 2.91-2.8c.45-.43.45-1.12 0-1.55-.45-.43-1.17-.43-1.62 0l-2.1 2.02-1.99-1.91c-.45-.43-1.17-.43-1.62 0-.45.43-.45 1.12 0 1.55l2.8 2.69a1.185 1.185 0 0 0 1.62 0Zm-.75-6.67c-.55 0-1 .45-1 1s.45 1 1 1 1-.45 1-1-.45-1-1-1Zm0-4.03c-.55 0-1 .45-1 1s.45 1 1 1 1-.45 1-1-.45-1-1-1Zm-4 0c-.55 0-1 .45-1 1s.45 1 1 1 1-.45 1-1-.45-1-1-1Zm-11.02 16h-2.2a.765.765 0 0 1-.79-.75V5.78A.77.77 0 0 1 5.76 5h2.23V2h-2.8c-1.81.04-3.24 1.51-3.2 3.27V18.7c-.06 1.76 1.35 3.24 3.16 3.3h2.83v-3.01h.01Zm6 2.75c-.34.15-.74.24-1.16.26H10v-3.01h2.2c.43.01.79-.33.79-.75V5.78a.77.77 0 0 0-.76-.78H10V2h2.8c1.81.04 3.24 1.51 3.2 3.27v8.74c-1.1.05-1.97.87-2 1.99v5.74h-.01Z"/></svg>