<svg xmlns="http://www.w3.org/2000/svg" viewBox="0 0 32 32"><path d="M7 21c0 .55-.45 1-1 1H4c-1.1 0-2-.9-2-2V6c0-1.1.9-2 2-2h6.59c.53 0 1.04.21 1.41.58L13.41 6H22c1.1 0 2 .9 2 2v1c0 .55-.45 1-1 1s-1-.45-1-1V8h-8.59c-.53 0-1.04-.21-1.41-.59l-1.41-1.42H4v14h2c.55 0 1 .45 1 1V21Zm23-8v10c0 .55-.45 1-1 1s-1-.45-1-1v-7.01H10V26h9c.55 0 1 .45 1 1s-.45 1-1 1h-9c-1.1 0-2-.9-2-2V11c0-1.1.9-2 2-2h5.79c.53 0 1.02.2 1.4.57L18.65 11H28c1.1 0 2 .9 2 2Zm-2 1.01V13h-9.35c-.53 0-1.02-.2-1.4-.57L15.79 11H10v3.01h18ZM29 26h-2v-2c0-.55-.45-1-1-1s-1 .45-1 1v2h-2c-.55 0-1 .45-1 1s.45 1 1 1h2v2c0 .55.45 1 1 1s1-.45 1-1v-2h2c.55 0 1-.45 1-1s-.45-1-1-1Z"/></svg>