<svg xmlns="http://www.w3.org/2000/svg" viewBox="0 0 32 32"><path d="M28 6H14.3l-2.49-1.66A1.99 1.99 0 0 0 10.7 4H4c-1.1 0-2 .9-2 2v18c0 1.1.9 2 2 2h11c.55 0 1-.45 1-1s-.45-1-1-1H4V12h24v10c0 .55.45 1 1 1s1-.45 1-1V8c0-1.1-.9-2-2-2ZM4 10V6h6.7l2.5 1.66c.33.22.71.34 1.11.34h13.7v2H4Zm20.72 13.31C25.51 22.43 26 21.28 26 20c0-2.76-2.24-5-5-5s-5 2.24-5 5 2.24 5 5 5c.75 0 1.46-.18 2.11-.48l3.19 3.19c.2.2.45.29.71.29.26 0 .51-.1.71-.29a.996.996 0 0 0 0-1.41l-2.99-2.99h-.01ZM21 23c-1.65 0-3-1.35-3-3s1.35-3 3-3 3 1.35 3 3-1.35 3-3 3Z"/></svg>