<svg xmlns="http://www.w3.org/2000/svg" viewBox="0 0 32 32"><path d="M25 16V3c0-.55-.45-1-1-1H8c-.55 0-1 .45-1 1v11c-1.1 0-2 .9-2 2v12c0 1.1.9 2 2 2h18c1.1 0 2-.9 2-2V18c0-1.1-.9-2-2-2ZM9 4h14v12h-8.35l-1.46-1.43c-.38-.37-.87-.57-1.4-.57H9V4Zm16 24H7V16h4.79l1.46 1.43c.38.37.87.57 1.4.57H25v10ZM10 7c0-.55.45-1 1-1s1 .45 1 1-.45 1-1 1-1-.45-1-1Zm2 4c0 .55-.45 1-1 1s-1-.45-1-1 .45-1 1-1 1 .45 1 1Zm1-4c0-.55.45-1 1-1h7c.55 0 1 .45 1 1s-.45 1-1 1h-7c-.55 0-1-.45-1-1Zm0 4c0-.55.45-1 1-1h7c.55 0 1 .45 1 1s-.45 1-1 1h-7c-.55 0-1-.45-1-1Z"/></svg>