<svg xmlns="http://www.w3.org/2000/svg" viewBox="0 0 32 32"><path d="M6.71 13.71 4.42 16l2.29 2.29a.996.996 0 0 1-.71 1.7c-.26 0-.51-.1-.71-.29l-3-3a.996.996 0 0 1 0-1.41l3-3A.996.996 0 1 1 6.7 13.7l.01.01ZM30 10.86v10.29c0 1.02-.86 1.86-1.91 1.86H9.91c-1.05 0-1.91-.83-1.91-1.86V10.86C8 9.84 8.86 9 9.91 9h18.18c1.05 0 1.91.83 1.91 1.86ZM28 11H10v10h18V11Zm-15.5 9h1c.28 0 .5-.22.5-.5v-1c0-.28-.22-.5-.5-.5h-1c-.28 0-.5.22-.5.5v1c0 .28.22.5.5.5Zm0-3h1c.28 0 .5-.22.5-.5v-1c0-.28-.22-.5-.5-.5h-1c-.28 0-.5.22-.5.5v1c0 .28.22.5.5.5Zm0-3h1c.28 0 .5-.22.5-.5v-1c0-.28-.22-.5-.5-.5h-1c-.28 0-.5.22-.5.5v1c0 .28.22.5.5.5Zm12 6h1c.28 0 .5-.22.5-.5v-1c0-.28-.22-.5-.5-.5h-1c-.28 0-.5.22-.5.5v1c0 .28.22.5.5.5Zm0-3h1c.28 0 .5-.22.5-.5v-1c0-.28-.22-.5-.5-.5h-1c-.28 0-.5.22-.5.5v1c0 .28.22.5.5.5Zm0-3h1c.28 0 .5-.22.5-.5v-1c0-.28-.22-.5-.5-.5h-1c-.28 0-.5.22-.5.5v1c0 .28.22.5.5.5Zm-8 3h1c.28 0 .5-.22.5-.5v-1c0-.28-.22-.5-.5-.5h-1c-.28 0-.5.22-.5.5v1c0 .28.22.5.5.5Zm0-3h1c.28 0 .5-.22.5-.5v-1c0-.28-.22-.5-.5-.5h-1c-.28 0-.5.22-.5.5v1c0 .28.22.5.5.5Zm4 3h1c.28 0 .5-.22.5-.5v-1c0-.28-.22-.5-.5-.5h-1c-.28 0-.5.22-.5.5v1c0 .28.22.5.5.5Zm0-3h1c.28 0 .5-.22.5-.5v-1c0-.28-.22-.5-.5-.5h-1c-.28 0-.5.22-.5.5v1c0 .28.22.5.5.5Zm-4 6h5c.28 0 .5-.22.5-.5v-1c0-.28-.22-.5-.5-.5h-5c-.28 0-.5.22-.5.5v1c0 .28.22.5.5.5Z"/></svg>