<svg xmlns="http://www.w3.org/2000/svg" viewBox="0 0 32 32"><path d="M19.71 24.29c.39.39.39 1.02 0 1.41l-3 3c-.2.2-.45.29-.71.29-.26 0-.51-.1-.71-.29l-3-3a.996.996 0 1 1 1.41-1.41l2.29 2.29 2.29-2.29a.996.996 0 0 1 1.41 0h.02ZM27 10.85v10.29c0 1.02-.86 1.86-1.91 1.86H6.91C5.86 23 5 22.17 5 21.14V10.86C5 9.84 5.86 9 6.91 9h18.18c1.05 0 1.91.83 1.91 1.86v-.01Zm-2 .14H7v10h18v-10Zm-15.5 9h1c.28 0 .5-.22.5-.5v-1c0-.28-.22-.5-.5-.5h-1c-.28 0-.5.22-.5.5v1c0 .28.22.5.5.5Zm0-3h1c.28 0 .5-.22.5-.5v-1c0-.28-.22-.5-.5-.5h-1c-.28 0-.5.22-.5.5v1c0 .28.22.5.5.5Zm0-3h1c.28 0 .5-.22.5-.5v-1c0-.28-.22-.5-.5-.5h-1c-.28 0-.5.22-.5.5v1c0 .28.22.5.5.5Zm12 6h1c.28 0 .5-.22.5-.5v-1c0-.28-.22-.5-.5-.5h-1c-.28 0-.5.22-.5.5v1c0 .28.22.5.5.5Zm0-3h1c.28 0 .5-.22.5-.5v-1c0-.28-.22-.5-.5-.5h-1c-.28 0-.5.22-.5.5v1c0 .28.22.5.5.5Zm0-3h1c.28 0 .5-.22.5-.5v-1c0-.28-.22-.5-.5-.5h-1c-.28 0-.5.22-.5.5v1c0 .28.22.5.5.5Zm-8 3h1c.28 0 .5-.22.5-.5v-1c0-.28-.22-.5-.5-.5h-1c-.28 0-.5.22-.5.5v1c0 .28.22.5.5.5Zm0-3h1c.28 0 .5-.22.5-.5v-1c0-.28-.22-.5-.5-.5h-1c-.28 0-.5.22-.5.5v1c0 .28.22.5.5.5Zm4 3h1c.28 0 .5-.22.5-.5v-1c0-.28-.22-.5-.5-.5h-1c-.28 0-.5.22-.5.5v1c0 .28.22.5.5.5Zm0-3h1c.28 0 .5-.22.5-.5v-1c0-.28-.22-.5-.5-.5h-1c-.28 0-.5.22-.5.5v1c0 .28.22.5.5.5Zm-4 6h5c.28 0 .5-.22.5-.5v-1c0-.28-.22-.5-.5-.5h-5c-.28 0-.5.22-.5.5v1c0 .28.22.5.5.5Z"/></svg>