<svg xmlns="http://www.w3.org/2000/svg" viewBox="0 0 32 32"><path d="m29.71 16.71-3 3c-.2.2-.45.29-.71.29-.26 0-.51-.1-.71-.29a.996.996 0 0 1 0-1.41l2.29-2.29-2.29-2.29a.996.996 0 1 1 1.41-1.41l3 3c.39.39.39 1.02 0 1.41l.01-.01ZM24 10.86v10.29c0 1.02-.86 1.86-1.91 1.86H3.91c-1.05 0-1.91-.83-1.91-1.86V10.86C2 9.84 2.86 9 3.91 9h18.18c1.05 0 1.91.83 1.91 1.86ZM22 11H4v10h18V11ZM6.5 20h1c.28 0 .5-.22.5-.5v-1c0-.28-.22-.5-.5-.5h-1c-.28 0-.5.22-.5.5v1c0 .28.22.5.5.5Zm0-3h1c.28 0 .5-.22.5-.5v-1c0-.28-.22-.5-.5-.5h-1c-.28 0-.5.22-.5.5v1c0 .28.22.5.5.5Zm0-3h1c.28 0 .5-.22.5-.5v-1c0-.28-.22-.5-.5-.5h-1c-.28 0-.5.22-.5.5v1c0 .28.22.5.5.5Zm12 6h1c.28 0 .5-.22.5-.5v-1c0-.28-.22-.5-.5-.5h-1c-.28 0-.5.22-.5.5v1c0 .28.22.5.5.5Zm0-3h1c.28 0 .5-.22.5-.5v-1c0-.28-.22-.5-.5-.5h-1c-.28 0-.5.22-.5.5v1c0 .28.22.5.5.5Zm0-3h1c.28 0 .5-.22.5-.5v-1c0-.28-.22-.5-.5-.5h-1c-.28 0-.5.22-.5.5v1c0 .28.22.5.5.5Zm-8 3h1c.28 0 .5-.22.5-.5v-1c0-.28-.22-.5-.5-.5h-1c-.28 0-.5.22-.5.5v1c0 .28.22.5.5.5Zm0-3h1c.28 0 .5-.22.5-.5v-1c0-.28-.22-.5-.5-.5h-1c-.28 0-.5.22-.5.5v1c0 .28.22.5.5.5Zm4 3h1c.28 0 .5-.22.5-.5v-1c0-.28-.22-.5-.5-.5h-1c-.28 0-.5.22-.5.5v1c0 .28.22.5.5.5Zm0-3h1c.28 0 .5-.22.5-.5v-1c0-.28-.22-.5-.5-.5h-1c-.28 0-.5.22-.5.5v1c0 .28.22.5.5.5Zm-4 6h5c.28 0 .5-.22.5-.5v-1c0-.28-.22-.5-.5-.5h-5c-.28 0-.5.22-.5.5v1c0 .28.22.5.5.5Z"/></svg>