<svg xmlns="http://www.w3.org/2000/svg" viewBox="0 0 32 32"><path d="M16 25c-3.86 0-7-3.21-7-7.16 0-2.41.96-3.78 1.73-4.88.42-.6.78-1.12.97-1.77.1-.37.23-.91.25-1.24.02-.44.05-.72.06-.81.04-.63.56-1.13 1.2-1.13h5.6c.64 0 1.16.5 1.2 1.13 0 .09.03.35.06.82.02.43.16.92.24 1.18.2.71.56 1.23.98 1.83.77 1.11 1.73 2.48 1.73 4.88 0 3.95-3.14 7.16-7 7.16L16 25Zm-2.06-15v.06c-.04.59-.24 1.37-.33 1.67-.28.98-.77 1.69-1.25 2.37-.7 1.01-1.37 1.96-1.37 3.74 0 2.85 2.24 5.16 5 5.16s5-2.32 5-5.16c0-1.78-.66-2.73-1.37-3.74-.48-.68-.97-1.39-1.25-2.37-.11-.39-.29-1.02-.33-1.67v-.05h-4.11l.01-.01ZM12 6.17V4.8c.02-1.4.99-2.8 4-2.8 3.08 0 4 1.47 4 2.9v1.26c0 .46-.45.83-1 .83h-6c-.55 0-1-.37-1-.83v.01Zm4 20.82v2-2Zm1 2v-2c0-.55-.45-1-1-1s-1 .45-1 1v2c0 .55.45 1 1 1s1-.45 1-1Zm8-11h2-2Zm3 0c0-.55-.45-1-1-1h-2c-.55 0-1 .45-1 1s.45 1 1 1h2c.55 0 1-.45 1-1Zm-23 0h2-2Zm3 0c0-.55-.45-1-1-1H5c-.55 0-1 .45-1 1s.45 1 1 1h2c.55 0 1-.45 1-1Zm14.59 6.59L24 25.99l-1.41-1.41Zm2.12 2.12a.996.996 0 0 0 0-1.41l-1.41-1.42a.996.996 0 1 0-1.41 1.41l1.41 1.42c.2.2.45.29.71.29.26 0 .51-.1.71-.29h-.01ZM7.59 9.59 9 11 7.59 9.59Zm2.12 2.12a.996.996 0 0 0 0-1.41L8.3 8.88a.996.996 0 1 0-1.41 1.41l1.41 1.42c.2.2.45.29.71.29.26 0 .51-.1.71-.29h-.01ZM23 11l1.41-1.41L23 11Zm.7.71 1.41-1.42a.996.996 0 1 0-1.41-1.41l-1.41 1.42A.996.996 0 0 0 23 12c.26 0 .51-.1.71-.29h-.01ZM8 26l1.41-1.41L8 26Zm.7.71 1.41-1.42a.996.996 0 1 0-1.41-1.41L7.29 25.3A.996.996 0 0 0 8 27c.26 0 .51-.1.71-.29H8.7Z"/></svg>