<svg xmlns="http://www.w3.org/2000/svg" viewBox="0 0 32 32"><path d="m28.63 6.82-2.16-.72c-.2-.07-.42-.1-.63-.1h-3.12A2 2 0 0 0 21 5H11a2 2 0 0 0-1.72 1H7V5c0-.55-.45-1-1-1s-1 .45-1 1v1.28l-1.63.54A2 2 0 0 0 2 8.72v14.56a2 2 0 0 0 1.37 1.9l.63.32v.5c0 1.1.9 2 2 2h20c1.1 0 2-.9 2-2v-.5l.63-.32a2 2 0 0 0 1.37-1.9V8.72c0-.86-.55-1.62-1.37-1.9ZM21 7v12.08l-10 .83V7h10Zm7 16.28-2.16.72H6.16L4 23.28V8.72L6.16 8H9v11.91a2.007 2.007 0 0 0 2.01 2h.17l10-.83c1.03-.08 1.83-.96 1.83-1.99V8h2.84l2.16.72v14.56H28ZM14 17.5c-.55 0-1-.45-1-1v-7c0-.55.45-1 1-1s1 .45 1 1v7c0 .55-.45 1-1 1Z"/></svg>