<svg xmlns="http://www.w3.org/2000/svg" viewBox="0 0 32 32"><path d="M12.71 25.29c.39.39.39 1.02 0 1.41l-2 2c-.2.2-.45.29-.71.29-.26 0-.51-.1-.71-.29a.996.996 0 0 1 0-1.41l.29-.29H5.99c-.55 0-1-.45-1-1s.45-1 1-1h3.59l-.29-.29a.996.996 0 1 1 1.41-1.41l2 2 .01-.01ZM16 23c-.55 0-1 .45-1 1v4c0 .55.45 1 1 1s1-.45 1-1v-4c0-.55-.45-1-1-1Zm10 2h-3.59l.29-.29a.996.996 0 1 0-1.41-1.41l-2 2a.996.996 0 0 0 0 1.41l2 2c.2.2.45.29.71.29.26 0 .51-.1.71-.29a.996.996 0 0 0 0-1.41l-.29-.29h3.59c.55 0 1-.45 1-1s-.45-1-1-1L26 25ZM11.47 14.46V9.54c0-.3.17-.54.38-.54s.38.24.38.54v4.92c0 1.45 1.02 2.54 2.38 2.54 1.36 0 2.38-1.09 2.38-2.54V9.54c0-.3.17-.54.38-.54s.38.24.38.54v4.92c0 1.42 1.04 2.54 2.38 2.54 1.34 0 2.38-1.14 2.38-2.54V9.54c0-.55-.45-1-1-1s-1 .45-1 1v4.92c0 .22-.14.54-.38.54-.21 0-.38-.24-.38-.54V9.54c0-1.42-1.04-2.54-2.38-2.54-1.34 0-2.38 1.12-2.38 2.54v4.92c0 .09-.02.54-.37.54s-.38-.45-.38-.54V9.54C14.24 8.12 13.2 7 11.86 7c-1.34 0-2.38 1.12-2.38 2.54v4.92c0 .55.45 1 1 1s1-.45 1-1h-.01ZM5.97 12c0-5.51 4.48-10 10-10s10 4.49 10 10-4.49 10-10 10-10-4.49-10-10Zm2 0c0 4.41 3.59 8 8 8s8-3.59 8-8-3.59-8-8-8-8 3.59-8 8Z"/></svg>