<svg xmlns="http://www.w3.org/2000/svg" viewBox="0 0 32 32"><path d="M22.5 9.54v4.92c0 1.4-1.07 2.54-2.38 2.54-1.31 0-2.38-1.12-2.38-2.54V9.54c0-.3-.16-.54-.38-.54s-.38.24-.38.54v4.92c0 1.45-1.02 2.54-2.37 2.54s-2.38-1.09-2.38-2.54V9.54c0-.3-.16-.54-.38-.54s-.38.24-.38.54v4.92c0 .55-.45 1-1 1s-1-.45-1-1V9.54C9.47 8.12 10.51 7 11.85 7c1.34 0 2.38 1.12 2.38 2.54v4.92c0 .09.02.54.38.54s.38-.45.38-.54V9.54c0-1.42 1.04-2.54 2.38-2.54 1.34 0 2.38 1.12 2.38 2.54v4.92c0 .3.17.54.38.54.23 0 .38-.31.38-.54V9.54c0-.55.45-1 1-1s1 .45 1 1h-.01ZM16 22c-5.51 0-10-4.49-10-10S10.49 2 16 2s10 4.49 10 10-4.49 10-10 10Zm8-10c0-4.41-3.59-8-8-8s-8 3.59-8 8 3.59 8 8 8 8-3.59 8-8Zm-.29 11.29a.996.996 0 1 0-1.41 1.41l.29.29H19v-1c0-.55-.45-1-1-1s-1 .45-1 1V28c0 .55.45 1 1 1s1-.45 1-1v-1.01h3.59l-.29.29a.996.996 0 0 0 .71 1.7c.26 0 .51-.1.71-.29l2-2a.996.996 0 0 0 0-1.41l-2-2-.01.01ZM14 23c-.55 0-1 .45-1 1v1H9.41l.29-.29a.996.996 0 1 0-1.41-1.41l-2 2a.996.996 0 0 0 0 1.41l2 2c.2.2.45.29.71.29.26 0 .51-.1.71-.29a.996.996 0 0 0 0-1.41l-.29-.29h3.59v1.01c0 .55.45 1 1 1s1-.45 1-1v-4.01c0-.55-.45-1-1-1L14 23Z"/></svg>