<svg xmlns="http://www.w3.org/2000/svg" viewBox="0 0 32 32"><path d="M18 14c.55 0 1 .45 1 1s-.45 1-1 1h-3c-.55 0-1-.45-1-1s.45-1 1-1h3Zm-3 14H8V4h16v8c0 .55.45 1 1 1s1-.45 1-1V4c0-1.1-.9-2-2-2H8c-1.1 0-2 .9-2 2v24c0 1.1.9 2 2 2h7c.55 0 1-.45 1-1s-.45-1-1-1Zm6-22h-6c-.55 0-1 .45-1 1s.45 1 1 1h6c.55 0 1-.45 1-1s-.45-1-1-1Zm1 5c0-.55-.45-1-1-1h-6c-.55 0-1 .45-1 1s.45 1 1 1h6c.55 0 1-.45 1-1Zm-11 3c-.55 0-1 .45-1 1s.45 1 1 1 1-.45 1-1-.45-1-1-1Zm15.88 2.95-1.61-1.29a2.974 2.974 0 0 0-3.54-.16l-.89.59c-.84.56-1.34 1.49-1.34 2.5v.76c-.31-.1-.63-.16-1-.16h-1c-.55 0-1 .45-1 1v4.31c0 .14.03.28.09.41l2 4.5a1.006 1.006 0 0 0 1.84-.82l-1.91-4.31v-3.1c.4 0 1 0 1 1.5v.58c0 .55.45 1 1 1s1-.45 1-1v-4.68c0-.33.17-.65.44-.83l.89-.59c.36-.24.84-.22 1.18.05l1.61 1.29c.24.19.37.48.37.78v6.45l-.95 2.95a1.001 1.001 0 0 0 .95 1.31c.42 0 .81-.27.95-.69l1-3.1c.03-.1.05-.2.05-.31v-6.61c0-.91-.41-1.77-1.12-2.34l-.01.01ZM11 6c-.55 0-1 .45-1 1s.45 1 1 1 1-.45 1-1-.45-1-1-1Zm0 4c-.55 0-1 .45-1 1s.45 1 1 1 1-.45 1-1-.45-1-1-1Z"/></svg>