<svg xmlns="http://www.w3.org/2000/svg" viewBox="0 0 32 32"><path d="M25 9.7v9.82c0 1.73-.29 3.44-.87 5.07l-1.68 4.74c-.15.41-.53.67-.94.67a1.007 1.007 0 0 1-.94-1.34l1.68-4.74c.5-1.42.76-2.9.76-4.4V9.7c0-.87-.37-1.7-1.02-2.27l-.98-.87V13c0 .55-.45 1-1 1s-1-.45-1-1V4.99c0-.06.02-.12.04-.18l-.2-.17c-.52-.43-1.18-.64-1.84-.65v8c0 .55-.45 1-1 1s-1-.45-1-1V4.74l-.87.7c-.72.58-1.13 1.44-1.13 2.36v9.19c0 .55-.45 1-1 1s-1-.45-1-1c0-2.06-.41-3.56-1.2-4.34-.45-.44-1.03-.66-1.77-.66h-.03v5.83c0 2.51.71 4.96 2.06 7.07l2.28 3.56a1 1 0 0 1-.3 1.38c-.46.3-1.08.16-1.38-.3l-2.28-3.56a15.104 15.104 0 0 1-2.38-8.15v-5.83c0-1.08.91-1.99 1.99-2 1.16 0 2.2.34 3.01 1.04V7.8c0-1.53.68-2.96 1.88-3.92l.98-.79c1.83-1.47 4.47-1.46 6.28.02l3.17 2.81a5.02 5.02 0 0 1 1.69 3.77L25 9.7Z"/></svg>