<svg xmlns="http://www.w3.org/2000/svg" viewBox="0 0 32 32"><path d="M14.23 19.99h13.51c1.24 0 2.25-1.01 2.25-2.25V4.25c0-1.24-1.01-2.25-2.25-2.25H14.23c-1.24 0-2.25 1.01-2.25 2.25v13.49c0 1.24 1.01 2.25 2.25 2.25Zm-.21-16.02h14.01v14.02H14.02V3.97Zm-7 1.44.02 11.15 1.26-1.27a.987.987 0 0 1 1.41 0c.39.39.4 1.02 0 1.41l-2.96 2.99a.992.992 0 0 1-1.41.01l-3-2.96a.987.987 0 0 1 0-1.41.987.987 0 0 1 1.41 0l1.29 1.27-.02-11.18-1.29 1.29a.992.992 0 1 1-1.41-1.4l2.97-2.99a.996.996 0 0 1 1.41 0l3.02 2.96a.996.996 0 1 1-1.4 1.42L7.03 5.44l-.01-.03Zm22.71 21.25-2.96 3.01a.992.992 0 0 1-1.41.01.996.996 0 0 1-.01-1.41l1.27-1.29-11.18.02 1.3 1.29c.39.39.39 1.02 0 1.41a.992.992 0 0 1-1.41.01l-2.99-2.97a.996.996 0 0 1 0-1.41l2.96-3.01a.996.996 0 1 1 1.42 1.4l-1.26 1.29 11.17-.02-1.29-1.28a.996.996 0 1 1 1.41-1.41l2.99 2.97c.39.39.39 1.02 0 1.41l-.01-.02Z"/></svg>