<svg xmlns="http://www.w3.org/2000/svg" viewBox="0 0 32 32"><path d="M27.82 6H4.18C2.98 6 2 6.9 2 8v16c0 1.1.98 2 2.18 2h23.64c1.2 0 2.18-.9 2.18-2V8c0-1.1-.98-2-2.18-2ZM4.18 8h23.64c.11 0 .17.04.18.01V10H3.99V8.06s.07-.06.2-.06h-.01Zm23.64 16H4.18c-.08 0-.14-.02-.17-.02 0 0-.01 0-.02.01V12H28v11.93s-.06.07-.19.07h.01ZM10 14.5v-1c0-.28.22-.5.5-.5h1c.28 0 .5.22.5.5v1c0 .28-.22.5-.5.5h-1c-.28 0-.5-.22-.5-.5Zm-3 1v-1c0-.28.22-.5.5-.5h1c.28 0 .5.22.5.5v1c0 .28-.22.5-.5.5h-1c-.28 0-.5-.22-.5-.5Zm.5 3.5h-1c-.28 0-.5-.22-.5-.5v-1c0-.28.22-.5.5-.5h1c.28 0 .5.22.5.5v1c0 .28-.22.5-.5.5Zm5.5-3.5v-1c0-.28.22-.5.5-.5h1c.28 0 .5.22.5.5v1c0 .28-.22.5-.5.5h-1c-.28 0-.5-.22-.5-.5Zm3 2v1c0 .28-.22.5-.5.5h-1c-.28 0-.5-.22-.5-.5v-1c0-.28.22-.5.5-.5h1c.28 0 .5.22.5.5Zm-4 4v1c0 .28-.22.5-.5.5h-1c-.28 0-.5-.22-.5-.5v-1c0-.28.22-.5.5-.5h1c.28 0 .5.22.5.5Zm-3-1v1c0 .28-.22.5-.5.5h-1c-.28 0-.5-.22-.5-.5v-1c0-.28.22-.5.5-.5h1c.28 0 .5.22.5.5Zm6 0v1c0 .28-.22.5-.5.5h-1c-.28 0-.5-.22-.5-.5v-1c0-.28.22-.5.5-.5h1c.28 0 .5.22.5.5ZM13 18c0 1.1-.9 2-2 2s-2-.9-2-2 .9-2 2-2 2 .9 2 2Zm13-1v2c0 .55-.45 1-1 1h-6c-.55 0-1-.45-1-1v-2c0-.55.45-1 1-1h6c.55 0 1 .45 1 1Z"/></svg>