<svg xmlns="http://www.w3.org/2000/svg" viewBox="0 0 32 32"><path d="M26 4H6c-1.1 0-2 .9-2 2v20c0 1.1.9 2 2 2h20c1.1 0 2-.9 2-2V6c0-1.1-.9-2-2-2Zm0 22H6V6h20v20Zm-2.24-13h-.75v-2c0-1.1-.9-2-2-2H19v-.72c0-.69-.56-1.25-1.25-1.25h-3.5c-.69 0-1.25.56-1.25 1.25V9h-2c-1.1 0-2 .9-2 2v2h-.74c-.69 0-1.25.56-1.25 1.25v3.5c0 .69.56 1.25 1.25 1.25H9v2c0 1.1.9 2 2 2h2v.75c0 .69.56 1.25 1.25 1.25h3.5c.69 0 1.25-.56 1.25-1.25V23h2.01c1.1 0 2-.9 2-2v-2h.75c.69 0 1.25-.56 1.25-1.25v-3.5c0-.69-.56-1.25-1.25-1.25ZM15 9.03h2v2h-2v-2ZM9.01 17v-2h2v2h-2ZM17 23h-2v-2h2v2Zm4.01-2H19v-.75c0-.69-.56-1.25-1.25-1.25h-3.5c-.69 0-1.25.56-1.25 1.25V21h-2v-2h.76c.69 0 1.25-.56 1.25-1.25v-3.5c0-.69-.56-1.25-1.25-1.25H11v-2h2v.78c0 .69.56 1.25 1.25 1.25h3.5c.69 0 1.25-.56 1.25-1.25V11h2.01v2h-.75c-.69 0-1.25.56-1.25 1.25v3.5c0 .69.56 1.25 1.25 1.25h.75v2Zm2-4h-2v-2h2v2Z"/></svg>