<svg xmlns="http://www.w3.org/2000/svg" viewBox="0 0 32 32"><path d="M23 22.8c.05 1.91-.65 3.71-1.98 5.08A6.932 6.932 0 0 1 16 30a6.5 6.5 0 0 1-.99-.07 1 1 0 0 1 .28-1.98c1.55.22 3.17-.32 4.29-1.46.95-.98 1.45-2.27 1.41-3.63-.07-2.6-2.25-4.78-4.85-4.85-1.36-.05-2.65.46-3.63 1.41a4.98 4.98 0 0 0-1.19 1.86c.39-.36 1-.36 1.38.02.38.38.39 1.02 0 1.41l-2.71 2.71-2.71-2.71a.996.996 0 1 1 1.41-1.41l.42.42c.26-1.41.94-2.7 2-3.73a7.028 7.028 0 0 1 5.08-1.98c3.65.1 6.7 3.15 6.8 6.8l.01-.01Zm-4 .2c0-.55-.45-1-1-1h-1v-2c0-.55-.45-1-1-1s-1 .45-1 1v3c0 .55.45 1 1 1h2c.55 0 1-.45 1-1ZM15 4h-2v6.5L9 4H7v10h2V7.45L13 14h2V4Zm7.69 6.62c-.04.59-.22 1.03-.52 1.31-.31.28-.77.42-1.39.42-.69 0-1.19-.24-1.51-.73-.32-.49-.48-1.25-.48-2.31v-.74c0-1.01.18-1.75.51-2.23s.83-.72 1.5-.72c.61 0 1.07.14 1.37.42.3.28.48.74.52 1.37h2.01c-.11-1.09-.5-1.93-1.19-2.53-.69-.6-1.59-.9-2.71-.9-.81 0-1.52.19-2.14.57-.61.38-1.08.93-1.41 1.64-.33.71-.49 1.54-.49 2.47v.59c0 1.47.36 2.62 1.07 3.46.71.84 1.7 1.26 2.94 1.26 1.14 0 2.06-.3 2.76-.9.7-.6 1.08-1.43 1.16-2.47h-2.01l.01.02Z"/></svg>