<svg xmlns="http://www.w3.org/2000/svg" viewBox="0 0 32 32"><path d="M28 26H4c-1.1 0-2-.9-2-2V6c0-1.1.9-2 2-2h6.7c.4 0 .78.12 1.11.34L14.3 6H28c1.1 0 2 .9 2 2v16c0 1.1-.9 2-2 2ZM4 6v18h24V8H14.3c-.4 0-.78-.12-1.11-.34L10.69 6H4Zm11 15h-2l-4-6.55V21H7V11h2l4 6.5V11h2v10Zm9.7-3.38c-.08 1.05-.46 1.87-1.16 2.47-.7.6-1.62.9-2.76.9-1.25 0-2.23-.42-2.94-1.26-.72-.84-1.07-1.99-1.07-3.46v-.59c0-.94.17-1.76.49-2.47.32-.71.8-1.26 1.41-1.64.61-.38 1.33-.57 2.14-.57 1.12 0 2.03.3 2.71.9.68.6 1.08 1.45 1.19 2.53H22.7c-.05-.63-.22-1.08-.52-1.37-.3-.28-.76-.42-1.37-.42-.67 0-1.17.24-1.5.72-.33.48-.5 1.22-.51 2.23v.74c0 1.05.16 1.82.48 2.31.32.49.82.73 1.51.73.62 0 1.08-.14 1.39-.42.3-.28.48-.72.52-1.31h2.01l-.01-.02Z"/></svg>