<svg xmlns="http://www.w3.org/2000/svg" viewBox="0 0 32 32"><path d="M26 20h-2v-1.8c0-1.21-.93-2.2-2.08-2.2H17v-2h4c1.1 0 2-.9 2-2V7c0-1.1-.9-2-2-2h-2v-.75C19 3.56 18.44 3 17.75 3h-3.5C13.56 3 13 3.56 13 4.25V5h-2c-1.1 0-2 .9-2 2v5c0 1.1.9 2 2 2h4v2h-4.92C8.93 16 8 16.99 8 18.2V20H6c-1.1 0-2 .9-2 2v4c0 1.1.9 2 2 2h7c1.1 0 2-.9 2-2v-4c0-1.1-.9-2-2-2h-3v-1.8c0-.13.07-.19.08-.2h11.84s.08.07.08.2V20h-3c-1.1 0-2 .9-2 2v4c0 1.1.9 2 2 2h7c1.1 0 2-.9 2-2v-4c0-1.1-.9-2-2-2Zm-13 2v4H6v-4h7ZM11 7h2v1.75c0 .69.56 1.25 1.25 1.25h3.5c.69 0 1.25-.56 1.25-1.25V7h2v5H11V7Zm15 19h-7v-4h7v4Zm0 1v-1 1Z"/></svg>