<svg xmlns="http://www.w3.org/2000/svg" viewBox="0 0 32 32"><path d="M24 12c0 .55-.45 1-1 1h-9.28a1.98 1.98 0 0 1-3.44 0H9c-.55 0-1-.45-1-1s.45-1 1-1h1.28a1.98 1.98 0 0 1 3.44 0H23c.55 0 1 .45 1 1Zm-1 4h-2.28a1.98 1.98 0 0 0-3.44 0H9c-.55 0-1 .45-1 1s.45 1 1 1h8.28a1.98 1.98 0 0 0 3.44 0H23c.55 0 1-.45 1-1s-.45-1-1-1Zm0 5h-6.28a1.98 1.98 0 0 0-3.44 0H9c-.55 0-1 .45-1 1s.45 1 1 1h4.28a1.98 1.98 0 0 0 3.44 0H23c.55 0 1-.45 1-1s-.45-1-1-1Zm5-15.12v20.24c0 1.04-.83 1.88-1.85 1.88H5.85C4.83 28 4 27.16 4 26.12V5.88C4 4.84 4.83 4 5.85 4H8c0-.55.45-1 1-1h14c.55 0 1 .45 1 1h2.15C27.17 4 28 4.84 28 5.88ZM26 6h-2c0 .55-.45 1-1 1H9c-.55 0-1-.45-1-1H6v20h20V6Z"/></svg>