<svg xmlns="http://www.w3.org/2000/svg" viewBox="0 0 32 32"><path d="M28 26c0 .55-.45 1-1 1H17c-.55 0-1-.45-1-1s.45-1 1-1h10c.55 0 1 .45 1 1Zm-1-9H14c-.55 0-1 .45-1 1s.45 1 1 1h13c.55 0 1-.45 1-1s-.45-1-1-1Zm0-6H14c-.55 0-1 .45-1 1s.45 1 1 1h13c.55 0 1-.45 1-1s-.45-1-1-1ZM9 16.5c-.83 0-1.5.67-1.5 1.5s.67 1.5 1.5 1.5 1.5-.67 1.5-1.5-.67-1.5-1.5-1.5Zm0-6c-.83 0-1.5.67-1.5 1.5s.67 1.5 1.5 1.5 1.5-.67 1.5-1.5-.67-1.5-1.5-1.5ZM10.5 22c-2.21 0-4 1.79-4 4s1.79 4 4 4 4-1.79 4-4-1.79-4-4-4Zm0 6c-1.1 0-2-.9-2-2s.9-2 2-2 2 .9 2 2-.9 2-2 2ZM11 7.5V3c0-.55-.45-1-1-1H5c-.55 0-1 .45-1 1s.45 1 1 1h2.35A13.983 13.983 0 0 0 2 15c0 2.99.93 5.85 2.69 8.26.33.45.95.54 1.4.22.45-.33.54-.95.22-1.4A11.899 11.899 0 0 1 4 15c0-3.91 1.88-7.51 5-9.75V7.5c0 .55.45 1 1 1s1-.45 1-1Z"/></svg>