<svg xmlns="http://www.w3.org/2000/svg" viewBox="0 0 32 32"><path d="M28 5.88V21.5c0 .55-.45 1-1 1s-1-.45-1-1V6h-2c0 .55-.45.99-1 .99H9c-.55 0-1-.45-1-1H6V26h15.5c.55 0 1 .45 1 1s-.45 1-1 1H5.85C4.83 28 4 27.15 4 26.12V5.88C4 4.84 4.83 4 5.85 4H8c0-.55.45-1 1-1h14c.55 0 1 .45 1 1h2.15C27.17 4 28 4.84 28 5.88Zm-.29 20.42A.996.996 0 0 1 27 28c-.26 0-.51-.1-.71-.29l-4.83-4.83a5.964 5.964 0 0 1-7.7-.63 6.011 6.011 0 0 1 0-8.49 6.011 6.011 0 0 1 8.49 0c2.1 2.1 2.3 5.37.64 7.71l4.83 4.83h-.01Zm-6.88-5.46a4.008 4.008 0 0 0 0-5.66c-.78-.78-1.8-1.17-2.83-1.17s-2.05.39-2.83 1.17a4.008 4.008 0 0 0 0 5.66 4.008 4.008 0 0 0 5.66 0Z"/></svg>