<svg xmlns="http://www.w3.org/2000/svg" viewBox="0 0 32 32"><path d="M15 16.09V3c0-.55.45-1 1-1s1 .45 1 1v13.09l2.29-2.29a.996.996 0 1 1 1.41 1.41l-4 4c-.09.09-.2.17-.33.22-.12.05-.25.08-.38.08s-.26-.03-.38-.08-.23-.12-.33-.22l-4-4a.996.996 0 1 1 1.41-1.41l2.29 2.29H15ZM26.15 4H24c0-.55-.45-1-1-1h-4l.03 3.98h4c.55 0 1-.45 1-1L24 6h2v20H6V6h2l-.03-.02c0 .55.45 1 1 1h4L13 3H9c-.55 0-1 .45-1 1H5.85C4.83 4 4 4.84 4 5.88v20.24C4 27.16 4.83 28 5.85 28h20.3c1.02 0 1.85-.84 1.85-1.88V5.88C28 4.84 27.17 4 26.15 4Z"/></svg>