<svg xmlns="http://www.w3.org/2000/svg" viewBox="0 0 32 32"><path d="M7.5 28h-3c-.28 0-.5-.22-.5-.5v-23c0-.28.22-.5.5-.5h3c.28 0 .5.22.5.5s-.22.5-.5.5H5v22h2.5c.28 0 .5.22.5.5s-.22.5-.5.5Zm2-16.5c-.83 0-1.5-.67-1.5-1.5s.67-1.5 1.5-1.5S11 9.17 11 10s-.67 1.5-1.5 1.5Zm0 6c-.83 0-1.5-.67-1.5-1.5s.67-1.5 1.5-1.5 1.5.67 1.5 1.5-.67 1.5-1.5 1.5Zm0 6c-.83 0-1.5-.67-1.5-1.5s.67-1.5 1.5-1.5 1.5.67 1.5 1.5-.67 1.5-1.5 1.5ZM27 11H14c-.55 0-1-.45-1-1s.45-1 1-1h13c.55 0 1 .45 1 1s-.45 1-1 1Zm0 6H14c-.55 0-1-.45-1-1s.45-1 1-1h13c.55 0 1 .45 1 1s-.45 1-1 1Zm0 6H14c-.55 0-1-.45-1-1s.45-1 1-1h13c.55 0 1 .45 1 1s-.45 1-1 1Z"/></svg>