<svg xmlns="http://www.w3.org/2000/svg" viewBox="0 0 32 32"><path d="M27 8H10c-.55 0-1-.45-1-1s.45-1 1-1h17c.55 0 1 .45 1 1s-.45 1-1 1Zm0 9H10c-.55 0-1-.45-1-1s.45-1 1-1h17c.55 0 1 .45 1 1s-.45 1-1 1Zm0 9H10c-.55 0-1-.45-1-1s.45-1 1-1h17c.55 0 1 .45 1 1s-.45 1-1 1ZM7 7c0-.83-.67-1.5-1.5-1.5S4 6.17 4 7s.67 1.5 1.5 1.5S7 7.83 7 7Zm0 9c0-.83-.67-1.5-1.5-1.5S4 15.17 4 16s.67 1.5 1.5 1.5S7 16.83 7 16Zm0 9c0-.83-.67-1.5-1.5-1.5S4 24.17 4 25s.67 1.5 1.5 1.5S7 25.83 7 25Zm22-13.5c0-.28-.22-.5-.5-.5h-25c-.28 0-.5.22-.5.5s.22.5.5.5h25c.28 0 .5-.22.5-.5Zm0 9c0-.28-.22-.5-.5-.5h-25c-.28 0-.5.22-.5.5s.22.5.5.5h25c.28 0 .5-.22.5-.5Z"/></svg>