<svg xmlns="http://www.w3.org/2000/svg" viewBox="0 0 32 32"><path d="M27 7H17c-.55 0-1-.45-1-1s.45-1 1-1h10c.55 0 1 .45 1 1s-.45 1-1 1Zm1 7c0-.55-.45-1-1-1H14c-.55 0-1 .45-1 1s.45 1 1 1h13c.55 0 1-.45 1-1Zm0 6c0-.55-.45-1-1-1H14c-.55 0-1 .45-1 1s.45 1 1 1h13c.55 0 1-.45 1-1Zm-17.5-6c0-.83-.67-1.5-1.5-1.5s-1.5.67-1.5 1.5.67 1.5 1.5 1.5 1.5-.67 1.5-1.5Zm0 6c0-.83-.67-1.5-1.5-1.5s-1.5.67-1.5 1.5.67 1.5 1.5 1.5 1.5-.67 1.5-1.5Zm4-14c0-2.21-1.79-4-4-4s-4 1.79-4 4 1.79 4 4 4 4-1.79 4-4Zm-2 0c0 1.1-.9 2-2 2s-2-.9-2-2 .9-2 2-2 2 .9 2 2ZM10 23.5c-.55 0-1 .45-1 1v2.25C5.88 24.51 4 20.91 4 17c0-2.57.8-5.01 2.31-7.08a.996.996 0 0 0-.22-1.4.996.996 0 0 0-1.4.22A13.9 13.9 0 0 0 2 17c0 4.35 2 8.37 5.35 11H5c-.55 0-1 .45-1 1s.45 1 1 1h5c.55 0 1-.45 1-1v-4.5c0-.55-.45-1-1-1Z"/></svg>