<svg xmlns="http://www.w3.org/2000/svg" viewBox="0 0 32 32"><path d="M5.5 8.5C4.67 8.5 4 7.83 4 7s.67-1.5 1.5-1.5S7 6.17 7 7s-.67 1.5-1.5 1.5ZM7 13c0-.83-.67-1.5-1.5-1.5S4 12.17 4 13s.67 1.5 1.5 1.5S7 13.83 7 13Zm0 6c0-.83-.67-1.5-1.5-1.5S4 18.17 4 19s.67 1.5 1.5 1.5S7 19.83 7 19Zm19-6c0-.55-.45-1-1-1H10c-.55 0-1 .45-1 1s.45 1 1 1h15c.55 0 1-.45 1-1Zm-6 6c0-.55-.45-1-1-1h-9c-.55 0-1 .45-1 1s.45 1 1 1h9c.55 0 1-.45 1-1Zm6-12c0-.55-.45-1-1-1H10c-.55 0-1 .45-1 1s.45 1 1 1h15c.55 0 1-.45 1-1Zm1 16h-2v-2c0-.55-.45-1-1-1s-1 .45-1 1v2h-2c-.55 0-1 .45-1 1s.45 1 1 1h2v2c0 .55.45 1 1 1s1-.45 1-1v-2h2c.55 0 1-.45 1-1s-.45-1-1-1Z"/></svg>