<svg xmlns="http://www.w3.org/2000/svg" viewBox="0 0 32 32"><path d="M24 12c0 .55-.45 1-1 1h-9.5c-.55 0-1-.45-1-1s.45-1 1-1H23c.55 0 1 .45 1 1ZM9 10.75c-.68 0-1.23.56-1.23 1.25s.55 1.25 1.23 1.25c.68 0 1.23-.56 1.23-1.25S9.68 10.75 9 10.75ZM23 15h-9.5c-.55 0-1 .45-1 1s.45 1 1 1H23c.55 0 1-.45 1-1s-.45-1-1-1Zm-14-.25c-.68 0-1.23.56-1.23 1.25s.55 1.25 1.23 1.25c.68 0 1.23-.56 1.23-1.25S9.68 14.75 9 14.75ZM23 19h-9.5c-.55 0-1 .45-1 1s.45 1 1 1H23c.55 0 1-.45 1-1s-.45-1-1-1Zm-14-.25c-.68 0-1.23.56-1.23 1.25s.55 1.25 1.23 1.25c.68 0 1.23-.56 1.23-1.25S9.68 18.75 9 18.75ZM28 5.88v20.24c0 1.04-.83 1.88-1.85 1.88H5.85C4.83 28 4 27.16 4 26.12V5.88C4 4.84 4.83 4 5.85 4H8c0-.55.45-1 1-1h14c.55 0 1 .45 1 1h2.15C27.17 4 28 4.84 28 5.88ZM26 6h-2c0 .55-.45 1-1 1H9c-.55 0-1-.45-1-1H6v20h20V6Z"/></svg>