<svg xmlns="http://www.w3.org/2000/svg" viewBox="0 0 32 32"><path d="M10.5 12.5c0 .28-.22.5-.5.5s-.5-.22-.5-.5.22-.5.5-.5.5.22.5.5Zm4.7 11.04 2.33-2.33c.3-.3.46-.7.46-1.12v-8.17c0-.42-.17-.83-.46-1.12L15.2 8.47c-.29-.3-.7-.47-1.12-.47H5.92c-.42 0-.82.17-1.12.46l-2.33 2.33c-.3.29-.47.7-.47 1.12v8.17c0 .42.17.82.46 1.12l2.33 2.33c.3.3.7.47 1.12.47h8.17c.42 0 .83-.17 1.12-.46ZM4 19.92V12.1l2.09-2.09h7.82L16 12.1v7.82l-2.09 2.09H6.09L4 19.92Zm10-7.4c0-.28-.22-.5-.5-.5s-.5.22-.5.5.22.5.5.5.5-.22.5-.5Zm-7 0c0-.28-.22-.5-.5-.5s-.5.22-.5.5.22.5.5.5.5-.22.5-.5Zm3.5 3.5c0-.28-.22-.5-.5-.5s-.5.22-.5.5.22.5.5.5.5-.22.5-.5Zm3.5 0c0-.28-.22-.5-.5-.5s-.5.22-.5.5.22.5.5.5.5-.22.5-.5Zm-7 0c0-.28-.22-.5-.5-.5s-.5.22-.5.5.22.5.5.5.5-.22.5-.5Zm3.5 3.5c0-.28-.22-.5-.5-.5s-.5.22-.5.5.22.5.5.5.5-.22.5-.5Zm3.5 0c0-.28-.22-.5-.5-.5s-.5.22-.5.5.22.5.5.5.5-.22.5-.5Zm-7 0c0-.28-.22-.5-.5-.5s-.5.22-.5.5.22.5.5.5.5-.22.5-.5Zm14.71-.79 2-2a.996.996 0 0 0 0-1.41l-2-2c-.29-.29-.72-.37-1.09-.22-.37.15-.62.52-.62.92v4c0 .4.24.77.62.92a.995.995 0 0 0 1.09-.21Zm6 0 2-2a.996.996 0 0 0 0-1.41l-2-2c-.29-.29-.72-.37-1.09-.22-.37.15-.62.52-.62.92v4c0 .4.24.77.62.92a.995.995 0 0 0 1.09-.21Z"/></svg>