<svg xmlns="http://www.w3.org/2000/svg" viewBox="0 0 32 32"><path d="M15.5 7.5c0-.28.22-.5.5-.5s.5.22.5.5-.22.5-.5.5-.5-.22-.5-.5Zm-7.04 8.7c-.29-.29-.46-.7-.46-1.12V6.92c0-.42.17-.83.47-1.12l2.33-2.33c.3-.3.69-.46 1.12-.46h8.17c.43 0 .82.17 1.12.47l2.33 2.33c.29.29.46.7.46 1.12v8.15c0 .42-.17.83-.47 1.12l-2.33 2.33c-.29.29-.7.46-1.12.46h-8.16c-.42 0-.82-.17-1.12-.46L8.47 16.2h-.01ZM10 14.91 12.09 17h7.82L22 14.91V7.09L19.91 5h-7.82L10 7.09v7.82Zm15.71 9.38-2-2a.996.996 0 1 0-1.41 1.41l.29.29H19v-2c0-.55-.45-1-1-1s-1 .45-1 1v6c0 .55.45 1 1 1s1-.45 1-1v-2h3.59l-.29.29a.996.996 0 0 0 .71 1.7c.26 0 .51-.1.71-.29l2-2a.996.996 0 0 0 0-1.41l-.01.01ZM19.5 8c.28 0 .5-.22.5-.5s-.22-.5-.5-.5-.5.22-.5.5.22.5.5.5Zm-7 0c.28 0 .5-.22.5-.5s-.22-.5-.5-.5-.5.22-.5.5.22.5.5.5Zm3.5 3.5c.28 0 .5-.22.5-.5s-.22-.5-.5-.5-.5.22-.5.5.22.5.5.5Zm3.5 0c.28 0 .5-.22.5-.5s-.22-.5-.5-.5-.5.22-.5.5.22.5.5.5Zm-7 0c.28 0 .5-.22.5-.5s-.22-.5-.5-.5-.5.22-.5.5.22.5.5.5ZM16 15c.28 0 .5-.22.5-.5s-.22-.5-.5-.5-.5.22-.5.5.22.5.5.5Zm3.5 0c.28 0 .5-.22.5-.5s-.22-.5-.5-.5-.5.22-.5.5.22.5.5.5Zm-7 0c.28 0 .5-.22.5-.5s-.22-.5-.5-.5-.5.22-.5.5.22.5.5.5Zm1.5 6c-.55 0-1 .45-1 1v2H9.41l.29-.29a.996.996 0 1 0-1.41-1.41l-2 2a.996.996 0 0 0 0 1.41l2 2c.2.2.45.29.71.29.26 0 .51-.1.71-.29a.996.996 0 0 0 0-1.41l-.29-.29h3.59v2c0 .55.45 1 1 1s1-.45 1-1v-6c0-.55-.45-1-1-1L14 21Z"/></svg>