<svg xmlns="http://www.w3.org/2000/svg" viewBox="0 0 32 32"><path d="M5 24c-.55 0-1-.45-1-1V8.67c0-.27.11-.53.3-.72l3.78-3.67c.19-.18.44-.28.7-.28H23c.55 0 1 .45 1 1s-.45 1-1 1H9.18L6 9.09V23c0 .55-.45 1-1 1Zm10-3.5c0-1.93-1.57-3.5-3.5-3.5S8 18.57 8 20.5 9.57 24 11.5 24s3.5-1.57 3.5-3.5Zm-2 0c0 .83-.67 1.5-1.5 1.5s-1.5-.67-1.5-1.5.67-1.5 1.5-1.5 1.5.67 1.5 1.5Zm2-9C15 9.57 13.43 8 11.5 8S8 9.57 8 11.5 9.57 15 11.5 15s3.5-1.57 3.5-3.5Zm-2 0c0 .83-.67 1.5-1.5 1.5s-1.5-.67-1.5-1.5.67-1.5 1.5-1.5 1.5.67 1.5 1.5Zm11 0C24 9.57 22.43 8 20.5 8S17 9.57 17 11.5s1.57 3.5 3.5 3.5 3.5-1.57 3.5-3.5Zm-2 0c0 .83-.67 1.5-1.5 1.5s-1.5-.67-1.5-1.5.67-1.5 1.5-1.5 1.5.67 1.5 1.5Zm-1.63 16.18 7.36-8a.996.996 0 0 0-.06-1.41.988.988 0 0 0-1.41.06l-6.72 7.3-2.91-2.4c-.43-.35-1.06-.29-1.41.13a1 1 0 0 0 .14 1.41l3.64 3c.19.15.41.23.64.23.27 0 .54-.11.74-.32h-.01Z"/></svg>