<svg xmlns="http://www.w3.org/2000/svg" viewBox="0 0 32 32"><path d="M17 16c0 .55-.45 1-1 1s-1-.45-1-1 .45-1 1-1 1 .45 1 1Zm10 5c-.55 0-1 .45-1 1l.02.36L22.41 26l-12.77.02L6 22.41v-.42c0-.55-.45-1-1-1s-1 .45-1 1v.42c0 .51.2 1 .56 1.36l3.66 3.66c.36.36.84.56 1.36.56h12.83c.51 0 1-.21 1.36-.56l3.67-3.67c.36-.36.56-.84.56-1.36v-.42c0-.55-.45-1-1-1V21ZM5 11c.55 0 1-.45 1-1l-.02-.36L9.59 6l12.77-.02L26 9.59v.42c0 .55.45 1 1 1s1-.45 1-1v-.42c0-.51-.2-1-.56-1.36l-3.66-3.66c-.36-.36-.85-.57-1.36-.57H9.58c-.51 0-1 .21-1.36.56L4.55 8.23c-.36.36-.56.84-.56 1.36v.42c0 .55.45 1 1 1L5 11Zm11-1c-.55 0-1 .45-1 1s.45 1 1 1 1-.45 1-1-.45-1-1-1Zm4 1c0 .55.45 1 1 1s1-.45 1-1-.45-1-1-1-1 .45-1 1Zm-10 0c0 .55.45 1 1 1s1-.45 1-1-.45-1-1-1-1 .45-1 1Zm6 9c-.55 0-1 .45-1 1s.45 1 1 1 1-.45 1-1-.45-1-1-1Zm6 1c0-.55-.45-1-1-1s-1 .45-1 1 .45 1 1 1 1-.45 1-1Zm-11-1c-.55 0-1 .45-1 1s.45 1 1 1 1-.45 1-1-.45-1-1-1Zm18.97-3.85c0-.05.03-.1.03-.15 0-.1-.03-.18-.05-.26-.01-.04-.01-.09-.03-.13-.01-.03-.03-.04-.05-.07-.05-.09-.1-.18-.17-.25l-3.01-2.94a.987.987 0 0 0-1.41.02c-.39.4-.38 1.03.02 1.41l1.25 1.21h-5.54c-.55 0-1 .45-1 1s.45 1 1 1h5.61l-1.32 1.34c-.39.39-.38 1.03 0 1.41a.992.992 0 0 0 1.41-.01l2.99-3.03s.02-.05.04-.06c.07-.08.13-.16.17-.26.03-.07.03-.15.05-.23h.01Zm-27.73.47s.03.06.05.08l3.01 3.04a.992.992 0 0 0 1.41.01c.39-.39.4-1.02 0-1.41l-1.32-1.33h5.6c.55 0 1-.45 1-1s-.45-1-1-1H5.46l1.25-1.21a.996.996 0 1 0-1.39-1.43L2.31 15.3c-.08.08-.14.18-.19.28 0 .02-.02.03-.03.04-.02.05-.02.1-.03.15-.02.08-.05.15-.05.23 0 .06.02.11.03.16.01.08.02.16.05.23.04.09.1.16.16.24l-.01-.01Z"/></svg>