<svg xmlns="http://www.w3.org/2000/svg" viewBox="0 0 32 32"><path d="M21.5 27c0-.55-.45-1-1-1l-10.86.02L6 22.41 5.98 9.64 9.59 6l12.77-.02L26 9.59v10.92c0 .55.45 1 1 1s1-.45 1-1V9.58c0-.51-.21-1-.56-1.35l-3.67-3.67c-.36-.36-.85-.56-1.36-.56H9.58c-.51 0-1 .21-1.35.56L4.57 8.22c-.36.36-.56.85-.56 1.36v12.83c0 .51.21 1 .56 1.35l3.66 3.66c.36.36.85.56 1.36.56h10.92c.55 0 1-.45 1-1l-.01.02ZM12 16c0-.55-.45-1-1-1s-1 .45-1 1 .45 1 1 1 1-.45 1-1Zm5-5c0-.55-.45-1-1-1s-1 .45-1 1 .45 1 1 1 1-.45 1-1Zm5 0c0-.55-.45-1-1-1s-1 .45-1 1 .45 1 1 1 1-.45 1-1Zm-10 0c0-.55-.45-1-1-1s-1 .45-1 1 .45 1 1 1 1-.45 1-1Zm0 10c0-.55-.45-1-1-1s-1 .45-1 1 .45 1 1 1 1-.45 1-1Zm5.85-5.69 2.59 2.59-2.54 2.54-2.59-2.59-.07.2c-.55 1.61-.13 3.4 1.08 4.61.85.85 1.97 1.31 3.17 1.31.39 0 .78-.05 1.16-.15l.5-.13 5.78 5.79.12.11c.33.28.74.42 1.15.42a1.799 1.799 0 0 0 1.27-3.07l-5.78-5.79.13-.5.05-.21c.32-1.48-.13-3.05-1.21-4.12a4.439 4.439 0 0 0-3.17-1.31c-.56 0-1.12.11-1.64.31v-.01Z"/></svg>