<svg xmlns="http://www.w3.org/2000/svg" viewBox="0 0 32 32"><path d="M15.5 7.5c0-.28.22-.5.5-.5s.5.22.5.5-.22.5-.5.5-.5-.22-.5-.5Zm-7.04 8.7c-.3-.3-.46-.7-.46-1.12V6.92c0-.42.17-.83.47-1.12l2.33-2.33c.29-.29.7-.46 1.12-.46h8.17c.42 0 .82.17 1.12.46l2.33 2.33c.29.29.46.7.46 1.12v8.16c0 .42-.17.82-.47 1.12l-2.33 2.33c-.3.3-.69.46-1.12.46h-8.16c-.42 0-.83-.17-1.12-.47l-2.33-2.33-.01.01ZM10 14.91 12.09 17h7.82L22 14.91V7.09L19.91 5h-7.82L10 7.09v7.82Zm.71 7.38A.996.996 0 1 0 9.3 23.7l.29.29H6c-.55 0-1 .45-1 1s.45 1 1 1h3.59l-.29.29a.996.996 0 0 0 .71 1.7c.26 0 .51-.1.71-.29l2-2a.996.996 0 0 0 0-1.41l-2-2-.01.01ZM16 21c-.55 0-1 .45-1 1v6c0 .55.45 1 1 1s1-.45 1-1v-6c0-.55-.45-1-1-1Zm10 3h-3.59l.29-.29a.996.996 0 1 0-1.41-1.41l-2 2a.996.996 0 0 0 0 1.41l2 2c.2.2.45.29.71.29.26 0 .51-.1.71-.29a.996.996 0 0 0 0-1.41l-.29-.29h3.59c.55 0 1-.45 1-1s-.45-1-1-1L26 24ZM19.5 8c.28 0 .5-.22.5-.5s-.22-.5-.5-.5-.5.22-.5.5.22.5.5.5Zm-7 0c.28 0 .5-.22.5-.5s-.22-.5-.5-.5-.5.22-.5.5.22.5.5.5Zm3.5 3.5c.28 0 .5-.22.5-.5s-.22-.5-.5-.5-.5.22-.5.5.22.5.5.5Zm3.5 0c.28 0 .5-.22.5-.5s-.22-.5-.5-.5-.5.22-.5.5.22.5.5.5Zm-7 0c.28 0 .5-.22.5-.5s-.22-.5-.5-.5-.5.22-.5.5.22.5.5.5ZM16 15c.28 0 .5-.22.5-.5s-.22-.5-.5-.5-.5.22-.5.5.22.5.5.5Zm3.5 0c.28 0 .5-.22.5-.5s-.22-.5-.5-.5-.5.22-.5.5.22.5.5.5Zm-7 0c.28 0 .5-.22.5-.5s-.22-.5-.5-.5-.5.22-.5.5.22.5.5.5Z"/></svg>