<svg xmlns="http://www.w3.org/2000/svg" viewBox="0 0 32 32"><path d="M24 25.97c-.26 0-.51-.1-.71-.29a.996.996 0 0 1 0-1.41l1.29-1.29H5c-.55 0-1-.45-1-1s.45-1 1-1h19.59l-1.29-1.29a.996.996 0 1 1 1.41-1.41l3 3c.1.1.17.21.22.33.05.12.07.24.08.37 0 .14-.03.27-.08.39-.05.11-.12.22-.21.31l-3 3.01c-.2.2-.45.29-.71.29l-.01-.01Zm1.13-10h-5.25c-.37 0-.71-.14-.97-.4l-1.5-1.5c-.26-.25-.4-.6-.4-.97V7.85c0-.37.15-.72.41-.98l1.49-1.5c.25-.25.61-.4.97-.4h5.25c.37 0 .72.15.98.41l1.5 1.5c.26.26.4.6.4.97v5.25c0 .37-.14.71-.4.97l-1.5 1.5c-.26.26-.6.4-.97.4h-.01Zm-4.99-2h4.73L26 12.84V8.1l-1.13-1.13h-4.73L19.01 8.1v4.73l1.13 1.13v.01Zm-8.02 2H6.87c-.37 0-.72-.15-.98-.41l-1.5-1.5c-.26-.26-.4-.61-.4-.97V7.85c0-.36.15-.72.4-.97l1.5-1.5c.25-.25.6-.4.97-.4h5.25c.37 0 .72.15.98.41l1.5 1.5c.26.26.4.6.4.97v5.25c0 .37-.14.71-.4.97l-1.5 1.5c-.26.26-.61.4-.97.4v-.01Zm-4.99-2h4.73l1.13-1.13V8.1l-1.13-1.13H7.13L6 8.1v4.73l1.13 1.13v.01Z"/></svg>