<svg xmlns="http://www.w3.org/2000/svg" viewBox="0 0 32 32"><path d="M24.5 12.95c0 .3-.24.55-.55.55-.31 0-.55-.24-.55-.55 0-.31.24-.55.55-.55.31 0 .55.24.55.55Zm0-2.45c0-.3-.24-.55-.55-.55-.31 0-.55.24-.55.55 0 .31.24.55.55.55.31 0 .55-.24.55-.55Zm-4.91-2.45c0-.3-.24-.55-.55-.55-.31 0-.55.24-.55.55 0 .31.24.55.55.55.31 0 .55-.24.55-.55Zm4.91 0c0-.3-.24-.55-.55-.55-.31 0-.55.24-.55.55 0 .31.24.55.55.55.31 0 .55-.24.55-.55Zm-2.45 0c0-.3-.24-.55-.55-.55-.31 0-.55.24-.55.55 0 .31.24.55.55.55.31 0 .55-.24.55-.55Zm3.69 8.53 1.83-1.83c.28-.28.43-.64.43-1.03V7.29c0-.39-.16-.76-.43-1.03l-1.83-1.83A1.48 1.48 0 0 0 24.71 4h-6.42c-.38 0-.76.16-1.03.43l-1.83 1.83c-.27.27-.43.65-.43 1.03V8.5h2v-.98L18.52 6h5.97l1.52 1.52v5.97l-1.52 1.52h-.98v2h1.21c.39 0 .76-.16 1.03-.43h-.01ZM13.5 23.95c0-.3-.24-.55-.55-.55-.31 0-.55.24-.55.55 0 .31.24.55.55.55.31 0 .55-.24.55-.55Zm-2.45 0c0-.3-.24-.55-.55-.55-.31 0-.55.24-.55.55 0 .31.24.55.55.55.31 0 .55-.24.55-.55Zm-2.45 0c0-.3-.24-.55-.55-.55-.31 0-.55.24-.55.55 0 .31.24.55.55.55.31 0 .55-.24.55-.55Zm0-2.45c0-.3-.24-.55-.55-.55-.31 0-.55.24-.55.55 0 .31.24.55.55.55.31 0 .55-.24.55-.55Zm4.91 0c0-.3-.24-.55-.55-.55-.31 0-.55.24-.55.55 0 .31.24.55.55.55.31 0 .55-.24.55-.55ZM8.6 19.05c0-.3-.24-.55-.55-.55-.31 0-.55.24-.55.55 0 .31.24.55.55.55.31 0 .55-.24.55-.55Zm4.91 0c0-.3-.24-.55-.55-.55-.31 0-.55.24-.55.55 0 .31.24.55.55.55.31 0 .55-.24.55-.55Zm-2.45 0c0-.3-.24-.55-.55-.55-.31 0-.55.24-.55.55 0 .31.24.55.55.55.31 0 .55-.24.55-.55Zm0 2.45c0-.3-.24-.55-.55-.55-.31 0-.55.24-.55.55 0 .31.24.55.55.55.31 0 .55-.24.55-.55Zm3.69 6.07 1.83-1.83c.28-.28.43-.64.43-1.03v-6.42c0-.39-.16-.76-.43-1.03l-1.83-1.83a1.48 1.48 0 0 0-1.03-.43H7.29c-.38 0-.76.16-1.03.43l-1.83 1.83c-.27.27-.43.65-.43 1.03v6.42c0 .39.15.76.43 1.03l1.83 1.83c.27.27.65.43 1.03.43h6.42c.39 0 .76-.16 1.03-.43h.01Zm-8.74-3.09v-5.97l1.52-1.52h5.97l1.52 1.52v5.97L13.5 26H7.52L6 24.48h.01Zm13-6.03c0-.3-.24-.55-.55-.55-.31 0-.55.24-.55.55 0 .31.24.55.55.55.31 0 .55-.24.55-.55Zm0-2.45c0-.3-.24-.55-.55-.55-.31 0-.55.24-.55.55 0 .31.24.55.55.55.31 0 .55-.24.55-.55Zm-4.91-2.45c0-.3-.24-.55-.55-.55-.31 0-.55.24-.55.55 0 .31.24.55.55.55.31 0 .55-.24.55-.55Zm4.91 0c0-.3-.24-.55-.55-.55-.31 0-.55.24-.55.55 0 .31.24.55.55.55.31 0 .55-.24.55-.55Zm-2.45 0c0-.3-.24-.55-.55-.55-.31 0-.55.24-.55.55 0 .31.24.55.55.55.31 0 .55-.24.55-.55Zm3.69 8.53 1.83-1.83c.28-.28.43-.64.43-1.03V12.8c0-.39-.16-.76-.43-1.03l-1.83-1.83a1.48 1.48 0 0 0-1.03-.43H12.8c-.38 0-.76.16-1.03.43l-1.83 1.83c-.27.27-.43.65-.43 1.03v1.21h2v-.98l1.52-1.52H19l1.52 1.52V19L19 20.52h-.98v2h1.21c.39 0 .76-.16 1.03-.43l-.01-.01Z"/></svg>