<svg xmlns="http://www.w3.org/2000/svg" viewBox="0 0 32 32"><path d="M17 16c0 .55-.45 1-1 1s-1-.45-1-1 .45-1 1-1 1 .45 1 1Zm2 10-9.36.02L6 22.41 5.98 9.64 9.59 6l12.77-.02L26 9.59v9.42c0 .55.45 1 1 1s1-.45 1-1V9.58c0-.51-.2-1-.56-1.36l-3.66-3.66c-.36-.36-.85-.56-1.36-.56H9.58c-.51 0-1 .21-1.35.56L4.56 8.23C4.2 8.59 4 9.07 4 9.59v12.83c0 .51.2 1 .56 1.36l3.67 3.67c.36.36.85.56 1.36.56h9.42c.55 0 1-.45 1-1s-.45-1-1-1L19 26Zm2-11c-.55 0-1 .45-1 1s.45 1 1 1 1-.45 1-1-.45-1-1-1Zm-10 0c-.55 0-1 .45-1 1s.45 1 1 1 1-.45 1-1-.45-1-1-1Zm5-5c-.55 0-1 .45-1 1s.45 1 1 1 1-.45 1-1-.45-1-1-1Zm5 0c-.55 0-1 .45-1 1s.45 1 1 1 1-.45 1-1-.45-1-1-1Zm-10 0c-.55 0-1 .45-1 1s.45 1 1 1 1-.45 1-1-.45-1-1-1Zm5 10c-.55 0-1 .45-1 1s.45 1 1 1 1-.45 1-1-.45-1-1-1Zm5 0c-.55 0-1 .45-1 1s.45 1 1 1 1-.45 1-1-.45-1-1-1Zm-10 0c-.55 0-1 .45-1 1s.45 1 1 1 1-.45 1-1-.45-1-1-1Zm18 5h-2v-2c0-.55-.45-1-1-1s-1 .45-1 1v2h-2c-.55 0-1 .45-1 1s.45 1 1 1h2v2c0 .55.45 1 1 1s1-.45 1-1v-2h2c.55 0 1-.45 1-1s-.45-1-1-1Z"/></svg>