<svg xmlns="http://www.w3.org/2000/svg" viewBox="0 0 32 32"><path d="M28 24c0 .55-.45 1-1 1h-2v2c0 .55-.45 1-1 1s-1-.45-1-1v-2h-2c-.55 0-1-.45-1-1s.45-1 1-1h2v-2c0-.55.45-1 1-1s1 .45 1 1v2h2c.55 0 1 .45 1 1ZM23 6c.55 0 1-.45 1-1s-.45-1-1-1H8.77c-.26 0-.51.1-.7.28L4.3 7.95c-.19.19-.3.45-.3.72V23c0 .55.45 1 1 1s1-.45 1-1V9.09L9.18 6H23Zm-8 14.5c0 1.93-1.57 3.5-3.5 3.5S8 22.43 8 20.5 9.57 17 11.5 17s3.5 1.57 3.5 3.5Zm-2 0c0-.83-.67-1.5-1.5-1.5s-1.5.67-1.5 1.5.67 1.5 1.5 1.5 1.5-.67 1.5-1.5Zm2-9c0 1.93-1.57 3.5-3.5 3.5S8 13.43 8 11.5 9.57 8 11.5 8 15 9.57 15 11.5Zm-2 0c0-.83-.67-1.5-1.5-1.5s-1.5.67-1.5 1.5.67 1.5 1.5 1.5 1.5-.67 1.5-1.5Zm7.5 3.5c-1.93 0-3.5-1.57-3.5-3.5S18.57 8 20.5 8 24 9.57 24 11.5 22.43 15 20.5 15Zm0-2c.83 0 1.5-.67 1.5-1.5s-.67-1.5-1.5-1.5-1.5.67-1.5 1.5.67 1.5 1.5 1.5Z"/></svg>