<svg xmlns="http://www.w3.org/2000/svg" viewBox="0 0 32 32"><path d="M17 16c0 .55-.45 1-1 1s-1-.45-1-1 .45-1 1-1 1 .45 1 1Zm6.77 11.44 3.67-3.67c.36-.36.56-.84.56-1.36V9.58c0-.51-.2-1-.56-1.36l-3.66-3.66c-.36-.36-.85-.56-1.36-.56H9.58c-.51 0-1 .21-1.35.56L4.56 8.23C4.2 8.59 4 9.07 4 9.59v12.83c0 .51.2 1 .56 1.36l3.67 3.67c.36.36.85.56 1.36.56h12.83c.51 0 1-.21 1.35-.56v-.01ZM26 9.62l.02 12.74L22.41 26l-12.77.02L6 22.41 5.98 9.64 9.59 6l12.77-.02L26 9.62Zm-4 6.39c0-.55-.45-1-1-1s-1 .45-1 1 .45 1 1 1 1-.45 1-1Zm-10 0c0-.55-.45-1-1-1s-1 .45-1 1 .45 1 1 1 1-.45 1-1Zm5-5c0-.55-.45-1-1-1s-1 .45-1 1 .45 1 1 1 1-.45 1-1Zm5 0c0-.55-.45-1-1-1s-1 .45-1 1 .45 1 1 1 1-.45 1-1Zm-10 0c0-.55-.45-1-1-1s-1 .45-1 1 .45 1 1 1 1-.45 1-1Zm5 10c0-.55-.45-1-1-1s-1 .45-1 1 .45 1 1 1 1-.45 1-1Zm5 0c0-.55-.45-1-1-1s-1 .45-1 1 .45 1 1 1 1-.45 1-1Zm-10 0c0-.55-.45-1-1-1s-1 .45-1 1 .45 1 1 1 1-.45 1-1Z"/></svg>