<svg xmlns="http://www.w3.org/2000/svg" viewBox="0 0 32 32"><path d="M5 24c-.55 0-1-.45-1-1V8.67c0-.27.11-.53.3-.72l3.78-3.67c.19-.18.44-.28.7-.28H23c.55 0 1 .45 1 1s-.45 1-1 1H9.18L6 9.09V23c0 .55-.45 1-1 1Zm3-3.5c0 1.93 1.57 3.5 3.5 3.5s3.5-1.57 3.5-3.5-1.57-3.5-3.5-3.5S8 18.57 8 20.5Zm7-9C15 9.57 13.43 8 11.5 8S8 9.57 8 11.5 9.57 15 11.5 15s3.5-1.57 3.5-3.5Zm-2 0c0 .83-.67 1.5-1.5 1.5s-1.5-.67-1.5-1.5.67-1.5 1.5-1.5 1.5.67 1.5 1.5Zm11 9c0-1.93-1.57-3.5-3.5-3.5S17 18.57 17 20.5s1.57 3.5 3.5 3.5 3.5-1.57 3.5-3.5Zm-2 0c0 .83-.67 1.5-1.5 1.5s-1.5-.67-1.5-1.5.67-1.5 1.5-1.5 1.5.67 1.5 1.5Zm-5-9c0 1.93 1.57 3.5 3.5 3.5s3.5-1.57 3.5-3.5S22.43 8 20.5 8 17 9.57 17 11.5Z"/></svg>