<svg xmlns="http://www.w3.org/2000/svg" viewBox="0 0 32 32"><path d="M22.5 23H21c-.28 0-.5-.22-.5-.5s.22-.5.5-.5h1v-1c0-.28.22-.5.5-.5s.5.22.5.5v1.5c0 .28-.22.5-.5.5ZM17 23h-2c-.28 0-.5-.22-.5-.5s.22-.5.5-.5h2c.28 0 .5.22.5.5s-.22.5-.5.5Zm-6 0H9.5c-.28 0-.5-.22-.5-.5V21c0-.28.22-.5.5-.5s.5.22.5.5v1h1c.28 0 .5.22.5.5s-.22.5-.5.5Zm-1.5-5.5c-.28 0-.5-.22-.5-.5v-2c0-.28.22-.5.5-.5s.5.22.5.5v2c0 .28-.22.5-.5.5Zm0-6c-.28 0-.5-.22-.5-.5V9.5c0-.28.22-.5.5-.5H11c.28 0 .5.22.5.5s-.22.5-.5.5h-1v1c0 .28-.22.5-.5.5ZM17 10h-2c-.28 0-.5-.22-.5-.5s.22-.5.5-.5h2c.28 0 .5.22.5.5s-.22.5-.5.5Zm5.5 1.5c-.28 0-.5-.22-.5-.5v-1h-1c-.28 0-.5-.22-.5-.5s.22-.5.5-.5h1.5c.28 0 .5.22.5.5V11c0 .28-.22.5-.5.5Zm0 6c-.28 0-.5-.22-.5-.5v-2c0-.28.22-.5.5-.5s.5.22.5.5v2c0 .28-.22.5-.5.5Z"/><path d="M22.42 28H9.58c-.51 0-1-.21-1.36-.57l-3.66-3.66c-.36-.35-.56-.85-.56-1.35V9.58c0-.51.21-1 .57-1.36l3.66-3.66C8.58 4.2 9.08 4 9.58 4h12.83c.51 0 1 .21 1.36.56l3.67 3.67c.36.36.56.85.56 1.35v12.83c0 .51-.21 1-.56 1.36l-3.67 3.67c-.35.36-.85.56-1.36.56h.01Zm-.07-22-12.74.02-3.6 3.63.02 12.74 3.63 3.6 12.74-.02 3.6-3.63-.02-12.71L22.35 6Z"/></svg>