<svg xmlns="http://www.w3.org/2000/svg" viewBox="0 0 32 32"><path d="M21.5 27c0 .55-.45 1-1 1H9.58c-.51 0-1-.21-1.36-.57l-3.66-3.66c-.36-.36-.56-.84-.56-1.36V9.58c0-.51.2-1 .56-1.36l3.67-3.67c.35-.36.85-.56 1.35-.56h12.83c.51 0 1 .21 1.36.56l3.66 3.66c.36.36.56.84.56 1.36v10.92c0 .55-.45 1-1 1s-1-.45-1-1V9.58l-3.64-3.61-12.77.02-3.61 3.64.02 12.77 3.64 3.61 10.86-.02c.55 0 1 .45 1 1l.01.01ZM11 15c-.55 0-1 .45-1 1s.45 1 1 1 1-.45 1-1-.45-1-1-1Zm4-4c0 .55.45 1 1 1s1-.45 1-1-.45-1-1-1-1 .45-1 1Zm5 0c0 .55.45 1 1 1s1-.45 1-1-.45-1-1-1-1 .45-1 1Zm-9-1c-.55 0-1 .45-1 1s.45 1 1 1 1-.45 1-1-.45-1-1-1Zm0 10c-.55 0-1 .45-1 1s.45 1 1 1 1-.45 1-1-.45-1-1-1Zm18.71 9.71c-.2.2-.45.29-.71.29-.26 0-.51-.1-.71-.29l-6.54-6.54c-.79.52-1.74.83-2.75.83-2.76 0-5-2.24-5-5s2.24-5 5-5 5 2.24 5 5c0 1.02-.31 1.96-.83 2.75l6.54 6.54c.39.39.39 1.02 0 1.41v.01ZM19 22c1.65 0 3-1.35 3-3s-1.35-3-3-3-3 1.35-3 3 1.35 3 3 3Z"/></svg>