<svg xmlns="http://www.w3.org/2000/svg" viewBox="0 0 32 32"><path d="M5 24c-.55 0-1-.45-1-1V8.67c0-.27.11-.53.3-.72l3.78-3.67c.19-.18.44-.28.7-.28H23c.55 0 1 .45 1 1s-.45 1-1 1H9.18L6 9.09V23c0 .55-.45 1-1 1Zm10-11v-3c0-1.1-.9-2-2-2h-3c-1.1 0-2 .9-2 2v3c0 1.1.9 2 2 2h3c1.1 0 2-.9 2-2Zm-2-3v3h-3v-3h3Zm11 3v-3c0-1.1-.9-2-2-2h-3c-1.1 0-2 .9-2 2v3c0 1.1.9 2 2 2h3c1.1 0 2-.9 2-2Zm-2-3v3h-3v-3h3Zm-7 12v-3c0-1.1-.9-2-2-2h-3c-1.1 0-2 .9-2 2v3c0 1.1.9 2 2 2h3c1.1 0 2-.9 2-2Zm-2-3v3h-3v-3h3Zm11 3v-3c0-1.1-.9-2-2-2h-3c-1.1 0-2 .9-2 2v3c0 1.1.9 2 2 2h3c1.1 0 2-.9 2-2Zm-2-3v3h-3v-3h3Z"/></svg>