<svg xmlns="http://www.w3.org/2000/svg" viewBox="0 0 32 32"><path d="M16 5.01c-6.07 0-11 4.93-11 11s4.93 11 11 11 11-4.93 11-11-4.93-11-11-11Zm0 20c-4.96 0-9-4.04-9-9s4.04-9 9-9 9 4.04 9 9-4.04 9-9 9Zm5.71-14.71c.39.39.39 1.02 0 1.41l-5 5c-.19.19-.45.29-.71.29-.13 0-.26-.02-.38-.08-.37-.15-.62-.52-.62-.92v-4.5c0-.55.45-1 1-1s1 .45 1 1v2.09l3.29-3.29a.996.996 0 0 1 1.41 0h.01ZM11.91 3c0-.55.45-1 1-1h6c.55 0 1 .45 1 1s-.45 1-1 1h-6c-.55 0-1-.45-1-1ZM27.7 8.71c-.2.2-.45.29-.71.29-.26 0-.51-.1-.71-.29l-3-3a.996.996 0 1 1 1.41-1.41l3 3c.39.39.39 1.02 0 1.41h.01Z"/></svg>