<svg xmlns="http://www.w3.org/2000/svg" viewBox="0 0 32 32"><path d="M16 4C9.38 4 4 9.38 4 16s5.38 12 12 12 12-5.38 12-12S22.62 4 16 4Zm0 22c-5.51 0-10-4.49-10-10S10.49 6 16 6s10 4.49 10 10-4.49 10-10 10Zm8-10c0 .55-.45 1-1 1s-1-.45-1-1c0-1.29-.42-2.49-1.11-3.47l-3.39 3.39V16c0 .83-.67 1.5-1.5 1.5s-1.5-.67-1.5-1.5.67-1.5 1.5-1.5h.08l3.39-3.39C18.49 10.41 17.29 10 16 10c-3.31 0-6 2.69-6 6 0 .55-.45 1-1 1s-1-.45-1-1c0-4.41 3.59-8 8-8 1.85 0 3.54.63 4.9 1.69l.4-.4a.996.996 0 1 1 1.41 1.41l-.4.4A7.985 7.985 0 0 1 24 16Z"/></svg>