<svg xmlns="http://www.w3.org/2000/svg" viewBox="0 0 32 32"><path d="M26.15 4H23V3c0-.55-.45-1-1-1s-1 .45-1 1v1H11V3c0-.55-.45-1-1-1s-1 .45-1 1v1H5.85C4.83 4 4 4.84 4 5.88v20.24C4 27.16 4.83 28 5.85 28H12c.55 0 1-.45 1-1s-.45-1-1-1H6V12h20v8c0 .55.45 1 1 1s1-.45 1-1V5.88C28 4.84 27.17 4 26.15 4ZM26 10H6V6h3v1c0 .55.45 1 1 1s1-.45 1-1V6h10v1c0 .55.45 1 1 1s1-.45 1-1V6h3v4Zm-15 7c-.55 0-1-.45-1-1s.45-1 1-1 1 .45 1 1-.45 1-1 1Zm5-2c-.55 0-1 .45-1 1s.45 1 1 1 1-.45 1-1-.45-1-1-1Zm-5 5c-.55 0-1 .45-1 1s.45 1 1 1 1-.45 1-1-.45-1-1-1Zm11 2c0 .22.32.4.54.43l6.41 1.09c.61.11 1.05.44 1.05 1.05V30H19l-4.89-4.83a.451.451 0 0 1-.06-.46c.24-.48.83-.92 1.19-1.03.6-.2 1.74.08 2.98 1.06l.81.27v-8.6c-.01-.81.67-1.41 1.48-1.41h.04c.81 0 1.44.62 1.44 1.44V22H22Zm-5.99-2c-.55 0-1 .45-1 1s.45 1 1 1 1-.45 1-1-.45-1-1-1Z"/></svg>