<svg xmlns="http://www.w3.org/2000/svg" viewBox="0 0 32 32"><path d="M16 16c-.55 0-1-.45-1-1V9c0-.55.45-1 1-1s1 .45 1 1v6c0 .55-.45 1-1 1Zm8-4c0-4.41-3.59-8-8-8s-8 3.59-8 8 3.59 8 8 8 8-3.59 8-8Zm-2 0c0 3.31-2.69 6-6 6s-6-2.69-6-6 2.69-6 6-6 6 2.69 6 6ZM9.37 27.92h1.33l-2.28-5.84H7.26L5 27.92h1.33l.42-1.2h2.2l.42 1.2Zm-1.52-4.36.76 2.19H7.09l.76-2.19Zm6.7-1.48v3.89c-.01.71-.37 1.07-1.07 1.07-.34 0-.6-.09-.79-.26-.19-.17-.29-.45-.29-.84v-3.85h-1.25v3.89c0 .63.22 1.13.64 1.49.42.36.98.54 1.69.54s1.29-.19 1.71-.56c.42-.37.62-.88.62-1.52v-3.85h-1.26Zm6.86 0h-4.95v.97h1.84v4.87h1.25v-4.87h1.86v-.97ZM27 24.87c0-.57-.11-1.08-.32-1.51-.22-.44-.52-.77-.92-1.01a2.61 2.61 0 0 0-1.35-.35c-.51 0-.96.12-1.35.35-.39.23-.7.57-.92 1.01-.22.44-.32.94-.32 1.52v.29c0 .56.11 1.06.33 1.49.22.43.52.76.92 1s.84.35 1.35.35c.51 0 .96-.12 1.36-.35.39-.24.7-.57.91-1 .21-.43.32-.94.32-1.51v-.26l-.01-.02Zm-1.27.28c0 .61-.12 1.07-.34 1.39-.23.32-.55.48-.97.48-.42 0-.76-.16-.99-.49-.23-.33-.34-.79-.34-1.39v-.28c0-.61.12-1.07.35-1.38.23-.31.55-.47.97-.47.42 0 .75.16.98.48.23.32.34.78.34 1.4v.28-.02Z"/></svg>