<svg xmlns="http://www.w3.org/2000/svg" viewBox="0 0 32 32"><path d="M8.94 26H6V12h20v4c0 .55.45 1 1 1s1-.45 1-1V5.88C28 4.84 27.17 4 26.15 4H23V3c0-.55-.45-1-1-1s-1 .45-1 1v1H11V3c0-.55-.45-1-1-1s-1 .45-1 1v1H5.85C4.83 4 4 4.84 4 5.88v20.24C4 27.16 4.83 28 5.85 28h3.09c.55 0 1-.45 1-1s-.45-1-1-1ZM9 6v1c0 .55.45 1 1 1s1-.45 1-1V6h10v1c0 .55.45 1 1 1s1-.45 1-1V6h3v4H6V6h3Zm2 11c-.55 0-1-.45-1-1s.45-1 1-1 1 .45 1 1-.45 1-1 1Zm9 3c-1.92 0-3.49 1.57-3.49 3.5S18.07 27 20 27c1.93 0 3.49-1.57 3.49-3.5S21.93 20 20 20Zm0 4.85c-.74 0-1.34-.61-1.34-1.35 0-.74.6-1.35 1.34-1.35.74 0 1.34.61 1.34 1.35 0 .74-.6 1.35-1.34 1.35ZM29.72 23c-2.1-3.76-5.74-6.01-9.72-6.01-3.98 0-7.62 2.25-9.72 6.01l-.28.49.28.49c2.1 3.76 5.74 6.01 9.72 6.01 3.98 0 7.62-2.25 9.72-6.01l.28-.49-.28-.49ZM20 27.99c-3.09 0-5.94-1.67-7.72-4.5 1.78-2.83 4.63-4.5 7.72-4.5s5.94 1.67 7.72 4.5c-1.78 2.83-4.63 4.5-7.72 4.5Z"/></svg>