<svg xmlns="http://www.w3.org/2000/svg" viewBox="0 0 32 32"><path d="M24 13h-2c-.55 0-1-.45-1-1s.45-1 1-1h2c.55 0 1 .45 1 1s-.45 1-1 1Zm-3 7c0-.55-.45-1-1-1h-8c-.55 0-1 .45-1 1s.45 1 1 1h8c.55 0 1-.45 1-1Zm-3 4c0-.55-.45-1-1-1h-5c-.55 0-1 .45-1 1s.45 1 1 1h5c.55 0 1-.45 1-1ZM30 9v15c0 .55-.45 1-1 1h-4v2c0 1.1-.9 2-2 2H9c-1.1 0-2-.9-2-2v-2H3c-.55 0-1-.45-1-1V9c0-1.1.9-2 2-2h2V5c0-1.1.9-2 2-2h16c1.1 0 2 .9 2 2v2h2c1.1 0 2 .9 2 2ZM8 7h16V5H8v2Zm15 10H9v10h14V17Zm5-8H4v14h3v-7c0-.55.45-1 1-1h16c.55 0 1 .45 1 1v7h3V9Z"/></svg>