<svg xmlns="http://www.w3.org/2000/svg" viewBox="0 0 32 32"><path d="M17.71 22.29a.996.996 0 1 0-1.41 1.41l.29.29H6.01v-7H13c.06 0 .11-.02.17-.03.4 1.18 1.51 2.03 2.83 2.03 1.65 0 3-1.35 3-3s-1.35-3-3-3c-1.31 0-2.42.86-2.83 2.03-.06-.01-.11-.03-.17-.03H6c-.54 0-1.04.21-1.42.59-.38.38-.58.88-.58 1.42v7.02c.01 1.1.91 2 2.01 2h10.57l-.29.28A.996.996 0 0 0 17 28c.26 0 .51-.1.71-.29l2-2a.996.996 0 0 0 0-1.41l-2-2v-.01ZM16 15c.55 0 1 .45 1 1s-.45 1-1 1-1-.45-1-1 .45-1 1-1Zm10-9H9.82A2.99 2.99 0 0 0 7 4C5.35 4 4 5.35 4 7s1.35 3 3 3c1.3 0 2.4-.84 2.82-2H26v7h-1.59l.29-.29a.996.996 0 1 0-1.41-1.41l-2 2a.996.996 0 0 0 0 1.41l2 2c.2.2.45.29.71.29.26 0 .51-.1.71-.29a.996.996 0 0 0 0-1.41l-.29-.29h1.59c1.1 0 2-.9 2-2v-7c0-1.1-.9-2-2-2L26 6ZM7 8c-.55 0-1-.45-1-1s.45-1 1-1 1 .45 1 1-.45 1-1 1Zm18 14c-1.65 0-3 1.35-3 3s1.35 3 3 3 3-1.35 3-3-1.35-3-3-3Zm0 4c-.55 0-1-.45-1-1s.45-1 1-1 1 .45 1 1-.45 1-1 1Z"/></svg>