<svg xmlns="http://www.w3.org/2000/svg" viewBox="0 0 32 32"><path d="M18.76 10c0 .55.45 1 1 1h3.99c.69 0 1.25-.56 1.25-1.25V5.76c0-.55-.45-1-1-1s-1 .45-1 1v1.76A10.908 10.908 0 0 0 15.85 5c-3 .04-5.78 1.27-7.84 3.44-3.94 4.17-3.94 10.94 0 15.11 2.06 2.18 4.85 3.4 7.84 3.44h.16a10.939 10.939 0 0 0 8.8-4.4c.33-.44.24-1.07-.2-1.4-.44-.33-1.07-.24-1.4.2-.25.33-.53.66-.84.96a8.942 8.942 0 0 1-6.36 2.64h-.13c-2.45-.03-4.73-1.04-6.42-2.82-3.22-3.41-3.22-8.95 0-12.36a8.988 8.988 0 0 1 6.42-2.82h.13c2.08 0 4.05.7 5.65 2h-1.9c-.55 0-1 .45-1 1V10Z"/></svg>