<svg xmlns="http://www.w3.org/2000/svg" viewBox="0 0 32 32"><path d="M6.41 19.01c-.07.01-.14.02-.2.02-.46 0-.88-.33-.98-.8-.23-1.09-.28-2.21-.17-3.33.6-6.04 6-10.45 12.04-9.85 2.2.22 4.22 1.07 5.9 2.47V5.76c0-.55.45-1 1-1s1 .45 1 1v3.99c0 .69-.56 1.25-1.25 1.25h-3.99c-.55 0-1-.45-1-1s.45-1 1-1h1.9a8.962 8.962 0 0 0-4.76-1.96c-4.95-.5-9.36 3.12-9.85 8.06-.09.92-.04 1.83.14 2.73.11.54-.24 1.07-.78 1.18Zm20.36-5.25a1.01 1.01 0 0 0-1.18-.78c-.54.11-.89.64-.78 1.18.19.89.23 1.81.14 2.73-.49 4.94-4.91 8.56-9.85 8.06A8.95 8.95 0 0 1 10.35 23h1.89c.55 0 1-.45 1-1s-.45-1-1-1H8.25C7.56 21 7 21.56 7 22.25v3.99c0 .55.45 1 1 1s1-.45 1-1v-1.77a10.85 10.85 0 0 0 7.01 2.52c5.58 0 10.37-4.24 10.94-9.91.11-1.12.05-2.24-.17-3.33l-.01.01Z"/></svg>