<svg xmlns="http://www.w3.org/2000/svg" viewBox="0 0 32 32"><path d="M26 20H6c-1.1 0-2 .9-2 2v4c0 1.1.9 2 2 2h20c1.1 0 2-.9 2-2v-4c0-1.1-.9-2-2-2Zm0 6H6v-4h20v4ZM7 13.5c.93 0 1.71-.64 1.93-1.5h4.14c.31 1.39 1.74 4 4.1 4H18v1h3v-3h-3v1h-.83c-1.66 0-2.76-1.94-3.07-3h7.92v1.89l3.95-2.39-3.95-2.39V11h-9.75c.45-.9 1.18-2 1.84-2h.98c.21.58.76 1 1.41 1 .83 0 1.5-.67 1.5-1.5S17.33 7 16.5 7c-.65 0-1.2.42-1.41 1h-.98c-1.5 0-2.57 2.14-2.95 3H8.92c-.22-.86-1-1.5-1.93-1.5-1.1 0-2 .9-2 2s.9 2 2 2H7ZM25 25h-2v-2h2v2Z"/></svg>