<svg xmlns="http://www.w3.org/2000/svg" viewBox="0 0 32 32"><path d="M28 21v5.97c0 .55-.45 1-1 1L21 28c-.55 0-1-.45-1-1s.45-1 1-1l5 .02V22h-3.56l.27.26a.996.996 0 0 1-.7 1.71.99.99 0 0 1-.7-.28l-2.02-1.97c-.19-.19-.3-.45-.3-.72 0-.27.11-.53.3-.72l2.02-1.97a.996.996 0 0 1 1.41.02c.38.4.38 1.03-.02 1.41l-.21.26h4.5c.55 0 1 .45 1 1H28ZM26.15 4H23V3c0-.55-.45-1-1-1s-1 .45-1 1v1H11V3c0-.55-.45-1-1-1s-1 .45-1 1v1H5.85C4.83 4 4 4.84 4 5.88v20.24C4 27.16 4.83 28 5.85 28H17c.55 0 1-.45 1-1s-.45-1-1-1H6V12h20v5c0 .55.45 1 1 1s1-.45 1-1V5.88C28 4.84 27.17 4 26.15 4ZM26 10H6V6h3v1c0 .55.45 1 1 1s1-.45 1-1V6h10v1c0 .55.45 1 1 1s1-.45 1-1V6h3v4Zm-15 7c-.55 0-1-.45-1-1s.45-1 1-1 1 .45 1 1-.45 1-1 1Zm5-2c-.55 0-1 .45-1 1s.45 1 1 1 1-.45 1-1-.45-1-1-1Zm-5 5c-.55 0-1 .45-1 1s.45 1 1 1 1-.45 1-1-.45-1-1-1Zm10-5c-.55 0-1 .45-1 1s.45 1 1 1 1-.45 1-1-.45-1-1-1Zm-5 5c-.55 0-1 .45-1 1s.45 1 1 1 1-.45 1-1-.45-1-1-1Z"/></svg>