<svg xmlns="http://www.w3.org/2000/svg" viewBox="0 0 32 32"><path d="M27.82 6H4.18C2.98 6 2 6.9 2 8v16c0 1.1.98 2 2.18 2h23.64c1.2 0 2.18-.9 2.18-2V8c0-1.1-.98-2-2.18-2ZM4.18 8h23.64c.11 0 .17.04.18.01V10H3.99V8.06s.07-.06.2-.06h-.01Zm23.64 16H4.18c-.08 0-.14-.02-.17-.02 0 0-.01 0-.02.01V12H28v11.93s-.06.07-.19.07h.01Zm-5.32-2.5c0 .28-.22.5-.5.5H10c-.28 0-.5-.22-.5-.5s.22-.5.5-.5h12c.28 0 .5.22.5.5Zm0-2c0 .28-.22.5-.5.5H10c-.28 0-.5-.22-.5-.5s.22-.5.5-.5h12c.28 0 .5.22.5.5Zm-9.71-3.29a.996.996 0 1 1 1.41-1.41l.79.79 2.29-2.29a.996.996 0 1 1 1.41 1.41l-3 3c-.2.2-.45.29-.71.29-.26 0-.51-.1-.71-.29l-1.5-1.5h.02Z"/></svg>