<svg xmlns="http://www.w3.org/2000/svg" viewBox="0 0 32 32"><path d="M27.82 6H4.18C2.98 6 2 6.9 2 8v16c0 1.1.98 2 2.18 2h23.64c1.2 0 2.18-.9 2.18-2V8c0-1.1-.98-2-2.18-2ZM4.18 8h23.64c.11 0 .17.04.18.01V10H3.99V8.06s.07-.06.2-.06h-.01Zm23.64 16H4.18c-.08 0-.14-.02-.17-.02 0 0-.01 0-.02.01V12H28v11.93s-.06.07-.19.07h.01ZM9.5 18.5H13c0 1.96-1.48 3.5-3.44 3.5S6 20.41 6 18.44 7.54 15 9.5 15v3.5Zm4.5-1h-3.5V14c1.96 0 3.5 1.54 3.5 3.5ZM25 14h-1.5v-.5c0-.28-.22-.5-.5-.5h-4c-.28 0-.5.22-.5.5v.5H17a.47.47 0 0 0-.35.15c-.09.1-.15.22-.15.35v7c0 .28.22.5.5.5h.5v.5c0 .28.22.5.5.5h6c.28 0 .5-.22.5-.5V22h.5c.28 0 .5-.22.5-.5v-7a.47.47 0 0 0-.15-.35A.529.529 0 0 0 25 14Zm-5.5 0h3v5h-3v-5Zm5 7h-7v-6h1v4.5c0 .28.22.5.5.5h4c.28 0 .5-.22.5-.5V15h1v6Z"/></svg>