<svg xmlns="http://www.w3.org/2000/svg" viewBox="0 0 32 32"><path d="M28 6v11c0 .55-.45 1-1 1s-1-.45-1-1V6H6v20h10c.55 0 1 .45 1 1s-.45 1-1 1H6c-1.1 0-2-.9-2-2V6c0-1.1.9-2 2-2h20c1.1 0 2 .9 2 2ZM15.5 22.5V21H11v1.5c0 .28-.22.5-.5.5s-.5-.22-.5-.5V21H8.5c-.28 0-.5-.22-.5-.5s.22-.5.5-.5H10v-3.5H8.5c-.28 0-.5-.22-.5-.5s.22-.5.5-.5H10V12H8.5c-.28 0-.5-.22-.5-.5s.22-.5.5-.5H10V9.5c0-.28.22-.5.5-.5s.5.22.5.5V11h4.5V9.5c0-.28.22-.5.5-.5s.5.22.5.5V11H21V9.5c0-.28.22-.5.5-.5s.5.22.5.5V11h1.5c.28 0 .5.22.5.5s-.22.5-.5.5H22v3.5h1.5c.28 0 .5.22.5.5s-.22.5-.5.5h-7v6c0 .28-.22.5-.5.5s-.5-.22-.5-.5Zm1-10.5v3.5H21V12h-4.5ZM11 15.5h4.5V12H11v3.5Zm4.5 4.5v-3.5H11V20h4.5ZM26 20h-4.59l.29-.29a.996.996 0 1 0-1.41-1.41l-2 2a.996.996 0 0 0 0 1.41l2 2c.2.2.45.29.71.29.26 0 .51-.1.71-.29a.996.996 0 0 0 0-1.41l-.29-.29h4.59v4h-6c-.55 0-1 .45-1 1s.45 1 1 1h6c1.1 0 2-.9 2-2v-4c0-1.1-.9-2-2-2L26 20Z"/></svg>