<svg xmlns="http://www.w3.org/2000/svg" viewBox="0 0 32 32"><path d="M16.01 29.99c-3.58 0-7.17-1.36-9.9-4.09-5.45-5.46-5.45-14.34 0-19.8C11.56.64 20.45.64 25.9 6.1c5.45 5.46 5.46 14.33 0 19.79a13.943 13.943 0 0 1-9.9 4.09l.01.01Zm0-25.98c-3.07 0-6.14 1.17-8.48 3.51-4.68 4.68-4.68 12.29 0 16.96 4.68 4.67 12.29 4.68 16.96 0 4.67-4.68 4.68-12.29 0-16.96a11.955 11.955 0 0 0-8.48-3.51Zm-1.97 19.21 9.19-9.19a.996.996 0 1 0-1.41-1.41l-9.19 9.19a.996.996 0 0 0 .71 1.7c.26 0 .51-.1.71-.29h-.01Zm-3.83-3.83 9.19-9.19a.996.996 0 1 0-1.41-1.41L8.8 17.98a.996.996 0 0 0 .71 1.7c.26 0 .51-.1.71-.29h-.01Z"/></svg>