<svg xmlns="http://www.w3.org/2000/svg" viewBox="0 0 32 32"><path d="M17 26H3c-.55 0-1-.45-1-1s.45-1 1-1h1.06L5 14.45a5.01 5.01 0 0 1 5-4.95c1.11 0 2.14.37 2.98.99l9.39-1.88 1.27-2.12c.18-.3.51-.49.86-.49h3c.55 0 1 .45 1 1s-.45 1-1 1h-2.43l-1.01 1.68.12.62.52 1.73 1.72.82 2.03-1.34a1.001 1.001 0 1 1 1.11 1.67l-2.5 1.66c-.29.19-.67.22-.98.07l-2.63-1.26-.05-.03-8.21 2.92.73 7.46h1.09c.55 0 1 .45 1 1s-.45 1-1 1H17ZM6.07 24h7.83l-.57-5.78c-.89.79-2.06 1.28-3.34 1.28-1.28 0-2.47-.49-3.36-1.3L6.06 24h.01ZM7 14.51a3 3 0 0 0 3 2.99c1.65 0 3-1.35 3-3s-1.35-3-3-3-2.99 1.34-3 2.99v.02Zm7.45-2.28c.35.68.54 1.44.55 2.25l7.54-2.68-.32-1.12-7.77 1.55Z"/></svg>