<svg xmlns="http://www.w3.org/2000/svg" viewBox="0 0 32 32"><path d="m28.02 12.93-2.72.59-1.43-1.3-.63-2.78.97-1.93 2.32-.54a1 1 0 0 0 .75-1.2.997.997 0 0 0-1.2-.75l-2.78.65c-.29.07-.53.26-.67.53l-1.29 2.57-8.73 1.48c-.76-.47-1.64-.75-2.6-.75-2.72 0-4.92 2.18-4.99 4.88v.02L4.08 24H3.02c-.55 0-1 .45-1 1s.45 1 1 1h14c.55 0 1-.45 1-1s-.45-1-1-1h-1.09l-.73-7.46 7.52-2.67 1.63 1.49c.19.17.43.26.67.26.07 0 .14 0 .21-.02l3.23-.71c.54-.12.88-.65.76-1.19a.996.996 0 0 0-1.19-.76l-.01-.01ZM15 14.48c0-.91-.27-1.75-.7-2.49l7.19-1.22.29 1.29L15 14.47v.01Zm-5-2.98c1.65 0 3 1.35 3 3s-1.35 3-3 3-3-1.35-3-3 1.35-3 3-3ZM6.07 24l.57-5.82c.89.81 2.06 1.32 3.36 1.32 1.3 0 2.45-.5 3.33-1.3l.57 5.8H6.07ZM30 11.25c0 .14-.05.28-.12.41-.12.18-.3.32-.51.37l-3.23.75c-.44.1-.89-.17-.99-.61l-.76-3.2a.846.846 0 0 1 .1-.62c.12-.18.3-.32.51-.37l3.23-.75c.44-.1.89.17.99.61l.76 3.2c.02.07.02.14.02.21Z"/></svg>