<svg xmlns="http://www.w3.org/2000/svg" viewBox="0 0 32 32"><path d="M28 6v11c0 .55-.45 1-1 1s-1-.45-1-1V6H6v20h10c.55 0 1 .45 1 1s-.45 1-1 1H6c-1.1 0-2-.9-2-2V6c0-1.1.9-2 2-2h20c1.1 0 2 .9 2 2ZM15.5 21.5V21H11v1.5c0 .28-.22.5-.5.5s-.5-.22-.5-.5V21H8.5c-.28 0-.5-.22-.5-.5s.22-.5.5-.5H10v-3.5H8.5c-.28 0-.5-.22-.5-.5s.22-.5.5-.5H10V12H8.5c-.28 0-.5-.22-.5-.5s.22-.5.5-.5H10V9.5c0-.28.22-.5.5-.5s.5.22.5.5V11h4.5V9.5c0-.28.22-.5.5-.5s.5.22.5.5V11H21V9.5c0-.28.22-.5.5-.5s.5.22.5.5V11h1.5c.28 0 .5.22.5.5s-.22.5-.5.5H22v3.5h.5c.28 0 .5.22.5.5s-.22.5-.5.5h-6v5c0 .28-.22.5-.5.5s-.5-.22-.5-.5Zm1-9.5v3.5H21V12h-4.5Zm-1 8v-3.5H11V20h4.5Zm10.79 1.29-5 5a.996.996 0 0 0 .71 1.7c.26 0 .51-.1.71-.29l5-5a.996.996 0 1 0-1.41-1.41h-.01Zm-1.59-3a.996.996 0 0 0-1.41 0l-5 5a.996.996 0 0 0 .71 1.7c.26 0 .51-.1.71-.29l5-5a.996.996 0 0 0 0-1.41h-.01Z"/></svg>