<svg xmlns="http://www.w3.org/2000/svg" viewBox="0 0 32 32"><path d="M26 4H6c-1.1 0-2 .9-2 2v20c0 1.1.9 2 2 2h20c1.1 0 2-.9 2-2V6c0-1.1-.9-2-2-2Zm0 22H6V6h20v20Zm-2.5-14c.28 0 .5-.22.5-.5s-.22-.5-.5-.5H22V9.5c0-.28-.22-.5-.5-.5s-.5.22-.5.5V11h-4.5V9.5c0-.28-.22-.5-.5-.5s-.5.22-.5.5V11H11V9.5c0-.28-.22-.5-.5-.5s-.5.22-.5.5V11H8.5c-.28 0-.5.22-.5.5s.22.5.5.5H10v3.5H8.5c-.28 0-.5.22-.5.5s.22.5.5.5H10V20H8.5c-.28 0-.5.22-.5.5s.22.5.5.5H10v1.5c0 .28.22.5.5.5s.5-.22.5-.5V21h4.5v1.5c0 .28.22.5.5.5s.5-.22.5-.5V21H21v1.5c0 .28.22.5.5.5s.5-.22.5-.5V21h1.5c.28 0 .5-.22.5-.5s-.22-.5-.5-.5H22v-3.5h1.5c.28 0 .5-.22.5-.5s-.22-.5-.5-.5H22V12h1.5ZM11 12h4.5v3.5H11V12Zm0 8v-3.5h4.5V20H11Zm10 0h-4.5v-3.5H21V20Zm0-4.5h-4.5V12H21v3.5Z"/></svg>