<svg xmlns="http://www.w3.org/2000/svg" viewBox="0 0 32 32"><path d="M29.56 27.56c-.29.29-.68.44-1.06.44s-.77-.15-1.06-.44l-8.09-8.09A8.496 8.496 0 0 1 15 20.96v-1.99c3.35-.26 6-3.06 6-6.47C21 8.92 18.08 6 14.5 6c-1.84 0-3.5.77-4.68 2H7.3c1.5-2.4 4.16-4 7.2-4 4.69 0 8.5 3.81 8.5 8.5 0 1.8-.57 3.47-1.53 4.85l8.09 8.09c.59.59.59 1.54 0 2.12Zm-17.8.87c.75-.31 1.24-1.04 1.24-1.85v-7.67l5.5-5.5a2 2 0 0 0 .43-2.18A1.994 1.994 0 0 0 17.08 10H3.91c-.81 0-1.54.48-1.85 1.23a2 2 0 0 0 .43 2.18l5.5 5.5v6.67c0 .53.21 1.04.59 1.41l1 1a2 2 0 0 0 2.18.44ZM17.08 12l-5.5 5.5c-.38.38-.59.88-.59 1.41v7.67l-1-1v-6.67c0-.53-.21-1.04-.59-1.41L3.91 12h13.17Z"/></svg>