<svg xmlns="http://www.w3.org/2000/svg" viewBox="0 0 32 32"><path d="M28 5.06v-.17c0-.06-.02-.11-.03-.16-.02-.06-.03-.11-.06-.17-.01-.02-.01-.05-.03-.08-.01-.03-.04-.04-.05-.07-.03-.05-.07-.09-.11-.14-.04-.04-.09-.08-.13-.11a.18.18 0 0 0-.07-.05c-.02-.01-.05-.02-.07-.03a.578.578 0 0 0-.17-.06c-.05-.01-.1-.02-.16-.03h-.17c-.06 0-.11.01-.17.03-.03 0-.06 0-.08.01L5.37 11.46c-.79.28-1.33 1-1.37 1.84-.04.84.44 1.6 1.21 1.95l5.66 2.51-.72 1.35c-.42.8-.28 1.76.35 2.4a2.038 2.038 0 0 0 2.4.36l1.35-.72 2.51 5.66c.33.74 1.05 1.21 1.86 1.21h.09a2.04 2.04 0 0 0 1.84-1.36l7.41-21.34s0-.05.01-.08c.02-.06.02-.12.03-.18Zm-5.65 2.61-9.98 8.55-6.34-2.88 16.31-5.67h.01ZM11.92 20.04l.9-1.69c.13-.04.26-.1.37-.19l4.61-3.95-3.95 4.61c-.09.1-.15.22-.19.35l-1.74.88v-.01Zm6.68 5.94-2.82-6.34 8.53-9.95-5.71 16.29Z"/></svg>