<svg xmlns="http://www.w3.org/2000/svg" viewBox="0 0 32 32"><path d="M24.41 23.63c.38.34.59.84.59 1.37v1c0 1.1-.9 2-2 2H6c-1.1 0-2-.9-2-2v-1c0-.53.23-1.04.63-1.4.87-.77 3.6-1.79 6.52-2.44l.26-1.32c-.76-.73-1.68-1.7-2.13-3.82H8.5c-.55 0-1-.45-1-1v-2c0-.55.45-1 1-1h.6c.46-2.38 2.59-4.01 5.4-4.01 2.81 0 4.93 1.63 5.4 4h.6c.55 0 1 .45 1 1v2c0 .55-.45 1-1 1h-.89c-.46 1.12-1.45 2-3.61 2-.55 0-1-.45-1-1s.45-1 1-1c1.9 0 2-.72 2-2.98v-.02c0-2.07-1.76-3-3.5-3s-3.5.93-3.5 3c0 3.67 1.02 4.65 1.92 5.51l.29.28c.24.24.34.58.27.9l-.5 2.5c-.08.39-.39.7-.78.78-3.45.7-5.73 1.72-6.2 2.08V26h17v-.94c-.62-.51-2.54-1.47-6.16-2.08a1 1 0 0 1-.82-.79l-.2-1c-.11-.54.24-1.07.78-1.18.54-.11 1.07.24 1.18.78l.07.33c4.44.83 6.13 2.11 6.56 2.5v.01ZM27 4h-6c-.55 0-1 .45-1 1v3c0 .55.45 1 1 1h1v2h.5l2-2H27c.55 0 1-.45 1-1V5c0-.55-.45-1-1-1Z"/></svg>