<svg xmlns="http://www.w3.org/2000/svg" viewBox="0 0 32 32"><path d="M28 23.92V26a2 2 0 0 1-2 2H6a2 2 0 0 1-2-2v-2.08c0-.56.25-1.11.67-1.5.09-.09.2-.2.33-.32 1.08-1.09 3.28-3.31 7.69-4l.28-1.12c-.32-.25-.55-.45-.71-.63-.61-.66-1.07-1.48-1.42-2.35h-.85c-.55 0-1-.45-1-1v-3c0-.55.45-1 1-1h.05c.25-3 2.56-5 5.95-5s5.71 2 5.95 5h.05c.55 0 1 .45 1 1v3c0 .55-.45 1-1 1h-.65c-.59 1.17-1.7 2-3.85 2-.55 0-1-.45-1-1s.45-1 1-1c.79 0 1.34-.12 1.71-.42-.12-.17-.21-.36-.21-.58v-3c0-.54.43-.98.97-.99C19.65 6.23 16.88 6 15.99 6c-.89 0-3.66.23-3.97 3.01.54.02.97.45.97.99v3c0 .2-.08.38-.18.54.24.54.54 1.05.92 1.46.03.03.16.16.49.42.49.38.77.96.77 1.58 0 .08 0 .16-.03.24l-.5 2c-.1.41-.44.71-.86.75-4.17.47-6.21 2.52-7.19 3.51-.15.15-.29.29-.4.39l-.03 2.1H26v-2.08l-.13-.13c-.94-.86-3.45-3.13-7.53-3.81-.39-.07-.71-.36-.81-.74l-.12-.5a.995.995 0 0 1 .73-1.21.99.99 0 0 1 1.17.6c4.29.9 6.98 3.35 7.9 4.18l.14.12c.42.37.66.91.66 1.48l-.01.02Z"/></svg>