<svg xmlns="http://www.w3.org/2000/svg" viewBox="0 0 32 32"><path d="M4 7c0-.55.45-1 1-1h1.18C6.59 4.84 7.69 4 9 4c1.31 0 2.4.84 2.82 2H27c.55 0 1 .45 1 1s-.45 1-1 1H11.82A2.99 2.99 0 0 1 9 10c-1.31 0-2.4-.84-2.82-2H5c-.55 0-1-.45-1-1Zm23 8h-3.18A2.99 2.99 0 0 0 21 13c-1.31 0-2.4.84-2.82 2H5c-.55 0-1 .45-1 1s.45 1 1 1h13.18c.41 1.16 1.51 2 2.82 2 1.31 0 2.4-.84 2.82-2H27c.55 0 1-.45 1-1s-.45-1-1-1Zm0 9h-9.18A2.99 2.99 0 0 0 15 22c-1.31 0-2.4.84-2.82 2H5c-.55 0-1 .45-1 1s.45 1 1 1h7.18c.41 1.16 1.51 2 2.82 2 1.31 0 2.4-.84 2.82-2H27c.55 0 1-.45 1-1s-.45-1-1-1Z"/></svg>