<svg xmlns="http://www.w3.org/2000/svg" viewBox="0 0 32 32"><path d="M16 18.02c4.41 0 8-3.59 8-8.01S20.41 2 16 2s-8 3.59-8 8.01 3.59 8.01 8 8.01Zm-6-8.01c0-.74.14-1.44.38-2.09l1.34.77c-.13.42-.22.86-.22 1.32 0 .46.09.9.22 1.32l-1.34.77c-.24-.65-.38-1.36-.38-2.09Zm6-2.5a2.5 2.5 0 0 1 0 5 2.5 2.5 0 0 1 0-5Zm6 2.5c0 .74-.14 1.44-.38 2.09l-1.34-.77c.13-.42.22-.86.22-1.32 0-.62-.13-1.21-.35-1.74l1.3-.75c.35.76.55 1.6.55 2.5v-.01Zm-10.62 3.83 1.33-.77A4.5 4.5 0 0 0 15 14.4v1.53a5.95 5.95 0 0 1-3.62-2.09ZM17 15.93V14.4c.89-.2 1.68-.68 2.29-1.33l1.33.77A5.997 5.997 0 0 1 17 15.93Zm3.32-10.07-1.36.79c-.55-.49-1.22-.85-1.96-1.02V4.1c1.3.22 2.45.85 3.32 1.76ZM15 4.1v1.53c-.89.2-1.68.68-2.29 1.33l-1.33-.77A5.95 5.95 0 0 1 15 4.1Zm0 20.94v-2.63l-.3.29a.996.996 0 0 1-1.41 0c-.39-.39-.39-1.03 0-1.42l2.02-2c.19-.19.46-.26.71-.29a1 1 0 0 1 .71.3l1.98 2c.39.39.39 1.03 0 1.42-.19.19-.45.29-.7.29-.25 0-.51-.1-.71-.3l-.29-.29v2.64c0 .55-.45 1-1 1s-1-.45-1-1l-.01-.01Zm8-.04c0 .55-.45 1-1 1h-1v3c0 .55-.45 1-1 1h-8c-.55 0-1-.45-1-1v-3h-1c-.55 0-1-.45-1-1s.45-1 1-1h2c.55 0 1 .45 1 1v3h6v-3c0-.55.45-1 1-1h2c.55 0 1 .45 1 1Z"/></svg>