<svg xmlns="http://www.w3.org/2000/svg" viewBox="0 0 32 32"><path d="M16 4C9.38 4 4 9.38 4 16s5.38 12 12 12 12-5.38 12-12S22.62 4 16 4Zm9.95 11h-2.21a7.79 7.79 0 0 0-1.56-3.76l1.56-1.56A9.981 9.981 0 0 1 25.95 15ZM16 21.81c-3.2 0-5.81-2.61-5.81-5.81 0-3.2 2.61-5.81 5.81-5.81 3.2 0 5.81 2.61 5.81 5.81 0 3.2-2.61 5.81-5.81 5.81Zm4.76-11.98A7.735 7.735 0 0 0 17 8.27V6.06c2.01.2 3.84 1 5.32 2.21l-1.56 1.56ZM15 8.27a7.79 7.79 0 0 0-3.76 1.56L9.68 8.27A9.981 9.981 0 0 1 15 6.06v2.21Zm-3.76 13.91c1.07.83 2.36 1.38 3.76 1.56v2.21c-2.01-.2-3.84-1-5.32-2.21l1.56-1.56ZM17 23.74a7.79 7.79 0 0 0 3.76-1.56l1.56 1.56A9.981 9.981 0 0 1 17 25.95v-2.21ZM8.26 9.68l1.56 1.56A7.735 7.735 0 0 0 8.26 15H6.05c.2-2.01 1-3.84 2.21-5.32ZM6.05 17h2.21c.18 1.4.74 2.69 1.56 3.76l-1.56 1.56A9.981 9.981 0 0 1 6.05 17Zm17.69 5.32-1.56-1.56A7.735 7.735 0 0 0 23.74 17h2.21c-.2 2.01-1 3.84-2.21 5.32Z"/></svg>