<svg xmlns="http://www.w3.org/2000/svg" viewBox="0 0 32 32"><path d="M9 9c-3.86 0-7 3.14-7 7s3.14 7 7 7 7-3.14 7-7-3.14-7-7-7Zm5 7c0 .55-.11 1.07-.28 1.57l-.88-.51c.09-.34.16-.69.16-1.06 0-.5-.1-.98-.27-1.42l.88-.51c.25.6.39 1.25.39 1.93Zm-5 2c-1.1 0-2-.9-2-2s.9-2 2-2 2 .9 2 2-.9 2-2 2Zm-5-2c0-.55.11-1.07.28-1.57l.88.51c-.09.34-.16.69-.16 1.06 0 .37.07.72.16 1.06l-.88.51C4.11 17.07 4 16.55 4 16Zm7.55-3.06c-.45-.37-.97-.65-1.55-.8V11.1c.95.19 1.8.66 2.47 1.31l-.92.53ZM8 11.1v1.04c-.71.18-1.35.55-1.85 1.06l-.87-.5c.71-.79 1.64-1.37 2.72-1.59v-.01Zm-2.72 8.2.87-.5c.5.51 1.14.87 1.85 1.06v1.04c-1.08-.22-2.02-.8-2.72-1.59v-.01ZM10 20.89v-1.04c.71-.18 1.35-.55 1.85-1.06l.87.5c-.71.79-1.64 1.37-2.72 1.59v.01Zm20-4.85V16c0-3.31-2.69-6-6-6s-5.97 2.66-6 5.94V16c0 3.31 2.69 6 6 6s5.97-2.66 6-5.94v-.02ZM24 12c1.97 0 3.61 1.44 3.93 3.32L25 16.39v-2.21a1.005 1.005 0 0 0-1.35-.94l-3.35 1.22c.6-1.44 2.03-2.46 3.69-2.46H24Zm0 8c-1.97 0-3.61-1.44-3.93-3.32L23 15.61v2.21c0 .33.16.63.43.82a.988.988 0 0 0 .91.12l3.35-1.22A4.005 4.005 0 0 1 24 20Z"/></svg>