<svg xmlns="http://www.w3.org/2000/svg" viewBox="0 0 32 32"><path d="M24 29H8c-1.1 0-2-.9-2-2v-5c0-.36.19-.69.51-.87.31-.18.7-.17 1.01.01.34.21.97.36 1.48.36a2.5 2.5 0 0 0 0-5c-.51 0-1.01.16-1.43.45A.997.997 0 0 1 6 16.13V11c0-1.1.9-2 2-2h3.75c-.17-.47-.25-.98-.25-1.5C11.5 5.02 13.52 3 16 3s4.5 2.02 4.5 4.5c0 .52-.09 1.03-.25 1.5H24c1.1 0 2 .9 2 2v16c0 1.1-.9 2-2 2ZM8 23.4V27h16V11h-5.55c-.41 0-.77-.25-.93-.62a.987.987 0 0 1 .23-1.09 2.5 2.5 0 1 0-3.5 0c.29.28.38.72.23 1.09-.15.37-.52.62-.93.62H8v3.61A4.507 4.507 0 0 1 13.5 19c0 2.48-2.02 4.5-4.5 4.5-.29 0-.64-.03-1-.1Z"/></svg>