<svg xmlns="http://www.w3.org/2000/svg" viewBox="0 0 32 32"><path d="m5.33 13.94-.33.12A.997.997 0 0 0 5.32 16c.11 0 .22-.02.33-.06l2.67-.93c.52-.18.8-.75.62-1.27l-.93-2.67c-.18-.52-.75-.8-1.27-.62-.52.18-.8.75-.62 1.27l.15.42C4.71 11.61 4 11.19 4 10.37c0-1.47 2.93-3.11 7-3.34V18H8c-.55 0-1 .45-1 1v6c0 .55.45 1 1 1h3v1.33c0 .36.14.69.39.94l1.33 1.33c.25.25.59.39.94.39h4.67c.35 0 .69-.14.94-.39l1.33-1.33c.25-.25.39-.58.39-.94V26h3c.55 0 1-.45 1-1v-6c0-.55-.45-1-1-1h-3V7.03c4.07.24 7 1.87 7 3.34 0 1.75-3.24 2.62-4 2.62-.55 0-1 .45-1 1s.45 1 1 1c1.27 0 6-1.16 6-4.62 0-2.83-3.88-5.09-9-5.35V3c0-.55-.45-1-1-1s-1 .45-1 1v15h-6V3c0-.55-.45-1-1-1s-1 .45-1 1v2.03c-5.12.26-9 2.52-9 5.35 0 2.17 1.83 3.03 3.33 3.57l.01-.01ZM13 26h6v1.06l-.94.94h-4.11l-.94-.94V26H13Zm10-6v4H9v-4h14Z"/></svg>