<svg xmlns="http://www.w3.org/2000/svg" viewBox="0 0 32 32"><path d="M30 10.38c0-2.83-3.88-5.09-9-5.35V3c0-.55-.45-1-1-1s-1 .45-1 1v15h-6V3c0-.55-.45-1-1-1s-1 .45-1 1v2.03c-5.12.26-9 2.52-9 5.35C2 13.85 6.73 15 8 15c.55 0 1-.45 1-1s-.45-1-1-1c-.76 0-4-.88-4-2.62 0-1.47 2.93-3.11 7-3.34v10.97H8c-.55 0-1 .45-1 1v6c0 .55.45 1 1 1h3v1.33c0 .36.14.69.39.94l1.33 1.33c.25.25.59.39.94.39h4.67c.35 0 .69-.14.94-.39l1.33-1.33c.25-.25.39-.59.39-.94v-1.33h3c.55 0 1-.45 1-1v-6c0-.55-.45-1-1-1h-3V7.03c4.07.24 7 1.87 7 3.34 0 .82-.71 1.24-2.27 1.77l.15-.42a.993.993 0 0 0-.62-1.27.993.993 0 0 0-1.27.62l-.93 2.67c-.18.52.09 1.09.62 1.27l2.67.93c.11.04.22.06.33.06a.997.997 0 0 0 .32-1.94l-.33-.12c1.5-.53 3.33-1.4 3.33-3.57l.01.01ZM19 27.06l-.94.94h-4.11l-.94-.94V26h6v1.06H19ZM23 20v4H9v-4h14Z"/></svg>