<svg xmlns="http://www.w3.org/2000/svg" viewBox="0 0 32 32"><path d="M20.34 11.02c.34 0 .62.28.62.62v8.72c0 .34-.28.62-.62.62H11.7c-.34 0-.62-.28-.62-.62v-8.72c0-.34.28-.62.62-.62h8.64Zm-4.33 18.97c-3.58 0-7.17-1.36-9.9-4.09-5.45-5.46-5.45-14.34 0-19.8C11.56.64 20.45.64 25.9 6.1c5.45 5.46 5.46 14.33 0 19.79a13.943 13.943 0 0 1-9.9 4.09l.01.01Zm0-25.98c-3.07 0-6.14 1.17-8.48 3.51-4.68 4.68-4.68 12.29 0 16.96 4.68 4.67 12.29 4.68 16.96 0 4.67-4.68 4.68-12.29 0-16.96a11.955 11.955 0 0 0-8.48-3.51Z"/></svg>