<svg xmlns="http://www.w3.org/2000/svg" viewBox="0 0 32 32"><path d="M23 27.99c-1.79 0-3.59-.68-4.95-2.05a7.007 7.007 0 0 1 0-9.9A6.96 6.96 0 0 1 23 13.99c1.87 0 3.63.73 4.95 2.05a7.007 7.007 0 0 1 0 9.9A7.015 7.015 0 0 1 23 27.99Zm0-12c-1.34 0-2.59.52-3.54 1.46a5.003 5.003 0 0 0 0 7.07c1.95 1.95 5.12 1.95 7.08 0a5.003 5.003 0 0 0 0-7.07c-.94-.94-2.2-1.46-3.54-1.46Zm1 7.95v-2.95c0-.55-.45-1-1-1s-1 .45-1 1v2.95c0 .55.45 1 1 1s1-.45 1-1ZM23 17c-.55 0-1 .45-1 1s.45 1 1 1 1-.45 1-1-.45-1-1-1ZM7.99 18.99H5.78a.765.765 0 0 1-.79-.75V5.77a.77.77 0 0 1 .76-.78h2.24v-3h-2.8c-1.81.04-3.24 1.51-3.2 3.27v13.43c-.06 1.76 1.35 3.24 3.16 3.3h2.83v-3.01l.01.01Zm6 2.01c0-2.14.75-4.1 2-5.64V5.27c.04-1.76-1.39-3.23-3.2-3.27h-2.8v3h2.24c.43.01.77.36.76.78v12.47c0 .42-.36.76-.79.75H9.99v3h2.83c.43-.02.79-.14 1.16-.3V21h.01Z"/></svg>