<svg xmlns="http://www.w3.org/2000/svg" viewBox="0 0 32 32"><path d="M27.05 14.42c-.6-.37-1.33-.41-1.96-.09L5.12 24.21c-.85.42-1.28 1.32-1.06 2.25.22.92 1 1.55 1.96 1.55h19.97c1.11 0 2.01-.9 2.01-2v-9.88c0-.69-.35-1.33-.95-1.7v-.01ZM25.98 26h-3.99v-.5c0-.55-.45-1-1-1s-1 .45-1 1v.5h-4v-4.94l4.16-2.05c.17.29.48.49.84.49.55 0 1-.45 1-1v-.4l4-1.98V26h-.01Zm-4-4.5v1c0 .55-.45 1-1 1s-1-.45-1-1v-1c0-.55.45-1 1-1s1 .45 1 1ZM14 5c-1.92 0-3.49 1.57-3.49 3.5S12.07 12 14 12c1.93 0 3.49-1.57 3.49-3.5S15.93 5 14 5Zm0 4.85c-.74 0-1.34-.61-1.34-1.35 0-.74.6-1.35 1.34-1.35.74 0 1.34.61 1.34 1.35 0 .74-.6 1.35-1.34 1.35ZM23.72 8c-2.1-3.76-5.74-6.01-9.72-6.01-3.98 0-7.62 2.25-9.72 6.01L4 8.49l.28.49c2.1 3.76 5.74 6.01 9.72 6.01 3.98 0 7.62-2.25 9.72-6.01l.28-.49-.28-.49ZM14 12.99c-3.09 0-5.94-1.67-7.72-4.5 1.78-2.83 4.62-4.5 7.72-4.5 3.1 0 5.94 1.67 7.72 4.5-1.78 2.83-4.63 4.5-7.72 4.5Z"/></svg>