<svg xmlns="http://www.w3.org/2000/svg" viewBox="0 0 32 32"><path d="M23.01 16.01c1.87 0 3.63-.73 4.95-2.05a6.96 6.96 0 0 0 2.05-4.95c0-1.87-.73-3.63-2.05-4.95a6.96 6.96 0 0 0-4.95-2.05c-1.87 0-3.63.73-4.95 2.05a7.007 7.007 0 0 0 0 9.9 6.96 6.96 0 0 0 4.95 2.05ZM19.47 5.47c.95-.94 2.2-1.47 3.54-1.47 1.34 0 2.59.52 3.54 1.47.95.95 1.47 2.2 1.47 3.54 0 1.34-.52 2.59-1.47 3.54-.95.95-2.2 1.47-3.54 1.47-1.34 0-2.59-.52-3.54-1.47a5.003 5.003 0 0 1 0-7.07v-.01Zm2.54 6.51V9.01c0-.55.45-1 1-1s1 .45 1 1v2.97c0 .55-.45 1-1 1s-1-.45-1-1Zm0-5.97c0-.55.45-1 1-1s1 .45 1 1-.45 1-1 1-1-.45-1-1Zm2 20.03c0 .55-.45 1-1 1h-3.56l1.27 1.26c.39.39.39 1.02 0 1.41-.2.2-.45.3-.71.3-.26 0-.51-.1-.71-.29l-2.99-2.97a.996.996 0 0 1 0-1.41l2.97-3.02c.39-.39 1.02-.4 1.42-.01.39.39.4 1.02.01 1.41l-1.29 1.32h3.61c.55 0 1 .45 1 1h-.02ZM12.54 4H5.48c-.81 0-1.47.67-1.47 1.5l.02 18.97c0 .34.17.66.46.84l3.99 2.55c.16.1.35.16.54.16.19 0 .37-.05.54-.16l3.99-2.55c.29-.18.46-.5.46-.84V5.5c0-.83-.66-1.5-1.47-1.5Zm-.53 12.23-5.98 3.18v-1.98l5.98-3.18v1.98Zm0-4.24-5.99 3.18v-1.98l5.99-3.18v1.98Zm0-5.98v1.74l-5.99 3.19V6h5.99v.01ZM9.02 25.84l-2.99-1.91v-2.25l5.98-3.18v5.43l-2.99 1.91Zm20.7-5.51c.39.39.38 1.02 0 1.41l-2.99 2.97c-.2.19-.45.29-.71.29-.26 0-.51-.1-.71-.3a.996.996 0 0 1 0-1.41l1.27-1.26h-3.56c-.55 0-1-.45-1-1s.45-1 1-1h3.61l-1.29-1.31a.996.996 0 0 1 .01-1.41c.39-.39 1.03-.38 1.42.01l2.97 3.02-.02-.01Z"/></svg>