<svg xmlns="http://www.w3.org/2000/svg" viewBox="0 0 32 32"><path d="M27.82 6H4.18C2.98 6 2 6.9 2 8v16c0 1.1.98 2 2.18 2h23.64c1.2 0 2.18-.9 2.18-2V8c0-1.1-.98-2-2.18-2ZM4.18 8h23.64c.11 0 .17.04.18.01V10H3.99V8.06s.07-.06.2-.06h-.01Zm23.64 16H4.18c-.08 0-.14-.02-.17-.02 0 0-.01 0-.02.01V12H28v11.93s-.06.07-.19.07h.01ZM18 21.5c0 .28-.22.5-.5.5h-11c-.28 0-.5-.22-.5-.5s.22-.5.5-.5h11c.28 0 .5.22.5.5Zm0-4.5c0 .28-.22.5-.5.5h-2.66l-.88 2.19c-.07.18-.23.3-.42.31h-.04c-.17 0-.34-.09-.43-.24l-2.48-4.13-.63 1.56c-.08.19-.26.31-.46.31h-3c-.28 0-.5-.22-.5-.5s.22-.5.5-.5h2.66l.88-2.19c.07-.18.23-.3.42-.31.19-.01.37.08.47.24l2.48 4.13.63-1.56c.08-.19.26-.31.46-.31h3c.28 0 .5.22.5.5Zm4-3h4v1.2l-4 .8v-2Zm0 5.2 4-.8v2L24 22l-2-1.6v-1.2Zm0-2.4 4-.8v1.6l-4 .8v-1.6Z"/></svg>