<svg xmlns="http://www.w3.org/2000/svg" viewBox="0 0 32 32"><path d="M28 11c0 .55-.45 1-1 1h-1v1c0 .55-.45 1-1 1s-1-.45-1-1v-1h-1c-.55 0-1-.45-1-1s.45-1 1-1h1V9c0-.55.45-1 1-1s1 .45 1 1v1h1c.55 0 1 .45 1 1ZM5 9c.28 0 .55-.11.75-.34C7.8 6.33 10.81 5 14 5c2 0 3.93.53 5.65 1.52l-1.76.59c-.52.17-.81.74-.63 1.27.14.42.53.68.95.68.1 0 .21-.02.32-.05l3.79-1.26c.52-.17.81-.74.63-1.26L21.69 2.7a.992.992 0 0 0-1.26-.63c-.52.17-.81.74-.63 1.26l.41 1.23a13.22 13.22 0 0 0-6.2-1.55c-3.76 0-7.32 1.58-9.75 4.34a.989.989 0 0 0 .09 1.41c.19.17.43.25.66.25L5 9Zm12 11c0 1.65-1.35 3-3 3s-3-1.35-3-3 1.35-3 3-3 3 1.35 3 3Zm-2 0c0-.55-.45-1-1-1s-1 .45-1 1 .45 1 1 1 1-.45 1-1Zm8.83 1.44c.16.24.21.53.14.81-.05.21-.36 1.14-.65 1.84-.27.66-.54 1.14-.67 1.37a1.002 1.002 0 0 1-1.47.28c-.42-.32-1.03-.61-1.53-.1-.5.5-.22 1.11.1 1.53.17.23.24.52.19.8a.99.99 0 0 1-.47.67c-.19.11-.83.46-1.53.75-.7.29-1.48.52-1.68.58a1.023 1.023 0 0 1-.81-.14c-.24-.16-.39-.42-.43-.7-.07-.53-.3-1.16-1.01-1.16s-.94.63-1.01 1.16c-.04.28-.19.54-.43.7-.24.16-.53.21-.81.14-.27-.07-.97-.24-1.66-.53-.69-.29-1.31-.66-1.52-.78-.25-.15-.44-.4-.49-.68-.05-.28 0-.58.17-.81.32-.42.61-1.03.1-1.53-.5-.5-1.11-.22-1.53.1-.23.18-.52.25-.8.19a.99.99 0 0 1-.67-.47c-.1-.18-.47-.84-.76-1.53-.31-.75-.53-1.51-.57-1.68-.07-.28-.02-.57.14-.81.16-.24.42-.39.7-.43.53-.07 1.15-.3 1.15-1.01s-.63-.94-1.15-1.01a.988.988 0 0 1-.7-.43c-.16-.24-.21-.53-.14-.81.04-.17.27-.9.57-1.63.29-.7.65-1.4.76-1.58.15-.25.39-.42.67-.47.28-.05.57.02.8.19.42.32 1.03.6 1.53.1s.22-1.11-.1-1.53a1.002 1.002 0 0 1 .28-1.47c.19-.11.85-.43 1.54-.72.67-.28 1.46-.56 1.67-.61.28-.07.57-.02.81.14.24.16.39.42.43.7.07.53.3 1.15 1.01 1.15s.94-.63 1.01-1.15c.04-.28.19-.54.43-.7.24-.16.53-.21.81-.14.2.05.87.25 1.59.55.7.29 1.45.68 1.62.78.25.15.42.39.47.67.05.28-.02.57-.19.8-.32.42-.6 1.03-.1 1.53s1.11.22 1.53-.1c.23-.17.52-.24.8-.19.28.05.53.23.67.47.12.2.51.91.8 1.61.29.69.47 1.35.53 1.6.07.28.02.57-.14.81-.16.24-.42.39-.7.43-.53.07-1.15.3-1.15 1.01s.63.94 1.16 1.01c.28.04.54.19.7.43h-.01ZM19.98 20c0-1.22.67-2.19 1.77-2.68-.05-.13-.1-.27-.15-.4-.07-.17-.15-.33-.22-.49-1.13.43-2.29.21-3.14-.65-.85-.86-1.08-2.01-.65-3.13-.16-.07-.33-.15-.49-.22-.14-.06-.27-.11-.4-.16-.49 1.09-1.46 1.75-2.68 1.75-1.22 0-2.17-.65-2.67-1.73-.16.06-.32.13-.49.19-.14.06-.28.12-.41.18.41 1.12.19 2.26-.66 3.11-.85.85-2 1.08-3.12.65-.07.15-.13.3-.2.45-.06.15-.12.3-.17.44 1.09.49 1.75 1.46 1.75 2.67s-.66 2.19-1.76 2.68a9.555 9.555 0 0 0 .38.9c1.13-.43 2.28-.21 3.14.65.86.86 1.08 2.03.64 3.17.14.07.29.14.44.2.14.06.29.11.45.17.49-1.11 1.47-1.79 2.69-1.79s2.19.66 2.68 1.76c.16-.06.32-.12.49-.19.14-.06.28-.12.41-.18-.43-1.12-.21-2.28.65-3.14.86-.86 2.01-1.07 3.14-.65.04-.08.07-.16.11-.25.09-.21.17-.44.25-.65-1.09-.5-1.75-1.46-1.75-2.67l-.03.01Z"/></svg>