<svg xmlns="http://www.w3.org/2000/svg" viewBox="0 0 32 32"><path fill-rule="evenodd" clip-rule="evenodd" d="M12.54 4H5.48c-.81 0-1.47.67-1.47 1.5l.02 18.96c0 .34.18.66.46.84l3.99 2.54c.16.1.35.16.54.16.19 0 .37-.05.54-.16l3.99-2.54c.29-.18.46-.5.46-.84V5.5c0-.83-.66-1.5-1.47-1.5Zm-.53 12.22L6.02 19.4v-1.97l5.99-3.18v1.98-.01Zm0-4.24-5.99 3.18v-1.98L12.01 10v1.98Zm0-5.98v1.74l-5.99 3.18V6h5.99ZM9.02 25.81 6.03 23.9v-2.24l5.98-3.18v5.42l-2.99 1.91Zm20.99-12.83v7.03c0 .55-.45 1-1 1H17.02c-.55 0-1-.45-1-1s.45-1 1-1h10.99v-5.03h-4.59l1.29 1.27c.39.39.4 1.02 0 1.41-.2.2-.45.3-.71.3-.26 0-.51-.1-.71-.29l-3-2.97a.987.987 0 0 1 0-1.41l2.97-3.02c.39-.39 1.02-.4 1.42-.01.39.39.4 1.02.01 1.41l-1.28 1.3h5.6c.55 0 1 .45 1 1v.01Zm-13.98 0c0-.55.45-1 1-1s1 .45 1 1-.45 1-1 1-1-.45-1-1Z"/></svg>