<svg xmlns="http://www.w3.org/2000/svg" viewBox="0 0 32 32"><path d="M17.33 9.72a4.504 4.504 0 0 1-1.01-4.84l2.61 2.61 2.56-2.56-2.61-2.61c.53-.21 1.09-.31 1.65-.31 1.21 0 2.34.47 3.19 1.32a4.514 4.514 0 0 1 1.17 4.36l-.13.5 4.74 4.74c.71.7.71 1.85 0 2.56-.35.35-.82.53-1.28.53-.46 0-.93-.18-1.28-.53l-4.74-4.74-.5.13c-.38.1-.78.15-1.17.15-1.21 0-2.34-.47-3.19-1.32l-.01.01Zm5.68 15.32h-3.6l1.29-1.31a.996.996 0 0 0-.01-1.41.996.996 0 0 0-1.41.01l-2.96 3.02c-.39.39-.38 1.02 0 1.41l2.99 2.97c.2.19.45.29.7.29.25 0 .51-.1.71-.3a.996.996 0 0 0 0-1.41l-1.27-1.26h3.56c.55 0 1-.45 1-1s-.45-1-1-1v-.01Zm-9-19.53v18.96c0 .34-.17.66-.46.84l-3.99 2.55c-.16.1-.35.16-.54.16-.19 0-.37-.05-.54-.16l-3.99-2.55a.985.985 0 0 1-.46-.84L4.01 5.51c0-.83.66-1.5 1.47-1.5h7.05c.81 0 1.47.67 1.47 1.5h.01Zm-2 8.75-5.98 3.18v1.98l5.98-3.18v-1.98Zm0-4.24L6.03 13.2v1.98L12.01 12v-1.98ZM6.03 6.01v4.92l5.99-3.18V6.01H6.03Zm5.99 17.91V18.5l-5.98 3.18v2.24l2.99 1.91 2.99-1.91Zm14.74-6.62c-.39-.39-1.02-.4-1.42-.01a.996.996 0 0 0-.01 1.41l1.29 1.32h-3.6c-.55 0-1 .45-1 1s.45 1 1 1h3.56l-1.27 1.26a.996.996 0 0 0 0 1.41.992.992 0 0 0 1.41.01l2.99-2.97a.996.996 0 0 0 0-1.41l-2.96-3.02h.01Z"/></svg>