<svg xmlns="http://www.w3.org/2000/svg" viewBox="0 0 32 32"><path d="M18 17c-1.65 0-3 1.35-3 3s1.35 3 3 3 3-1.35 3-3-1.35-3-3-3Zm0 4c-.55 0-1-.45-1-1s.45-1 1-1 1 .45 1 1-.45 1-1 1Zm9.13-2.01c.28-.04.54-.19.7-.43.16-.24.21-.53.14-.81-.04-.17-.27-.9-.57-1.63-.29-.71-.66-1.41-.76-1.58a.981.981 0 0 0-.67-.47c-.28-.05-.57.02-.8.19-.42.33-1.03.6-1.53.1s-.22-1.11.1-1.53c.17-.23.24-.52.19-.8a.99.99 0 0 0-.47-.67c-.19-.11-.85-.43-1.54-.72-.66-.28-1.46-.55-1.67-.61-.28-.07-.57-.02-.81.14-.24.16-.39.42-.43.7-.07.53-.3 1.15-1.01 1.15s-.94-.63-1.01-1.15c-.04-.28-.19-.54-.43-.7-.24-.16-.53-.21-.81-.14-.18.04-.85.24-1.6.55-.69.28-1.44.68-1.61.78-.25.15-.42.39-.47.67-.05.28.02.57.19.8.32.42.6 1.03.1 1.53s-1.11.22-1.53-.1c-.23-.17-.52-.24-.8-.19a.99.99 0 0 0-.67.47c-.09.16-.5.89-.8 1.61-.3.71-.48 1.41-.53 1.6-.07.28-.02.57.14.81.16.24.42.39.7.43.53.07 1.15.3 1.15 1.01s-.63.94-1.16 1.01c-.28.04-.54.19-.7.43-.16.24-.21.53-.14.81.05.21.36 1.14.65 1.84.27.65.54 1.14.67 1.37.15.25.39.42.67.47.28.06.57-.01.8-.19.42-.33 1.03-.61 1.53-.1.5.5.22 1.11-.1 1.53-.17.23-.24.52-.19.8.05.28.23.53.47.67.19.11.83.46 1.53.75.7.29 1.48.52 1.68.58a1.023 1.023 0 0 0 .81-.14c.24-.16.39-.42.43-.7.07-.53.3-1.16 1.01-1.16s.94.63 1.01 1.16c.04.28.22.53.46.69.24.16.56.21.83.13.23-.06.94-.24 1.61-.52.69-.28 1.31-.66 1.55-.8.25-.15.42-.39.47-.67.05-.28-.02-.57-.19-.8-.32-.42-.61-1.03-.1-1.53.5-.5 1.11-.22 1.53.1a1.002 1.002 0 0 0 1.47-.28c.1-.18.47-.84.76-1.53.31-.74.53-1.51.57-1.67.07-.28.02-.57-.14-.81-.16-.24-.42-.39-.7-.43-.53-.07-1.15-.3-1.15-1.01s.63-.94 1.15-1.01h.02Zm-1.58 4.17c-.06.14-.12.28-.19.42-1.13-.43-2.28-.21-3.14.65-.87.87-1.08 2.03-.64 3.17-.14.07-.29.14-.44.2-.15.06-.3.12-.45.17-.49-1.11-1.47-1.79-2.69-1.79s-2.19.66-2.68 1.76c-.16-.06-.32-.12-.49-.19-.14-.06-.28-.12-.41-.18.43-1.12.21-2.28-.65-3.14-.86-.86-2.01-1.08-3.14-.65-.04-.08-.07-.16-.11-.25-.09-.21-.17-.44-.25-.65 1.09-.5 1.75-1.46 1.75-2.67s-.67-2.19-1.77-2.68c.05-.13.1-.26.15-.4.07-.17.15-.33.22-.49 1.12.43 2.28.21 3.14-.65.86-.86 1.08-2.01.65-3.13.16-.07.33-.15.49-.22.14-.06.27-.11.4-.16.49 1.09 1.46 1.75 2.68 1.75 1.22 0 2.17-.65 2.67-1.73.16.06.32.13.49.19.14.06.28.12.41.18-.41 1.12-.19 2.26.66 3.11.85.85 2 1.08 3.12.66.07.15.13.3.2.46.06.15.12.3.17.44-1.09.49-1.75 1.46-1.75 2.67s.66 2.19 1.76 2.68c-.06.16-.12.32-.19.48l.03-.01ZM9.05 6.48l1.26-3.79c.17-.52.74-.81 1.27-.63.52.17.81.74.63 1.26l-.41 1.23A13.21 13.21 0 0 1 18 3.01c3.76 0 7.32 1.58 9.75 4.34.37.41.33 1.05-.09 1.41a.99.99 0 0 1-.66.25c-.28 0-.55-.11-.75-.34C24.2 6.34 21.19 5.01 18 5.01c-2 0-3.94.53-5.65 1.52l1.77.59a.996.996 0 0 1-.32 1.94c-.1 0-.21-.02-.32-.05L9.69 7.74a.992.992 0 0 1-.63-1.26h-.01ZM8 12H5c-.55 0-1-.45-1-1s.45-1 1-1h3c.55 0 1 .45 1 1s-.45 1-1 1Z"/></svg>