<svg xmlns="http://www.w3.org/2000/svg" viewBox="0 0 32 32"><path d="M12.53 4H5.47C4.66 4 4 4.67 4 5.5l.02 18.95c0 .34.17.66.46.84l3.99 2.55c.16.1.35.16.54.16.19 0 .37-.05.54-.16l3.99-2.55c.29-.18.46-.5.46-.84V5.5c0-.83-.66-1.5-1.47-1.5ZM12 16.41 6.01 19.4v-2.32L12 14.09v2.33-.01Zm0-4.5-5.99 3v-2.29l5.99-3v2.29ZM12 6v1.38l-5.99 3V6H12ZM9.01 25.81 6.02 23.9v-2.32L12 18.59v5.32l-2.99 1.91v-.01ZM22 28.5c-3.86 0-7-3.14-7-7 0-1.92.8-3.78 2.2-5.09a.996.996 0 0 1 1.41.04c.38.4.36 1.04-.04 1.41A4.961 4.961 0 0 0 17 21.5c0 2.76 2.24 5 5 5s5-2.24 5-5c0-2.42-1.72-4.43-4-4.9v1.08c0 .55-.45 1-1 1s-1-.45-1-1V14.5h1c3.86 0 7 3.14 7 7s-3.14 7-7 7Zm0-6c-.26 0-.51-.1-.71-.29l-2-2a.996.996 0 1 1 1.41-1.41l2 2a.996.996 0 0 1-.71 1.7H22Z"/></svg>