<svg xmlns="http://www.w3.org/2000/svg" viewBox="0 0 32 32"><path d="M16 19.96c-2.21 0-4-1.79-4-4s1.79-4 4-4 4 1.79 4 4-1.79 4-4 4Zm0-6c-1.1 0-2 .9-2 2s.9 2 2 2 2-.9 2-2-.9-2-2-2ZM14.08 28c-.06 0-.12 0-.18-.02-1.71-.31-3.36-1.01-4.79-2.02a.998.998 0 0 1-.42-.84c0-.33.18-.64.46-.82.2-.13.34-.22.5-.38a.99.99 0 0 0 .29-.71c0-.27-.1-.52-.29-.71-.38-.38-1.04-.38-1.41 0-.17.17-.22.22-.35.46a1.002 1.002 0 0 1-1.69.09c-1.08-1.53-1.89-3.4-2.19-5-.06-.32.04-.65.27-.88.23-.23.56-.34.88-.29l.1.02c.33.06.51.09.76.09.55 0 1-.45 1-1s-.45-1-1-1c-.36 0-.48 0-.72.08-.33.11-.69.04-.95-.19a1 1 0 0 1-.34-.91c.29-2.05 1.5-4.02 2.19-5.01.2-.28.52-.45.87-.42.34.02.65.21.82.51.14.24.18.28.32.43.44.44 1.06.41 1.44.03a.99.99 0 0 0 .29-.71c0-.27-.1-.52-.29-.71-.16-.17-.3-.25-.46-.36-.28-.18-.47-.5-.48-.83 0-.33.13-.66.4-.85 1.42-1.01 3.08-1.7 4.79-2.02a.998.998 0 0 1 1.17 1.12c-.04.32-.05.45-.06.75 0 .24.08.47.26.65.19.2.46.32.74.32.55 0 .99-.45 1-1.02 0-.17 0-.26-.02-.4l-.03-.34c-.03-.31.09-.62.33-.82.23-.21.54-.3.85-.24a12.2 12.2 0 0 1 4.78 2.01c.27.19.43.5.42.83 0 .33-.17.64-.44.82l-.12.08c-.16.1-.26.17-.4.31a.99.99 0 0 0-.29.71c0 .27.1.52.29.71.38.38 1.04.38 1.41 0 .12-.12.243-.283.37-.49.18-.29.48-.46.82-.47.33 0 .65.15.85.42 1.08 1.54 1.87 3.34 2.16 4.93.06.32-.04.65-.27.88-.23.23-.56.34-.87.29-.3-.05-.53-.08-.84-.08-.55 0-1 .45-1 1s.45 1 1 1c.36 0 .5 0 .72-.06.33-.1.69-.02.95.22s.38.58.31.93c-.3 1.61-1.1 3.48-2.16 4.98-.19.27-.51.43-.85.42-.34 0-.64-.19-.82-.47a2.667 2.667 0 0 0-.37-.49c-.38-.38-1.04-.38-1.41 0a.99.99 0 0 0-.29.71c0 .27.1.52.29.71.14.14.24.21.4.31l.12.08c.27.18.43.49.44.82 0 .33-.16.64-.42.83-1.41 1-3.06 1.69-4.78 2.01-.31.05-.62-.03-.85-.24-.23-.21-.35-.51-.33-.82l.03-.34c.01-.13.03-.23.02-.4 0-.57-.45-1.02-1-1.02-.28 0-.55.12-.74.32a.94.94 0 0 0-.26.65c.01.3.02.44.06.75.04.32-.07.64-.3.86-.19.18-.43.28-.69.28V28Zm-2.72-3c.54.28 1.1.52 1.68.71.08-.61.35-1.17.79-1.63.57-.59 1.36-.93 2.18-.93 1.48 0 2.73 1.11 2.96 2.56.58-.18 1.15-.42 1.69-.7-.38-.51-.58-1.13-.58-1.78 0-.8.31-1.56.88-2.12 1.03-1.03 2.76-1.14 3.9-.29.33-.6.61-1.23.82-1.84A3.006 3.006 0 0 1 23.01 16c0-1.53 1.17-2.82 2.67-2.99-.21-.6-.49-1.21-.81-1.8-1.15.86-2.88.74-3.91-.29-.57-.57-.88-1.32-.88-2.12 0-.65.2-1.27.58-1.78-.54-.28-1.11-.52-1.69-.7-.23 1.45-1.48 2.56-2.96 2.56-.82 0-1.61-.34-2.18-.93-.44-.46-.71-1.02-.79-1.63-.58.18-1.14.42-1.68.71.38.51.58 1.13.58 1.78 0 .8-.31 1.56-.88 2.12-1.03 1.03-2.77 1.14-3.92.28-.35.61-.64 1.23-.84 1.8A3 3 0 0 1 9.01 16c0 1.56-1.18 2.83-2.69 2.99.21.61.5 1.23.83 1.83 1.17-.88 2.88-.74 3.91.28.57.57.88 1.32.88 2.12 0 .65-.2 1.27-.58 1.78Z"/></svg>