<svg xmlns="http://www.w3.org/2000/svg" viewBox="0 0 32 32"><path d="M24.04 18.01c0 .55-.45 1-1 1h-3.57l1.27 1.26c.39.39.39 1.02 0 1.41-.2.2-.45.3-.71.3-.26 0-.51-.1-.71-.29l-2.99-2.97a.987.987 0 0 1 0-1.41l2.97-3.01c.39-.39 1.02-.4 1.42-.01.39.39.4 1.02.01 1.41l-1.29 1.31h3.61c.55 0 1 .45 1 1h-.01Zm-10-12.52v18.95c0 .34-.17.66-.46.84l-3.99 2.54c-.16.1-.35.16-.54.16-.19 0-.37-.05-.54-.16l-3.99-2.54a.985.985 0 0 1-.46-.84L4.04 5.48c0-.83.66-1.5 1.47-1.5h7.06c.81 0 1.47.67 1.47 1.5v.01Zm-2 8.74-5.99 3.18v1.98l5.99-3.18v-1.98Zm0-4.24-5.99 3.18v1.98l5.99-3.18V9.99Zm-6-4v4.92l5.99-3.18V5.99H6.04Zm5.99 17.91v-5.42l-5.98 3.18v2.24l2.99 1.91 2.99-1.91Zm17.72-11.6-2.97-3.01c-.39-.39-1.02-.4-1.42-.01a.996.996 0 0 0-.01 1.41L26.64 12h-3.61c-.55 0-1 .45-1 1s.45 1 1 1h3.57l-1.27 1.26a.996.996 0 0 0 0 1.41c.2.2.45.3.71.3.26 0 .51-.1.71-.29l2.99-2.97c.39-.39.4-1.02 0-1.41h.01Z"/></svg>