<svg xmlns="http://www.w3.org/2000/svg" viewBox="0 0 32 32"><path d="M12 19.5c0 1.65 1.35 3 3 3s3-1.35 3-3-1.35-3-3-3-3 1.35-3 3Zm2 0c0-.55.45-1 1-1s1 .45 1 1-.45 1-1 1-1-.45-1-1Zm-6.97 0c0 .71-.63.94-1.15 1.01-.28.04-.54.19-.7.43-.16.24-.21.53-.14.81a13.091 13.091 0 0 0 1.33 3.2c.15.25.39.42.67.47.28.06.57-.01.8-.19.42-.32 1.03-.6 1.53-.1s.22 1.11-.1 1.53a1.002 1.002 0 0 0 .28 1.47c.24.14.86.52 1.55.8.67.28 1.38.46 1.61.52.28.07.6.03.83-.13.24-.16.42-.41.46-.69.07-.53.3-1.16 1.01-1.16s.94.63 1.01 1.16c.04.28.19.54.43.7a1.023 1.023 0 0 0 .81.14c.2-.05.98-.29 1.68-.58s1.34-.64 1.53-.75c.25-.15.42-.39.47-.67.05-.28-.02-.57-.19-.8-.32-.42-.61-1.03-.1-1.53.5-.5 1.11-.22 1.53.1a1.002 1.002 0 0 0 1.47-.28c.14-.23.4-.71.67-1.37.29-.7.6-1.63.65-1.84.07-.28.02-.57-.14-.81-.16-.24-.42-.39-.7-.43-.53-.07-1.16-.3-1.16-1.01s.63-.94 1.15-1.01c.28-.04.54-.19.7-.43.16-.24.21-.53.14-.81-.05-.2-.23-.89-.53-1.6-.3-.72-.71-1.45-.8-1.61a.981.981 0 0 0-.67-.47c-.28-.05-.57.02-.8.19-.42.32-1.03.61-1.53.1-.5-.5-.22-1.11.1-1.53.17-.23.24-.52.19-.8a.99.99 0 0 0-.47-.67c-.17-.1-.93-.49-1.61-.78-.75-.31-1.42-.51-1.6-.55-.28-.07-.57-.02-.81.14-.24.16-.39.42-.43.7-.07.53-.3 1.15-1.01 1.15s-.94-.63-1.01-1.15c-.04-.28-.19-.54-.43-.7-.24-.16-.53-.21-.81-.14-.21.05-1 .33-1.67.61-.69.29-1.35.61-1.54.72-.25.15-.42.39-.47.67-.05.28.02.57.19.8.32.42.6 1.03.1 1.53s-1.11.22-1.53-.1c-.23-.17-.52-.24-.8-.19a.99.99 0 0 0-.67.47c-.1.17-.46.87-.76 1.58-.3.73-.53 1.46-.57 1.63-.07.28-.02.57.14.81.16.24.42.39.7.43.53.07 1.15.3 1.15 1.01h.02Zm.24 2.68c1.1-.49 1.76-1.46 1.76-2.68 0-1.21-.66-2.18-1.75-2.67a12.953 12.953 0 0 1 .37-.9c1.12.42 2.27.2 3.13-.66.85-.85 1.07-1.99.66-3.11.13-.06.27-.12.41-.18.16-.07.33-.13.49-.19.5 1.08 1.46 1.73 2.67 1.73s2.18-.66 2.68-1.75c.13.05.26.1.4.16.16.07.33.14.49.22-.42 1.12-.2 2.27.65 3.13.86.86 2.02 1.08 3.14.65.08.16.15.33.22.49.06.13.11.27.15.4-1.1.49-1.77 1.46-1.77 2.68 0 1.21.66 2.18 1.75 2.67-.08.22-.17.44-.25.65-.04.09-.07.17-.11.25-1.12-.43-2.28-.21-3.14.65-.86.86-1.08 2.01-.65 3.14-.13.06-.27.12-.41.18-.16.07-.33.13-.49.19-.49-1.1-1.46-1.76-2.68-1.76-1.22 0-2.2.67-2.69 1.79-.15-.05-.3-.11-.45-.17-.15-.06-.3-.13-.44-.2.44-1.13.23-2.3-.64-3.17-.86-.86-2.01-1.08-3.14-.65-.06-.13-.13-.28-.19-.42-.07-.16-.13-.32-.19-.48l.02.01ZM21 9.5c0-.55.45-1 1-1h1.59c-2.09-2.49-5.23-4-8.59-4-3.19 0-6.2 1.33-8.25 3.66-.37.41-1 .45-1.41.09-.41-.37-.45-1-.09-1.41C7.68 4.08 11.24 2.5 15 2.5s7.54 1.7 10 4.54V5.5c0-.55.45-1 1-1s1 .45 1 1v4c0 .55-.45 1-1 1h-4c-.55 0-1-.45-1-1Z"/></svg>