<svg xmlns="http://www.w3.org/2000/svg" viewBox="0 0 32 32"><path d="M16 2C8.28 2 2 8.28 2 16s6.28 14 14 14 14-6.28 14-14S23.72 2 16 2Zm0 26C9.38 28 4 22.62 4 16S9.38 4 16 4s12 5.38 12 12-5.38 12-12 12Zm4.71-15.79-4 4c-.2.2-.45.29-.71.29-.26 0-.51-.1-.71-.29l-4-4a.996.996 0 0 1 0-1.41l4-4a.996.996 0 0 1 1.41 0l4 4c.39.39.39 1.02 0 1.41h.01Zm-6 6.09c.19.19.29.44.29.71v5c0 .4-.24.77-.62.92a.995.995 0 0 1-1.09-.21l-6-6a.99.99 0 0 1-.29-.71v-5c0-.4.24-.77.62-.92.38-.16.8-.07 1.09.22l6 6v-.01ZM25 13.01v5c0 .27-.11.52-.29.71l-6 6c-.19.19-.45.29-.71.29-.13 0-.26-.02-.38-.08-.37-.15-.62-.52-.62-.92v-5c0-.27.11-.52.29-.71l6-6A1.002 1.002 0 0 1 25 13v.01Z"/></svg>