<svg xmlns="http://www.w3.org/2000/svg" viewBox="0 0 32 32"><path d="M24 8.45c-2.06-2.18-4.85-3.4-7.84-3.44-2.63-.04-5.14.85-7.15 2.52V5.77c0-.55-.45-1-1-1s-1 .45-1 1v3.99c0 .69.56 1.25 1.25 1.25h3.99c.55 0 1-.45 1-1s-.45-1-1-1h-1.9a8.771 8.771 0 0 1 5.78-2c2.45.03 4.73 1.03 6.42 2.82 3.22 3.41 3.22 8.95 0 12.36-1.69 1.78-3.97 2.79-6.42 2.82-2.45.08-4.76-.9-6.49-2.63-.3-.3-.58-.63-.84-.96-.33-.44-.96-.53-1.4-.2-.44.33-.53.96-.2 1.4.31.41.66.81 1.02 1.18 2.08 2.08 4.84 3.22 7.77 3.22h.16c3-.04 5.78-1.26 7.84-3.44 3.94-4.17 3.94-10.94 0-15.11l.01-.02Z"/></svg>