<svg xmlns="http://www.w3.org/2000/svg" viewBox="0 0 32 32"><path d="M16 30C8.28 30 2 23.72 2 16S8.28 2 16 2s14 6.28 14 14-6.28 14-14 14Zm0-26C9.38 4 4 9.38 4 16s5.38 12 12 12 12-5.38 12-12S22.62 4 16 4Zm1 15v-.43c0-1.23.63-2.35 1.64-2.94 1.82-1.06 2.71-3.09 2.22-5.07-.43-1.71-1.88-3.06-3.72-3.44-1.6-.34-3.21.04-4.43 1.02-1.09.89-1.72 2.17-1.72 3.52 0 .55.45 1 1 1s1-.45 1-1c0-.75.36-1.46.98-1.97.75-.61 1.75-.83 2.76-.62 1.07.22 1.95 1.01 2.18 1.97.28 1.12-.23 2.24-1.29 2.86-1.63.94-2.64 2.73-2.64 4.67V19c0 .55.45 1 1 1s1-.45 1-1H17Zm-1 3c-.83 0-1.5.67-1.5 1.5S15.17 25 16 25s1.5-.67 1.5-1.5S16.83 22 16 22Z"/></svg>