<svg xmlns="http://www.w3.org/2000/svg" viewBox="0 0 32 32"><path d="M15 16c-3.83 0-5.55-3.46-5.55-6.89C9.45 6.06 11.68 4 15 4s5.54 2.05 5.54 5.11c0 3.43-1.71 6.89-5.54 6.89Zm0-10c-.83 0-3.55.22-3.55 3.11 0 .5.1 4.89 3.55 4.89 3.45 0 3.54-4.39 3.54-4.89C18.54 6.23 15.83 6 15 6Zm.15 18H6v-1.56c.91-.73 3.59-2.44 9-2.44h.43c.25-.71.6-1.37 1.04-1.96-.47-.03-.96-.05-1.47-.05-6.05 0-9.19 2.02-10.26 2.88-.47.38-.74.95-.74 1.56v1.56c0 1.1.9 2 2 2h9.87c-.33-.62-.57-1.29-.72-2V24Zm7.35-7a5.51 5.51 0 0 0-5.5 5.5c0 3.03 2.47 5.5 5.5 5.5s5.5-2.47 5.5-5.5-2.47-5.5-5.5-5.5Zm0 2c.6 0 1.16.17 1.65.43l-4.72 4.72c-.27-.49-.43-1.05-.43-1.65 0-1.93 1.57-3.5 3.5-3.5Zm0 7c-.6 0-1.16-.17-1.65-.43l4.72-4.72c.27.49.43 1.05.43 1.65 0 1.93-1.57 3.5-3.5 3.5Z"/></svg>