<svg xmlns="http://www.w3.org/2000/svg" viewBox="0 0 32 32"><path d="M26.78 13.79c-.11-.54-.64-.89-1.18-.78-.54.11-.89.64-.78 1.18.19.95.23 1.93.12 2.9a8.946 8.946 0 0 1-3.39 6 8.968 8.968 0 0 1-6.64 1.85 8.907 8.907 0 0 1-6-3.39 8.956 8.956 0 0 1-1.85-6.64 8.907 8.907 0 0 1 3.39-6 8.956 8.956 0 0 1 6.64-1.85c1.69.21 3.27.88 4.57 1.93h-1.9c-.55 0-1 .45-1 1s.45 1 1 1h3.99c.69 0 1.25-.56 1.25-1.25V5.75c0-.55-.45-1-1-1s-1 .45-1 1v1.76a10.98 10.98 0 0 0-5.67-2.44c-2.92-.36-5.8.45-8.11 2.26a10.949 10.949 0 0 0-4.14 7.33c-.36 2.92.45 5.8 2.26 8.11a10.971 10.971 0 0 0 8.68 4.22c2.44 0 4.8-.81 6.76-2.34 2.31-1.81 3.78-4.41 4.14-7.33.14-1.19.1-2.38-.14-3.54v.01Z"/></svg>