<svg xmlns="http://www.w3.org/2000/svg" viewBox="0 0 32 32"><path d="M16 19c-.55 0-1-.45-1-1v-6c0-.55.45-1 1-1s1 .45 1 1v6c0 .55-.45 1-1 1Zm0 2c-.83 0-1.5.67-1.5 1.5S15.17 24 16 24s1.5-.67 1.5-1.5S16.83 21 16 21Zm5.78 6c-.26-.29-.46-.63-.6-1H6L16.04 5.99l6.24 12.55a3.01 3.01 0 0 1 1.72-.55h.25l-6.42-12.9a1.98 1.98 0 0 0-1.79-1.1c-.76 0-1.44.42-1.79 1.09L4.21 25.1a2.005 2.005 0 0 0 1.8 2.9h15.17c.14-.37.34-.71.6-1ZM29 21c0-.55-.45-1-1-1h-4c-.55 0-1 .45-1 1s.45 1 1 1h4c.55 0 1-.45 1-1Zm0 4c0-.55-.45-1-1-1h-4c-.55 0-1 .45-1 1s.45 1 1 1h4c.55 0 1-.45 1-1Zm0 4c0-.55-.45-1-1-1h-4c-.55 0-1 .45-1 1s.45 1 1 1h4c.55 0 1-.45 1-1Z"/></svg>