<svg xmlns="http://www.w3.org/2000/svg" viewBox="0 0 32 32"><path d="M29 15H3c-.55 0-1-.45-1-1s.45-1 1-1h26c.55 0 1 .45 1 1s-.45 1-1 1Zm1 13c0-.55-.45-1-1-1H3c-.55 0-1 .45-1 1s.45 1 1 1h26c.55 0 1-.45 1-1ZM14 10V5c0-1.1-.9-2-2-2H7c-1.1 0-2 .9-2 2v5c0 1.1.9 2 2 2h5c1.1 0 2-.9 2-2Zm-2-5v5H7V5h5Zm2 19v-5c0-1.1-.9-2-2-2H7c-1.1 0-2 .9-2 2v5c0 1.1.9 2 2 2h5c1.1 0 2-.9 2-2Zm-2-5v5H7v-5h5Zm15 5v-5c0-1.1-.9-2-2-2h-5c-1.1 0-2 .9-2 2v5c0 1.1.9 2 2 2h5c1.1 0 2-.9 2-2Zm-2-5v5h-5v-5h5Zm2-9V5c0-1.1-.9-2-2-2h-5c-1.1 0-2 .9-2 2v5c0 1.1.9 2 2 2h5c1.1 0 2-.9 2-2Zm-2-5v5h-5V5h5Z"/></svg>