<svg xmlns="http://www.w3.org/2000/svg" viewBox="0 0 32 32"><path d="M24 30c-.55 0-1-.45-1-1v-3c0-1.1.9-2 2-2h3V8h-3c-1.1 0-2-.9-2-2V3c0-.55.45-1 1-1s1 .45 1 1v3h3c1.1 0 2 .9 2 2v16c0 1.1-.9 2-2 2h-3v3c0 .55-.45 1-1 1Zm2-10v-8c0-1.1-.9-2-2-2h-8c-1.1 0-2 .9-2 2v8c0 1.1.9 2 2 2h8c1.1 0 2-.9 2-2Zm-2-8v8h-8v-8h8Zm-11.29 3.29-2.5-2.5A.996.996 0 1 0 8.8 14.2l.79.79H5.41l.79-.79a.996.996 0 1 0-1.41-1.41l-2.5 2.5a.996.996 0 0 0 0 1.41l2.5 2.5c.2.2.45.29.71.29.26 0 .51-.1.71-.29a.996.996 0 0 0 0-1.41L5.42 17h4.17l-.79.79a.996.996 0 0 0 .71 1.7c.26 0 .51-.1.71-.29l2.5-2.5a.996.996 0 0 0 0-1.41h-.01Z"/></svg>