<svg xmlns="http://www.w3.org/2000/svg" viewBox="0 0 32 32"><path d="M13 5H6c-1.1 0-2 .9-2 2v7c0 1.1.9 2 2 2h7c1.1 0 2-.9 2-2V7c0-1.1-.9-2-2-2Zm0 9H6V7h7v7Zm13-9h-7c-1.1 0-2 .9-2 2v7c0 1.1.9 2 2 2h7c1.1 0 2-.9 2-2V7c0-1.1-.9-2-2-2Zm0 9h-7V7h7v7Zm-2 12c-.26 0-.51-.1-.71-.29a.996.996 0 0 1 0-1.41l1.29-1.29H5c-.55 0-1-.45-1-1s.45-1 1-1h19.59l-1.29-1.29a.996.996 0 1 1 1.41-1.41l3 3c.1.1.17.21.22.33.05.12.07.24.08.37 0 .14-.03.27-.08.39-.05.11-.12.22-.21.31l-3 3.01c-.2.2-.45.29-.71.29L24 26Z"/></svg>