<svg xmlns="http://www.w3.org/2000/svg" viewBox="0 0 32 32"><path d="m27.56 25.44-5.67-5.67C22.59 18.68 23 17.39 23 16c0-3.86-3.14-7-7-7s-7 3.14-7 7 3.14 7 7 7c1.39 0 2.68-.41 3.77-1.11l5.67 5.67c.29.3.68.44 1.06.44s.77-.14 1.06-.44c.59-.58.59-1.53 0-2.12ZM11 16c0-2.76 2.24-5 5-5s5 2.24 5 5c0 1.36-.55 2.59-1.43 3.49l-.09.09c-.9.88-2.13 1.42-3.48 1.42-2.76 0-5-2.24-5-5Zm-7-4V6c0-1.1.9-2 2-2h6c.55 0 1 .45 1 1s-.45 1-1 1H6v6c0 .55-.45 1-1 1s-1-.45-1-1Zm9 15c0 .55-.45 1-1 1H6c-1.1 0-2-.9-2-2v-6c0-.55.45-1 1-1s1 .45 1 1v6h6c.55 0 1 .45 1 1Zm6-22c0-.55.45-1 1-1h6c1.1 0 2 .9 2 2v6c0 .55-.45 1-1 1s-1-.45-1-1V6h-6c-.55 0-1-.45-1-1Z"/></svg>