<?xml version="1.0" encoding="UTF-8" standalone="no"?>
<!DOCTYPE svg PUBLIC "-//W3C//DTD SVG 1.1//EN" "http://www.w3.org/Graphics/SVG/1.1/DTD/svg11.dtd">
<svg width="100%" height="100%" viewBox="0 0 350 73" version="1.1" xmlns="http://www.w3.org/2000/svg" xmlns:xlink="http://www.w3.org/1999/xlink" xml:space="preserve" xmlns:serif="http://www.serif.com/" style="fill-rule:evenodd;clip-rule:evenodd;stroke-linejoin:round;stroke-miterlimit:2;">
    <g transform="matrix(1,0,0,1,33.5,0)">
        <path d="M48.56,24.1L48.62,12C48.62,5.417 43.203,0 36.62,0L11.92,-0C5.381,-0 -0,5.381 -0,11.92L-0,60.96C-0,67.499 5.381,72.88 11.92,72.88L36.57,72.88C43.153,72.88 48.57,67.463 48.57,60.88L48.51,48.78L35.42,48.78L35.48,58C35.476,59.566 34.186,60.853 32.62,60.853C32.573,60.853 32.527,60.852 32.48,60.85L16.1,60.85C16.053,60.852 16.007,60.853 15.96,60.853C14.394,60.853 13.104,59.566 13.1,58L13.1,14.89C13.104,13.324 14.394,12.037 15.96,12.037C16.007,12.037 16.053,12.038 16.1,12.04L32.52,12.04C32.567,12.038 32.613,12.037 32.66,12.037C34.226,12.037 35.516,13.324 35.52,14.89L35.46,24.1L48.56,24.1ZM64,72.92L108.23,72.92L108.23,60.92L77.08,60.92L77.08,42.75L101.58,42.75L101.58,30.11L77.08,30.11L77.08,12L108.18,12L108.18,0L64,0L64,72.92ZM135.55,0L122.42,0L122.42,72.92L165.34,72.92L165.34,60.92L135.56,60.92L135.55,0ZM272.08,32.74C264.08,30.44 258.61,29.02 252.15,27.15C250.51,26.72 249.15,25.62 249.15,23.98L249.15,14.89C249.154,13.324 250.444,12.037 252.01,12.037C252.057,12.037 252.103,12.038 252.15,12.04L267,12.04C267.047,12.038 267.093,12.037 267.14,12.037C268.706,12.037 269.996,13.324 270,14.89L270,24.1L283.14,24.1L283.14,12C283.14,5.417 277.723,-0 271.14,-0L247.98,-0C241.441,-0 236.06,5.381 236.06,11.92L236.06,27C236.06,33.68 241.32,36.86 247.78,38.83C255.88,41.24 259.06,42.12 267.38,44.41C269.13,44.85 270.33,45.84 270.33,47.48L270.33,58.002C270.33,59.565 269.043,60.852 267.48,60.852C267.447,60.852 267.413,60.851 267.38,60.85L251.93,60.85C251.907,60.851 251.883,60.851 251.86,60.851C250.294,60.851 249.005,59.565 249,58L249,48.78L235.83,48.78L235.83,60.88C235.83,67.463 241.247,72.88 247.83,72.88L271.5,72.88C278.034,72.88 283.41,67.504 283.41,60.97L283.41,44.56C283.46,37.89 278.32,34.49 272.08,32.74Z" style="fill-rule:nonzero;"/>
    </g>
    <g transform="matrix(1,0,0,1,33.5,0)">
        <path d="M192.35,60.88L186.89,60.88C186.843,60.882 186.797,60.883 186.75,60.883C185.184,60.883 183.894,59.596 183.89,58.03L183.89,14.89C183.894,13.324 185.184,12.037 186.75,12.037C186.797,12.037 186.843,12.038 186.89,12.04L192.35,12.04L192.35,0L182.71,-0C176.171,-0 170.79,5.381 170.79,11.92L170.79,60.96C170.79,67.499 176.171,72.88 182.71,72.88L192.35,72.88L192.35,60.88Z" style="fill-rule:nonzero;"/>
    </g>
    <g transform="matrix(1,0,0,1,33.5,0)">
        <path d="M208.51,-0L199,0L199,12L204.46,12C204.507,11.998 204.553,11.997 204.6,11.997C206.166,11.997 207.456,13.284 207.46,14.85L207.46,58C207.456,59.566 206.166,60.853 204.6,60.853C204.553,60.853 204.507,60.852 204.46,60.85L199,60.85L199,72.85L208.51,72.85C215.093,72.85 220.51,67.433 220.51,60.85L220.51,12C220.51,5.417 215.093,-0 208.51,-0Z" style="fill-rule:nonzero;"/>
    </g>
</svg>
